<svg id="svg" version="1.1" xmlns="http://www.w3.org/2000/svg" xmlns:xlink="http://www.w3.org/1999/xlink" width="400" height="168.42105263157896" viewBox="0, 0, 400,168.42105263157896"><g id="svgg"><path id="path0" d="M41.045 46.927 C 40.987 46.985,40.652 47.091,40.301 47.163 C 39.950 47.235,39.142 47.446,38.504 47.631 C 37.359 47.963,36.379 47.893,36.379 47.478 C 36.379 47.395,36.265 47.326,36.126 47.326 C 35.849 47.326,35.786 47.937,36.024 48.313 C 36.369 48.858,34.625 50.027,33.477 50.022 C 32.528 50.018,30.200 50.964,29.137 51.786 C 28.720 52.109,28.152 52.494,27.874 52.644 C 27.596 52.793,26.876 53.423,26.274 54.044 C 25.515 54.827,24.960 55.244,24.466 55.402 C 23.778 55.623,22.977 56.253,23.384 56.253 C 23.491 56.253,23.579 56.177,23.579 56.084 C 23.579 55.992,23.664 55.916,23.768 55.916 C 23.896 55.916,23.887 56.000,23.741 56.176 C 23.622 56.319,23.425 56.398,23.304 56.352 C 23.182 56.305,23.000 56.396,22.898 56.554 C 22.690 56.879,22.745 56.465,22.988 55.874 C 23.073 55.668,23.031 55.579,22.849 55.579 C 22.452 55.579,22.366 55.850,22.551 56.521 C 22.729 57.163,21.624 59.252,21.095 59.275 C 20.979 59.280,20.884 59.345,20.884 59.420 C 20.884 59.495,20.236 60.272,19.445 61.146 C 18.653 62.021,17.962 62.941,17.910 63.191 C 17.857 63.441,17.671 63.775,17.496 63.933 C 17.322 64.091,17.179 64.326,17.179 64.455 C 17.179 64.584,16.989 65.045,16.758 65.480 C 16.526 65.915,16.337 66.376,16.337 66.504 C 16.337 66.633,16.116 67.202,15.846 67.769 C 14.505 70.585,13.811 72.151,13.811 72.359 C 13.811 72.486,13.738 72.589,13.650 72.589 C 13.561 72.589,13.443 72.874,13.386 73.221 C 13.330 73.568,13.175 74.158,13.042 74.532 C 12.909 74.906,12.797 75.701,12.794 76.300 C 12.791 76.925,12.685 77.569,12.547 77.811 C 12.365 78.130,12.305 78.943,12.301 81.187 C 12.297 83.133,12.230 84.207,12.107 84.331 C 11.817 84.621,12.204 88.817,12.569 89.343 C 12.696 89.525,12.800 89.958,12.800 90.303 C 12.800 90.648,12.915 91.370,13.056 91.908 C 13.197 92.445,13.345 93.333,13.387 93.881 C 13.428 94.429,13.538 94.925,13.632 94.983 C 13.726 95.041,13.950 95.551,14.130 96.115 C 14.311 96.680,14.532 97.283,14.621 97.455 C 14.711 97.628,14.916 98.223,15.076 98.779 C 15.236 99.335,15.415 99.827,15.473 99.874 C 15.531 99.920,15.951 100.678,16.406 101.558 C 16.860 102.438,17.410 103.372,17.627 103.634 C 17.844 103.896,18.021 104.239,18.021 104.396 C 18.021 104.554,18.229 104.883,18.484 105.128 C 19.246 105.861,19.537 106.208,19.537 106.385 C 19.537 106.477,19.726 106.730,19.958 106.947 C 20.189 107.165,20.379 107.443,20.379 107.566 C 20.379 107.689,20.455 107.789,20.547 107.789 C 20.640 107.789,20.697 107.851,20.674 107.927 C 20.607 108.146,22.335 109.811,22.628 109.811 C 22.774 109.811,22.973 109.960,23.071 110.142 C 23.403 110.762,27.217 114.189,27.575 114.189 C 27.664 114.189,27.881 114.349,28.058 114.544 C 28.234 114.738,28.606 115.014,28.884 115.157 C 29.162 115.299,29.427 115.466,29.474 115.527 C 29.520 115.588,29.839 115.769,30.182 115.929 C 30.526 116.089,30.853 116.294,30.909 116.385 C 31.002 116.536,32.332 117.195,33.853 117.845 C 34.177 117.983,34.707 118.233,35.032 118.400 C 35.356 118.567,35.962 118.800,36.379 118.918 C 36.796 119.036,37.213 119.185,37.305 119.248 C 37.599 119.450,38.498 119.652,40.337 119.929 C 40.985 120.027,41.678 120.186,41.876 120.282 C 42.084 120.384,42.581 120.410,43.055 120.345 C 43.505 120.283,44.215 120.240,44.632 120.251 C 45.048 120.261,48.059 120.306,51.322 120.350 L 57.254 120.429 58.208 119.920 C 58.734 119.640,59.252 119.411,59.360 119.411 C 59.469 119.411,59.872 119.259,60.255 119.074 C 60.638 118.888,61.164 118.736,61.423 118.736 C 62.299 118.734,63.070 118.408,63.993 117.650 C 64.640 117.118,65.126 116.862,65.637 116.786 C 66.036 116.726,66.404 116.609,66.456 116.525 C 66.507 116.442,66.620 116.417,66.706 116.470 C 66.793 116.524,66.863 116.490,66.863 116.397 C 66.863 116.095,67.766 115.307,68.579 114.901 C 69.013 114.685,69.638 114.208,69.968 113.843 C 70.298 113.478,70.681 113.179,70.821 113.179 C 70.960 113.179,71.074 113.073,71.074 112.943 C 71.074 112.813,71.306 112.626,71.590 112.527 C 72.151 112.331,76.900 107.626,77.604 106.568 C 77.835 106.221,78.089 105.937,78.170 105.937 C 78.250 105.937,78.316 105.853,78.316 105.751 C 78.316 105.648,78.543 105.278,78.820 104.928 C 79.097 104.578,79.555 103.847,79.839 103.304 C 80.122 102.760,80.452 102.240,80.572 102.147 C 80.692 102.055,80.926 101.717,81.091 101.398 C 81.256 101.078,81.493 100.715,81.618 100.590 C 81.742 100.465,81.959 99.975,82.100 99.501 C 82.241 99.027,82.461 98.519,82.588 98.372 C 82.823 98.101,82.982 97.570,83.147 96.505 C 83.197 96.181,83.343 95.797,83.470 95.652 C 83.597 95.507,83.750 95.146,83.809 94.849 C 83.869 94.552,83.983 94.268,84.064 94.218 C 84.145 94.168,84.211 93.788,84.211 93.374 C 84.211 92.959,84.315 92.452,84.443 92.247 C 84.583 92.023,84.718 91.132,84.781 90.018 C 84.838 88.997,84.957 87.913,85.044 87.608 C 85.292 86.743,85.451 79.182,85.227 78.912 C 85.124 78.789,85.058 78.623,85.079 78.544 C 85.100 78.465,85.027 77.756,84.917 76.968 C 84.807 76.181,84.698 75.234,84.674 74.863 C 84.646 74.409,84.559 74.205,84.409 74.236 C 84.286 74.261,84.231 74.209,84.286 74.120 C 84.341 74.031,84.261 73.887,84.107 73.802 C 83.926 73.700,83.800 73.346,83.746 72.784 C 83.700 72.310,83.559 71.836,83.431 71.730 C 83.304 71.624,83.199 71.414,83.197 71.264 C 83.194 70.940,82.854 69.964,82.563 69.443 C 82.450 69.240,82.358 68.786,82.357 68.432 C 82.357 67.783,81.844 66.727,81.408 66.474 C 81.278 66.399,81.220 66.259,81.279 66.164 C 81.447 65.892,80.811 64.740,80.306 64.400 C 80.055 64.231,79.810 63.938,79.763 63.748 C 79.715 63.558,79.250 62.874,78.729 62.227 C 78.208 61.581,77.665 60.816,77.523 60.527 C 77.380 60.238,76.962 59.746,76.592 59.432 C 76.222 59.119,75.682 58.598,75.392 58.274 C 73.449 56.108,71.464 54.409,70.868 54.404 C 70.200 54.398,69.368 53.873,68.132 52.677 C 66.694 51.287,66.468 51.097,65.877 50.791 C 65.602 50.650,65.352 50.475,65.320 50.404 C 65.237 50.214,63.158 49.205,62.575 49.071 C 62.135 48.970,62.115 48.941,62.406 48.827 C 62.693 48.714,62.678 48.696,62.293 48.686 C 62.049 48.679,61.632 48.560,61.367 48.422 C 61.101 48.284,60.571 48.170,60.188 48.169 C 59.805 48.169,59.274 48.055,59.009 47.917 C 58.743 47.778,58.133 47.665,57.652 47.664 C 57.171 47.664,56.734 47.592,56.680 47.505 C 56.286 46.867,55.723 46.821,48.339 46.821 C 44.386 46.821,41.103 46.869,41.045 46.927 M54.653 49.738 C 67.412 52.142,78.502 62.765,81.429 75.384 C 83.639 84.912,81.443 97.098,76.416 103.208 C 76.118 103.570,75.646 104.193,75.368 104.591 C 73.866 106.747,69.390 111.048,67.256 112.388 C 66.870 112.630,66.502 112.914,66.438 113.018 C 66.373 113.122,66.007 113.355,65.624 113.536 C 65.240 113.716,64.509 114.099,64.000 114.387 C 59.780 116.767,55.174 117.807,48.842 117.808 C 39.725 117.811,34.539 115.914,26.755 109.728 C 25.488 108.720,22.882 105.951,21.922 104.591 C 21.496 103.988,21.087 103.451,21.013 103.399 C 20.704 103.179,19.124 100.504,18.284 98.779 C 14.557 91.128,13.905 80.908,16.617 72.674 C 18.465 67.063,23.375 60.006,27.639 56.832 C 27.881 56.652,28.525 56.165,29.071 55.749 C 30.588 54.592,31.920 53.761,33.768 52.816 C 36.966 51.182,38.677 50.575,41.389 50.110 C 42.246 49.963,43.059 49.799,43.197 49.746 C 44.340 49.308,52.339 49.302,54.653 49.738 M24.084 54.737 C 24.084 55.137,24.509 55.189,24.656 54.807 C 24.804 54.421,24.792 54.400,24.421 54.400 C 24.196 54.400,24.084 54.512,24.084 54.737 M86.565 62.358 C 86.563 62.566,86.451 64.669,86.316 67.032 C 86.181 69.394,86.069 71.539,86.067 71.798 C 86.063 72.266,86.070 72.269,87.032 72.219 L 88.000 72.168 88.128 71.074 C 88.199 70.472,88.324 69.827,88.406 69.642 C 88.488 69.457,88.685 68.794,88.844 68.168 C 89.002 67.543,89.194 67.032,89.271 67.032 C 89.347 67.032,89.461 66.869,89.524 66.670 C 89.672 66.203,90.624 65.251,91.091 65.103 C 91.290 65.039,91.453 64.928,91.453 64.854 C 91.453 64.590,93.400 64.337,95.439 64.337 L 97.516 64.337 97.516 78.568 L 97.516 92.800 95.158 92.800 L 92.800 92.800 92.800 93.895 L 92.800 94.989 100.042 94.989 L 107.284 94.989 107.284 93.895 L 107.284 92.800 104.842 92.800 L 102.400 92.800 102.400 78.548 L 102.400 64.297 105.058 64.364 C 108.688 64.457,110.989 65.747,110.989 67.689 C 110.989 67.790,111.055 67.874,111.134 67.874 C 111.277 67.874,111.587 69.433,111.804 71.242 L 111.916 72.168 112.974 72.219 L 114.031 72.269 113.917 69.271 C 113.854 67.623,113.738 66.248,113.659 66.218 C 113.580 66.187,113.516 65.340,113.516 64.337 C 113.516 63.333,113.470 62.392,113.414 62.245 C 113.322 62.006,111.978 61.979,99.940 61.979 L 86.568 61.979 86.565 62.358 M68.623 65.089 C 68.489 65.411,68.376 65.771,68.371 65.889 C 68.352 66.434,67.493 67.667,66.286 68.882 C 64.836 70.342,64.758 70.654,65.802 70.820 C 66.154 70.876,66.829 71.108,67.301 71.335 C 68.497 71.909,68.909 71.871,69.562 71.128 C 70.885 69.620,71.437 67.398,70.801 66.139 C 69.935 64.426,69.074 64.011,68.623 65.089 M29.726 71.676 C 22.687 72.786,18.647 77.721,19.980 83.582 C 21.658 90.959,31.868 92.514,35.779 85.989 C 36.565 84.678,36.561 84.090,35.759 82.733 C 34.978 81.414,34.676 81.380,33.778 82.514 C 30.101 87.156,22.731 86.377,22.742 81.347 C 22.747 79.065,24.892 77.040,28.628 75.788 C 30.735 75.083,37.257 75.492,42.274 76.643 C 43.061 76.824,44.274 77.053,44.968 77.152 C 45.663 77.251,46.724 77.405,47.326 77.494 C 50.261 77.929,49.973 78.041,51.808 75.757 C 52.307 75.138,52.945 74.494,53.227 74.327 C 54.622 73.503,54.029 72.934,51.892 73.046 C 50.740 73.106,49.521 73.025,47.663 72.764 C 40.191 71.714,32.457 71.245,29.726 71.676 M59.621 72.392 C 52.905 74.626,48.254 81.829,48.291 89.937 C 48.316 95.463,51.445 100.564,56.031 102.554 C 58.496 103.624,62.577 103.497,65.003 102.275 C 67.165 101.186,67.144 100.278,64.977 101.150 C 63.096 101.907,58.633 101.904,57.347 101.145 C 53.167 98.678,51.531 96.005,51.261 91.200 C 50.833 83.581,59.083 73.824,64.026 76.103 C 67.673 77.785,67.857 82.682,64.398 85.979 C 63.271 87.054,63.237 87.421,64.223 87.884 C 66.454 88.933,67.859 88.229,69.423 85.278 C 71.741 80.903,71.027 75.625,67.828 73.478 C 65.817 72.128,61.952 71.617,59.621 72.392 M121.095 74.939 C 120.956 75.016,120.406 75.205,119.874 75.359 C 119.341 75.513,118.905 75.692,118.905 75.757 C 118.905 75.822,118.686 75.973,118.418 76.091 C 117.822 76.355,116.840 77.171,116.146 77.979 C 115.806 78.376,114.863 79.797,114.863 79.913 C 114.863 79.971,114.719 80.336,114.542 80.725 C 113.650 82.689,113.645 89.064,114.535 89.768 C 114.594 89.815,114.776 90.208,114.939 90.642 C 115.103 91.076,115.343 91.471,115.471 91.521 C 115.600 91.570,115.705 91.708,115.705 91.827 C 115.705 92.115,117.594 93.914,118.046 94.058 C 118.241 94.119,118.400 94.226,118.400 94.294 C 118.400 94.362,118.798 94.558,119.284 94.729 C 119.771 94.899,120.275 95.123,120.405 95.225 C 120.712 95.465,126.446 95.481,126.617 95.242 C 126.683 95.149,127.091 94.947,127.524 94.792 C 128.343 94.498,128.580 94.331,129.561 93.350 C 130.506 92.404,130.683 92.163,130.980 91.408 C 131.135 91.016,131.314 90.657,131.379 90.611 C 131.443 90.564,131.594 90.088,131.713 89.552 C 131.982 88.345,131.877 88.216,130.606 88.189 L 129.652 88.168 129.346 89.150 C 129.177 89.690,128.919 90.264,128.772 90.426 C 128.625 90.589,128.505 90.783,128.505 90.859 C 128.505 91.035,127.368 92.146,126.913 92.414 C 126.083 92.903,125.644 93.019,124.316 93.098 C 122.970 93.177,121.095 92.920,121.095 92.656 C 121.095 92.590,120.867 92.401,120.589 92.237 C 120.312 92.073,120.084 91.866,120.084 91.776 C 120.084 91.687,119.898 91.331,119.669 90.986 C 119.405 90.585,119.185 89.900,119.062 89.095 C 118.956 88.400,118.802 87.700,118.719 87.539 C 118.636 87.378,118.568 86.677,118.568 85.981 L 118.568 84.716 125.305 84.716 L 132.042 84.716 132.042 83.652 C 132.042 80.625,130.564 77.506,128.545 76.271 C 128.199 76.059,127.827 75.800,127.719 75.695 C 127.611 75.590,127.156 75.411,126.708 75.297 C 126.261 75.183,125.763 75.020,125.602 74.935 C 125.241 74.742,121.442 74.746,121.095 74.939 M141.782 74.905 C 141.752 74.975,141.197 75.167,140.551 75.332 C 139.905 75.497,139.313 75.743,139.237 75.879 C 139.161 76.015,139.001 76.126,138.881 76.126 C 138.557 76.126,137.052 77.866,136.819 78.512 C 136.560 79.225,136.532 81.814,136.773 82.769 C 137.111 84.110,140.177 86.566,141.516 86.568 C 141.678 86.568,141.811 86.627,141.811 86.700 C 141.811 86.829,143.574 87.411,143.966 87.411 C 144.077 87.411,144.168 87.476,144.168 87.557 C 144.168 87.637,144.623 87.831,145.179 87.987 C 145.735 88.142,146.189 88.342,146.189 88.430 C 146.189 88.518,146.288 88.589,146.409 88.589 C 147.710 88.589,148.174 91.192,147.070 92.296 C 145.196 94.170,139.883 93.465,139.191 91.251 C 139.125 91.037,139.006 90.821,138.927 90.770 C 138.751 90.657,138.442 89.091,138.442 88.314 L 138.442 87.747 137.347 87.747 L 136.253 87.747 136.253 89.179 C 136.253 89.990,136.323 90.611,136.416 90.611 C 136.509 90.611,136.599 91.458,136.626 92.589 L 136.674 94.568 137.937 94.815 C 138.632 94.950,139.254 95.140,139.320 95.236 C 139.493 95.488,146.182 95.470,146.710 95.216 C 146.933 95.108,147.439 94.900,147.835 94.753 C 149.504 94.130,151.111 92.574,151.339 91.361 C 151.399 91.041,151.515 90.779,151.598 90.779 C 151.795 90.779,151.791 88.331,151.593 87.956 C 151.508 87.795,151.341 87.401,151.221 87.081 C 150.767 85.863,148.652 84.311,146.611 83.696 C 146.240 83.584,145.861 83.436,145.768 83.367 C 145.676 83.297,145.145 83.111,144.589 82.952 C 144.034 82.793,143.503 82.605,143.411 82.534 C 143.318 82.462,142.806 82.270,142.274 82.105 C 141.741 81.941,141.305 81.757,141.305 81.697 C 141.305 81.637,141.087 81.460,140.821 81.302 C 139.345 80.431,140.044 77.748,141.906 77.133 C 145.147 76.064,148.181 77.916,148.532 81.178 L 148.632 82.105 149.622 82.156 L 150.612 82.208 150.488 78.956 C 150.347 75.256,150.500 75.550,148.558 75.272 C 147.765 75.159,147.044 75.001,146.956 74.922 C 146.759 74.746,141.861 74.730,141.782 74.905 M161.516 74.935 C 161.377 75.010,160.747 75.194,160.116 75.344 C 159.486 75.494,158.855 75.732,158.715 75.872 C 158.575 76.012,158.380 76.126,158.282 76.126 C 157.927 76.126,156.340 77.962,156.233 78.497 C 155.723 81.047,156.450 82.189,158.582 82.189 C 160.481 82.189,161.160 81.417,161.024 79.411 C 160.999 79.040,160.929 78.699,160.868 78.653 C 159.645 77.718,160.797 76.968,163.455 76.968 C 165.305 76.968,166.295 77.498,166.501 78.599 C 166.559 78.908,166.674 79.203,166.756 79.254 C 166.838 79.305,166.905 80.327,166.905 81.526 L 166.905 83.705 165.527 83.705 C 163.931 83.705,161.179 84.027,161.179 84.213 C 161.179 84.283,160.819 84.393,160.379 84.456 C 158.313 84.755,155.755 86.586,155.308 88.086 C 155.184 88.502,155.015 88.974,154.931 89.135 C 154.724 89.533,154.737 91.453,154.947 91.453 C 155.040 91.453,155.117 91.623,155.119 91.832 C 155.130 92.943,156.212 94.251,157.743 95.004 C 158.687 95.469,163.411 95.635,163.671 95.213 C 163.738 95.105,163.984 94.968,164.219 94.909 C 164.696 94.789,165.999 93.808,166.355 93.301 C 166.658 92.868,167.074 92.874,167.074 93.311 C 167.074 93.852,168.123 94.784,168.868 94.904 C 169.224 94.961,169.647 95.080,169.808 95.167 C 170.198 95.379,172.584 95.372,172.716 95.158 C 172.773 95.065,173.194 94.989,173.652 94.989 L 174.484 94.989 174.484 93.895 L 174.484 92.800 173.250 92.800 C 172.142 92.800,171.975 92.756,171.608 92.365 L 171.200 91.930 171.200 85.370 C 171.200 80.982,171.142 78.769,171.023 78.689 C 170.926 78.623,170.749 78.233,170.629 77.822 C 170.324 76.781,169.049 75.571,167.968 75.296 C 167.522 75.183,167.026 75.020,166.865 74.935 C 166.508 74.744,161.868 74.745,161.516 74.935 M188.371 74.923 C 188.283 75.002,187.844 75.165,187.395 75.286 C 186.947 75.406,186.541 75.607,186.493 75.731 C 186.445 75.856,186.319 75.958,186.214 75.959 C 185.962 75.961,184.589 77.360,184.589 77.614 C 184.589 77.722,184.514 77.811,184.421 77.811 C 184.325 77.811,184.253 77.305,184.253 76.632 L 184.253 75.453 180.287 75.453 L 176.321 75.453 176.371 76.589 L 176.421 77.726 178.063 77.775 L 179.705 77.823 179.705 85.311 L 179.705 92.800 178.021 92.800 L 176.337 92.800 176.337 93.895 L 176.337 94.989 181.811 94.989 L 187.284 94.989 187.284 93.895 L 187.284 92.800 185.768 92.800 L 184.253 92.800 184.253 87.998 C 184.253 85.356,184.322 83.064,184.408 82.903 C 184.493 82.742,184.683 82.084,184.830 81.441 C 184.977 80.797,185.154 80.229,185.223 80.177 C 185.292 80.126,185.461 79.857,185.600 79.580 C 185.962 78.857,186.769 78.091,187.453 77.821 C 187.777 77.693,188.114 77.524,188.202 77.447 C 188.418 77.256,190.653 77.265,190.653 77.457 C 190.653 77.541,190.881 77.689,191.160 77.786 C 191.439 77.883,191.718 78.099,191.779 78.266 C 191.841 78.432,191.964 78.617,192.054 78.677 C 192.391 78.903,192.485 80.600,192.495 86.611 L 192.505 92.800 190.897 92.800 L 189.289 92.800 189.339 93.853 L 189.389 94.905 194.737 94.950 L 200.084 94.994 200.084 93.897 L 200.084 92.800 198.484 92.800 L 196.884 92.800 196.884 86.431 C 196.884 77.569,196.442 76.057,193.619 75.256 C 193.238 75.147,192.854 74.996,192.766 74.919 C 192.555 74.734,188.577 74.737,188.371 74.923 M210.274 74.947 C 210.216 75.040,210.025 75.116,209.849 75.116 C 209.370 75.116,207.978 75.619,207.707 75.890 C 207.577 76.020,207.364 76.126,207.234 76.126 C 206.310 76.126,203.560 79.697,203.198 81.365 C 203.129 81.680,202.988 81.991,202.884 82.057 C 202.616 82.227,202.625 88.057,202.893 88.605 C 203.002 88.828,203.217 89.408,203.370 89.895 C 203.523 90.381,203.699 90.779,203.762 90.779 C 203.824 90.779,203.983 91.025,204.114 91.326 C 204.245 91.627,204.509 92.042,204.702 92.249 C 205.826 93.451,205.933 93.543,207.060 94.274 C 207.525 94.575,208.021 94.822,208.163 94.822 C 208.305 94.823,208.648 94.954,208.926 95.115 C 209.538 95.468,215.172 95.559,215.595 95.222 C 215.725 95.119,216.229 94.904,216.716 94.746 C 217.202 94.587,217.600 94.395,217.600 94.319 C 217.600 94.243,217.828 94.101,218.107 94.003 C 218.387 93.906,218.660 93.709,218.715 93.566 C 218.770 93.423,218.913 93.305,219.032 93.305 C 219.227 93.305,219.590 92.938,220.514 91.802 C 221.077 91.110,221.758 89.690,221.974 88.758 C 222.092 88.248,222.272 87.654,222.373 87.437 C 222.610 86.931,222.602 82.990,222.362 82.486 C 222.263 82.277,222.052 81.594,221.893 80.968 C 221.735 80.343,221.545 79.832,221.471 79.832 C 221.398 79.832,221.254 79.591,221.152 79.297 C 221.049 79.003,220.856 78.643,220.721 78.497 C 220.587 78.351,220.200 77.909,219.861 77.516 C 219.522 77.122,219.140 76.800,219.012 76.800 C 218.884 76.800,218.779 76.726,218.779 76.636 C 218.779 76.546,218.533 76.346,218.232 76.191 C 217.931 76.037,217.646 75.855,217.600 75.786 C 217.485 75.616,215.981 75.116,215.583 75.116 C 215.406 75.116,215.215 75.040,215.158 74.947 C 215.097 74.848,214.093 74.779,212.716 74.779 C 211.339 74.779,210.335 74.848,210.274 74.947 M124.831 77.121 C 125.233 77.278,125.653 77.645,126.220 78.333 C 126.572 78.760,126.983 80.257,126.987 81.127 C 126.988 81.422,127.065 81.711,127.158 81.768 C 127.251 81.826,127.326 82.058,127.326 82.284 L 127.326 82.695 123.116 82.695 L 118.905 82.695 118.908 82.147 C 118.912 81.276,119.386 79.498,119.750 78.986 C 119.934 78.728,120.084 78.452,120.084 78.374 C 120.084 78.185,121.154 77.338,121.638 77.144 C 122.140 76.942,124.333 76.926,124.831 77.121 M214.527 77.125 C 215.428 77.383,216.683 78.816,216.930 79.866 C 217.045 80.356,217.224 80.864,217.327 80.995 C 217.577 81.308,217.592 89.223,217.343 89.396 C 217.248 89.462,217.035 89.952,216.871 90.484 C 216.707 91.017,216.500 91.453,216.412 91.453 C 216.325 91.453,216.253 91.554,216.253 91.677 C 216.253 92.509,214.391 93.305,212.445 93.305 C 210.194 93.305,209.011 92.628,208.407 90.991 C 208.244 90.550,208.049 90.108,207.974 90.008 C 207.365 89.195,207.370 80.775,207.980 80.338 C 208.045 80.291,208.201 79.933,208.327 79.542 C 208.636 78.581,209.782 77.400,210.665 77.134 C 211.297 76.943,213.871 76.937,214.527 77.125 M38.839 77.843 C 38.608 78.196,38.598 78.452,38.761 79.757 C 38.893 80.813,38.906 82.900,38.806 86.737 C 38.517 97.776,38.603 99.584,39.503 101.389 C 40.554 103.496,43.241 103.596,42.283 101.493 C 42.028 100.934,41.934 100.228,41.852 98.263 C 41.749 95.806,41.807 95.059,42.323 92.126 C 42.462 91.339,42.663 90.013,42.772 89.179 C 42.880 88.345,43.157 86.608,43.388 85.319 C 44.461 79.324,43.942 78.209,39.768 77.542 C 39.193 77.450,39.071 77.489,38.839 77.843 M85.726 79.832 C 85.726 80.168,85.811 80.337,85.979 80.337 C 86.147 80.337,86.232 80.168,86.232 79.832 C 86.232 79.495,86.147 79.326,85.979 79.326 C 85.811 79.326,85.726 79.495,85.726 79.832 M85.726 81.432 C 85.726 81.694,85.822 81.853,85.979 81.853 C 86.136 81.853,86.232 81.694,86.232 81.432 C 86.232 81.170,86.136 81.011,85.979 81.011 C 85.822 81.011,85.726 81.170,85.726 81.432 M85.668 84.169 C 85.515 84.416,85.768 85.221,85.999 85.221 C 86.153 85.221,86.232 85.021,86.232 84.632 C 86.232 84.082,85.893 83.805,85.668 84.169 M166.905 86.980 C 166.905 87.669,166.829 88.280,166.737 88.337 C 166.644 88.394,166.568 88.616,166.568 88.831 C 166.568 89.278,166.117 90.636,165.924 90.772 C 165.853 90.822,165.633 91.095,165.435 91.378 C 165.238 91.660,164.787 92.039,164.433 92.220 C 164.079 92.400,163.735 92.623,163.669 92.716 C 163.340 93.178,160.922 92.905,160.359 92.342 C 159.060 91.045,159.454 86.905,160.876 86.905 C 160.963 86.905,161.141 86.799,161.271 86.669 C 161.401 86.538,162.059 86.337,162.733 86.222 C 163.407 86.106,164.030 85.948,164.118 85.869 C 164.206 85.791,164.869 85.726,165.592 85.726 L 166.905 85.726 166.905 86.980 M85.726 86.821 C 85.726 86.960,85.840 87.074,85.979 87.074 C 86.118 87.074,86.232 86.960,86.232 86.821 C 86.232 86.682,86.118 86.568,85.979 86.568 C 85.840 86.568,85.726 86.682,85.726 86.821 M57.459 120.798 C 57.155 121.102,57.228 121.432,57.600 121.432 C 57.821 121.432,57.937 121.319,57.937 121.105 C 57.937 120.690,57.711 120.545,57.459 120.798 " stroke="none" fill="#eee7e5" fill-rule="evenodd"></path><path id="path1" d="M44.671 49.511 C 43.998 49.588,43.335 49.693,43.197 49.746 C 43.059 49.799,42.246 49.963,41.389 50.110 C 37.385 50.796,32.838 52.878,29.071 55.749 C 28.525 56.165,27.881 56.652,27.639 56.832 C 23.375 60.006,18.465 67.063,16.617 72.674 C 13.905 80.908,14.557 91.128,18.284 98.779 C 19.124 100.504,20.704 103.179,21.013 103.399 C 21.087 103.451,21.496 103.988,21.922 104.591 C 22.882 105.951,25.488 108.720,26.755 109.728 C 34.539 115.914,39.725 117.811,48.842 117.808 C 55.174 117.807,59.780 116.767,64.000 114.387 C 64.509 114.099,65.240 113.716,65.624 113.536 C 66.007 113.355,66.373 113.122,66.438 113.018 C 66.502 112.914,66.870 112.630,67.256 112.388 C 69.390 111.048,73.866 106.747,75.368 104.591 C 75.646 104.193,76.118 103.570,76.416 103.208 C 81.443 97.098,83.639 84.912,81.429 75.384 C 78.502 62.765,67.412 52.142,54.653 49.738 C 53.089 49.443,46.573 49.295,44.671 49.511 M251.621 61.241 C 251.389 61.284,251.048 61.385,250.863 61.465 C 250.678 61.545,250.147 61.704,249.684 61.818 C 248.701 62.059,246.797 62.937,246.326 63.366 C 246.147 63.529,245.928 63.663,245.840 63.663 C 245.752 63.663,245.508 63.834,245.297 64.042 C 245.086 64.251,244.714 64.573,244.469 64.758 C 243.835 65.239,242.033 67.515,241.915 67.984 C 241.861 68.201,241.759 68.379,241.689 68.379 C 241.619 68.379,241.426 68.739,241.259 69.179 C 241.093 69.619,240.895 70.020,240.820 70.070 C 240.745 70.121,240.548 70.689,240.383 71.333 C 240.219 71.978,240.037 72.543,239.979 72.589 C 239.214 73.201,239.253 84.884,240.021 84.884 C 240.102 84.884,240.168 85.027,240.168 85.202 C 240.168 85.581,240.695 87.291,240.849 87.411 C 240.909 87.457,241.093 87.855,241.259 88.295 C 241.426 88.735,241.610 89.095,241.669 89.095 C 241.728 89.095,241.926 89.375,242.109 89.718 C 242.463 90.380,242.646 90.607,243.759 91.762 C 244.814 92.858,246.116 93.818,246.863 94.051 C 247.072 94.117,247.242 94.229,247.242 94.300 C 247.242 94.372,247.716 94.570,248.295 94.740 C 248.874 94.910,249.426 95.107,249.522 95.178 C 250.370 95.808,259.618 95.793,260.463 95.160 C 260.556 95.091,261.162 94.938,261.811 94.820 C 262.459 94.703,263.274 94.485,263.621 94.337 L 264.253 94.068 264.253 91.760 C 264.253 90.403,264.322 89.409,264.421 89.347 C 264.519 89.287,264.589 88.335,264.589 87.064 L 264.589 84.884 263.582 84.884 C 262.444 84.884,262.583 84.678,262.224 86.905 C 262.112 87.600,261.967 88.206,261.903 88.253 C 261.838 88.299,261.656 88.737,261.498 89.226 C 261.340 89.715,261.096 90.246,260.957 90.405 C 259.984 91.512,259.386 92.076,258.947 92.295 C 258.669 92.434,258.350 92.634,258.238 92.739 C 257.409 93.520,250.318 93.430,249.768 92.632 C 249.722 92.565,249.456 92.393,249.177 92.250 C 248.506 91.907,246.400 89.619,246.400 89.234 C 246.400 89.163,246.220 88.705,246.000 88.216 C 245.780 87.726,245.501 86.796,245.381 86.147 C 245.260 85.499,245.096 84.881,245.015 84.773 C 244.494 84.079,244.501 72.627,245.023 72.260 C 245.095 72.209,245.252 71.638,245.374 70.989 C 245.495 70.341,245.706 69.583,245.841 69.305 C 245.977 69.027,246.201 68.473,246.338 68.074 C 246.608 67.291,246.677 67.199,248.112 65.709 C 248.680 65.120,249.378 64.591,249.838 64.402 C 250.262 64.227,250.610 64.034,250.610 63.973 C 250.611 63.713,253.153 63.461,255.143 63.523 C 258.863 63.639,261.221 65.565,261.653 68.842 C 261.717 69.328,261.836 69.726,261.916 69.726 C 261.997 69.726,262.063 70.067,262.063 70.484 L 262.063 71.242 263.059 71.242 L 264.055 71.242 263.975 67.242 C 263.884 62.646,263.865 62.484,263.407 62.484 C 263.224 62.484,263.074 62.415,263.074 62.331 C 263.074 62.247,262.335 62.053,261.432 61.901 C 260.528 61.748,259.638 61.537,259.453 61.432 C 259.115 61.240,252.492 61.079,251.621 61.241 M70.119 65.053 C 71.241 66.551,71.376 67.824,70.590 69.485 C 69.548 71.688,68.851 72.079,67.301 71.335 C 66.829 71.108,66.154 70.876,65.802 70.820 C 64.758 70.654,64.836 70.342,66.286 68.882 C 67.493 67.667,68.352 66.434,68.371 65.889 C 68.417 64.585,69.412 64.109,70.119 65.053 M297.221 70.523 C 296.874 70.559,296.589 70.660,296.589 70.747 C 296.589 70.834,296.330 70.905,296.014 70.905 C 294.897 70.905,294.905 70.888,294.905 73.281 L 294.905 75.453 293.221 75.453 L 291.537 75.453 291.537 76.632 L 291.537 77.811 293.208 77.811 L 294.879 77.811 294.948 84.842 C 295.016 91.713,295.125 93.137,295.587 93.137 C 295.675 93.137,295.747 93.234,295.747 93.352 C 295.747 93.643,296.801 94.620,297.568 95.040 C 299.683 96.199,305.347 95.086,305.347 93.511 C 305.347 93.392,305.463 93.250,305.605 93.196 C 305.746 93.142,305.986 92.651,306.138 92.106 C 306.289 91.562,306.476 91.116,306.554 91.116 C 307.088 91.116,306.656 89.939,306.056 89.759 C 304.969 89.433,304.655 89.573,304.385 90.502 C 303.809 92.488,301.281 93.849,300.265 92.722 C 299.502 91.876,299.539 92.252,299.489 84.846 L 299.442 77.811 302.310 77.811 L 305.179 77.811 305.179 76.632 L 305.179 75.453 302.316 75.453 L 299.453 75.453 299.453 72.926 L 299.453 70.400 298.653 70.428 C 298.213 70.444,297.568 70.486,297.221 70.523 M313.221 70.523 C 312.874 70.559,312.589 70.660,312.589 70.747 C 312.589 70.834,312.330 70.905,312.014 70.905 C 310.897 70.905,310.905 70.888,310.905 73.281 L 310.905 75.453 309.221 75.453 L 307.537 75.453 307.537 76.632 L 307.537 77.811 309.208 77.811 L 310.879 77.811 310.948 84.842 C 311.016 91.713,311.125 93.137,311.587 93.137 C 311.675 93.137,311.747 93.234,311.747 93.352 C 311.747 93.643,312.801 94.620,313.568 95.040 C 315.683 96.199,321.347 95.086,321.347 93.511 C 321.347 93.392,321.463 93.250,321.605 93.196 C 321.746 93.142,321.986 92.651,322.138 92.106 C 322.289 91.562,322.476 91.116,322.554 91.116 C 323.088 91.116,322.656 89.939,322.056 89.759 C 320.969 89.433,320.655 89.573,320.385 90.502 C 319.809 92.488,317.281 93.849,316.265 92.722 C 315.502 91.876,315.539 92.252,315.489 84.846 L 315.442 77.811 318.310 77.811 L 321.179 77.811 321.179 76.632 L 321.179 75.453 318.316 75.453 L 315.453 75.453 315.453 72.926 L 315.453 70.400 314.653 70.428 C 314.213 70.444,313.568 70.486,313.221 70.523 M38.232 71.760 C 41.220 71.938,43.542 72.185,47.663 72.764 C 49.521 73.025,50.740 73.106,51.892 73.046 C 54.029 72.934,54.622 73.503,53.227 74.327 C 52.945 74.494,52.307 75.138,51.808 75.757 C 49.973 78.041,50.261 77.929,47.326 77.494 C 46.724 77.405,45.663 77.251,44.968 77.152 C 44.274 77.053,43.061 76.824,42.274 76.643 C 37.257 75.492,30.735 75.083,28.628 75.788 C 24.892 77.040,22.747 79.065,22.742 81.347 C 22.731 86.377,30.101 87.156,33.778 82.514 C 34.676 81.380,34.978 81.414,35.759 82.733 C 36.561 84.090,36.565 84.678,35.779 85.989 C 31.868 92.514,21.658 90.959,19.980 83.582 C 19.096 79.695,20.369 76.388,23.609 74.157 C 27.368 71.568,29.399 71.235,38.232 71.760 M66.189 72.594 C 68.281 73.511,69.377 74.595,70.225 76.590 C 72.096 80.986,68.925 88.972,65.559 88.340 C 63.396 87.934,63.061 87.254,64.398 85.979 C 67.857 82.682,67.673 77.785,64.026 76.103 C 59.083 73.824,50.833 83.581,51.261 91.200 C 51.531 96.005,53.167 98.678,57.347 101.145 C 58.633 101.904,63.096 101.907,64.977 101.150 C 67.144 100.278,67.165 101.186,65.003 102.275 C 62.577 103.497,58.496 103.624,56.031 102.554 C 49.568 99.749,46.508 91.199,49.264 83.643 C 51.302 78.051,53.538 75.362,58.105 73.004 C 60.147 71.951,64.248 71.742,66.189 72.594 M363.537 75.040 C 363.074 75.286,362.619 75.575,362.526 75.683 C 361.889 76.423,361.537 76.456,360.598 75.864 C 360.104 75.552,359.370 75.248,358.966 75.188 C 358.562 75.127,358.232 75.010,358.232 74.928 C 358.232 74.846,357.246 74.779,356.042 74.779 C 354.695 74.779,353.853 74.844,353.853 74.947 C 353.853 75.040,353.704 75.116,353.522 75.116 C 352.989 75.116,351.591 75.639,351.444 75.893 C 351.370 76.021,351.204 76.126,351.075 76.126 C 350.946 76.126,350.741 76.264,350.620 76.432 C 350.499 76.600,350.266 76.788,350.101 76.849 C 349.937 76.911,349.753 77.095,349.691 77.259 C 349.630 77.424,349.442 77.657,349.274 77.778 C 349.106 77.899,348.968 78.102,348.968 78.229 C 348.968 78.356,348.855 78.573,348.717 78.711 C 347.729 79.700,347.729 85.353,348.717 86.341 C 348.855 86.479,348.968 86.663,348.968 86.749 C 348.968 86.835,349.122 87.058,349.309 87.246 L 349.649 87.586 349.311 87.949 C 349.125 88.149,348.928 88.450,348.875 88.619 C 348.821 88.788,348.713 88.926,348.634 88.926 C 348.555 88.926,348.356 89.286,348.191 89.726 C 348.026 90.166,347.821 90.574,347.736 90.633 C 347.354 90.896,347.390 93.755,347.785 94.515 C 348.286 95.477,349.090 96.239,349.906 96.524 C 350.270 96.652,350.618 96.825,350.679 96.910 C 350.740 96.995,353.127 97.109,355.984 97.164 C 361.818 97.275,361.991 97.313,362.766 98.626 C 363.122 99.230,363.282 101.221,362.974 101.221 C 362.896 101.221,362.745 101.512,362.639 101.867 C 362.287 103.041,360.500 104.505,358.905 104.926 C 358.488 105.036,358.016 105.195,357.855 105.279 C 357.448 105.491,353.516 105.477,353.516 105.263 C 353.516 105.171,353.374 105.095,353.200 105.095 C 351.941 105.095,350.103 103.653,349.886 102.495 C 349.752 101.784,350.074 100.042,350.339 100.042 C 350.721 100.042,350.382 99.166,349.895 98.893 C 349.617 98.738,349.364 98.554,349.333 98.484 C 349.113 97.989,347.448 99.251,347.178 100.117 C 347.119 100.307,346.995 100.511,346.904 100.570 C 345.918 101.204,347.403 105.768,348.594 105.768 C 348.679 105.768,348.926 105.922,349.142 106.110 C 349.359 106.298,349.730 106.496,349.968 106.551 C 350.206 106.606,350.552 106.745,350.738 106.861 C 351.945 107.609,359.062 107.681,360.000 106.954 C 360.093 106.882,360.566 106.694,361.053 106.535 C 361.539 106.376,361.937 106.185,361.937 106.110 C 361.937 106.035,362.120 105.927,362.343 105.871 C 363.499 105.581,365.563 103.133,365.979 101.558 C 366.089 101.141,366.248 100.668,366.332 100.508 C 366.543 100.103,366.529 97.011,366.316 97.011 C 366.223 97.011,366.147 96.857,366.147 96.668 C 366.147 95.749,365.058 94.123,364.214 93.782 C 363.934 93.669,363.658 93.508,363.601 93.424 C 363.307 92.995,361.402 92.805,357.357 92.803 C 355.070 92.801,353.158 92.734,353.108 92.653 C 353.058 92.572,352.600 92.471,352.090 92.429 C 350.949 92.334,350.484 91.966,350.484 91.157 C 350.484 90.108,351.268 88.868,351.705 89.225 C 352.903 90.203,359.035 90.168,360.025 89.178 C 360.164 89.039,360.353 88.926,360.447 88.926 C 361.130 88.926,363.123 86.578,363.471 85.363 C 363.586 84.961,363.760 84.527,363.858 84.399 C 364.101 84.081,364.094 80.357,363.849 80.202 C 363.747 80.137,363.609 79.819,363.542 79.495 C 363.475 79.171,363.280 78.663,363.110 78.366 C 362.807 77.839,362.807 77.824,363.126 77.723 C 363.306 77.666,363.453 77.557,363.453 77.480 C 363.453 77.057,363.991 77.183,364.152 77.644 C 364.249 77.921,364.407 78.147,364.503 78.147 C 364.600 78.147,364.765 78.265,364.870 78.409 C 365.414 79.152,367.587 78.573,367.774 77.634 C 367.829 77.361,367.940 77.137,368.021 77.137 C 368.225 77.137,368.207 76.338,368.000 76.211 C 367.907 76.153,367.829 75.978,367.826 75.822 C 367.802 74.623,365.211 74.150,363.537 75.040 M277.137 74.947 C 277.080 75.040,276.861 75.116,276.652 75.116 C 276.174 75.116,274.695 75.612,274.695 75.771 C 274.695 75.837,274.427 75.987,274.100 76.105 C 273.773 76.224,273.008 76.826,272.401 77.444 C 270.983 78.887,270.925 78.961,270.647 79.663 C 270.519 79.987,270.328 80.341,270.223 80.449 C 270.117 80.557,269.933 81.126,269.813 81.712 C 269.693 82.299,269.529 82.851,269.450 82.939 C 269.260 83.149,269.262 87.328,269.451 87.708 C 269.532 87.868,269.723 88.527,269.877 89.172 C 270.031 89.816,270.219 90.385,270.295 90.435 C 270.372 90.485,270.570 90.815,270.736 91.169 C 271.091 91.924,272.964 93.888,273.489 94.055 C 273.689 94.118,273.853 94.237,273.853 94.319 C 273.853 94.400,274.288 94.601,274.821 94.766 C 275.354 94.930,275.834 95.127,275.889 95.204 C 276.164 95.590,282.153 95.596,282.421 95.211 C 282.479 95.128,282.858 94.953,283.264 94.822 C 283.670 94.691,284.091 94.496,284.199 94.388 C 284.306 94.280,284.571 94.136,284.788 94.067 C 285.325 93.897,287.375 91.827,287.673 91.155 C 287.805 90.856,287.969 90.611,288.036 90.611 C 288.104 90.611,288.284 90.175,288.437 89.642 C 288.589 89.109,288.779 88.592,288.858 88.493 C 289.344 87.884,289.361 81.873,288.878 81.525 C 288.807 81.474,288.614 80.996,288.450 80.463 C 288.286 79.931,288.088 79.495,288.010 79.495 C 287.932 79.495,287.823 79.324,287.767 79.116 C 287.660 78.717,286.969 77.784,286.400 77.272 C 285.474 76.439,285.019 76.109,284.674 76.019 C 284.465 75.966,284.295 75.857,284.295 75.778 C 284.295 75.606,282.713 75.116,282.159 75.116 C 281.944 75.116,281.768 75.040,281.768 74.947 C 281.768 74.843,280.902 74.779,279.505 74.779 C 278.177 74.779,277.198 74.849,277.137 74.947 M331.453 74.947 C 331.453 75.040,331.277 75.116,331.062 75.116 C 330.614 75.116,328.884 75.604,328.758 75.766 C 328.712 75.825,328.415 76.018,328.098 76.195 C 326.360 77.164,325.450 79.837,326.344 81.349 C 327.206 82.809,330.779 82.350,330.779 80.779 C 330.779 80.573,330.872 80.311,330.985 80.198 C 331.148 80.035,331.148 79.922,330.985 79.661 C 330.872 79.480,330.778 79.197,330.778 79.034 C 330.777 78.871,330.667 78.526,330.533 78.268 C 330.051 77.346,330.851 76.968,333.285 76.968 C 336.136 76.968,336.662 77.694,336.670 81.642 L 336.674 83.705 335.353 83.705 C 333.894 83.705,331.248 84.016,331.116 84.203 C 331.069 84.269,330.585 84.411,330.040 84.518 C 327.994 84.922,325.978 86.372,325.202 88.000 C 324.763 88.919,324.602 92.005,324.979 92.259 C 325.076 92.325,325.254 92.622,325.375 92.920 C 325.699 93.723,326.462 94.438,327.543 94.953 C 328.751 95.527,332.599 95.641,333.655 95.134 C 333.972 94.981,334.435 94.763,334.684 94.648 C 334.933 94.533,335.463 94.110,335.863 93.707 C 336.623 92.942,337.011 92.783,337.011 93.237 C 337.011 94.065,338.207 94.989,339.278 94.989 C 339.502 94.989,339.732 95.065,339.789 95.158 C 339.847 95.251,340.495 95.326,341.231 95.326 C 342.010 95.326,342.568 95.256,342.568 95.158 C 342.568 95.065,342.947 94.989,343.411 94.989 L 344.253 94.989 344.253 93.895 L 344.253 92.800 343.051 92.800 C 341.666 92.800,341.221 92.489,341.221 91.521 C 341.221 91.216,341.145 90.920,341.053 90.863 C 340.953 90.801,340.884 89.739,340.884 88.243 C 340.884 86.677,340.948 85.726,341.053 85.726 C 341.158 85.726,341.221 84.663,341.221 82.873 C 341.221 81.153,341.154 79.979,341.053 79.916 C 340.960 79.859,340.884 79.603,340.884 79.347 C 340.884 78.750,340.407 77.137,340.231 77.137 C 340.157 77.137,340.015 76.959,339.916 76.742 C 339.657 76.174,338.279 75.318,337.414 75.189 C 337.007 75.128,336.674 75.010,336.674 74.928 C 336.674 74.846,335.499 74.779,334.063 74.779 C 332.435 74.779,331.453 74.842,331.453 74.947 M377.095 74.939 C 376.956 75.016,376.406 75.205,375.874 75.359 C 375.341 75.513,374.905 75.692,374.905 75.757 C 374.905 75.822,374.686 75.973,374.418 76.091 C 373.822 76.355,372.840 77.171,372.146 77.979 C 371.806 78.376,370.863 79.797,370.863 79.913 C 370.863 79.971,370.719 80.336,370.542 80.725 C 369.650 82.689,369.645 89.064,370.535 89.768 C 370.594 89.815,370.776 90.208,370.939 90.642 C 371.103 91.076,371.343 91.471,371.471 91.521 C 371.600 91.570,371.705 91.708,371.705 91.827 C 371.705 92.115,373.594 93.914,374.046 94.058 C 374.241 94.119,374.400 94.226,374.400 94.294 C 374.400 94.362,374.798 94.558,375.284 94.729 C 375.771 94.899,376.266 95.116,376.385 95.209 C 376.884 95.598,382.350 95.598,382.637 95.209 C 382.692 95.134,383.091 94.947,383.524 94.792 C 384.343 94.498,384.580 94.331,385.561 93.350 C 386.506 92.404,386.683 92.163,386.980 91.408 C 387.135 91.016,387.314 90.657,387.379 90.611 C 387.443 90.564,387.594 90.088,387.713 89.552 C 387.982 88.345,387.877 88.216,386.606 88.189 L 385.651 88.168 385.313 89.263 C 385.127 89.865,384.870 90.419,384.740 90.493 C 384.611 90.567,384.505 90.711,384.505 90.812 C 384.505 91.197,383.165 92.336,382.147 92.816 C 381.193 93.265,377.095 93.136,377.095 92.656 C 377.095 92.590,376.867 92.401,376.589 92.237 C 376.312 92.073,376.084 91.866,376.084 91.776 C 376.084 91.687,375.898 91.331,375.669 90.986 C 375.405 90.585,375.185 89.900,375.062 89.095 C 374.956 88.400,374.802 87.700,374.719 87.539 C 374.636 87.378,374.568 86.677,374.568 85.981 L 374.568 84.716 381.305 84.716 L 388.042 84.716 388.042 83.652 C 388.042 80.625,386.564 77.506,384.545 76.271 C 384.199 76.059,383.827 75.800,383.719 75.695 C 383.611 75.590,383.156 75.411,382.708 75.297 C 382.261 75.183,381.763 75.020,381.602 74.935 C 381.241 74.742,377.442 74.746,377.095 74.939 M281.218 77.124 C 281.963 77.338,283.231 78.567,283.469 79.306 C 283.577 79.641,283.727 79.994,283.802 80.090 C 284.457 80.923,284.451 89.390,283.795 90.184 C 283.716 90.280,283.521 90.684,283.362 91.083 C 282.407 93.473,278.140 94.222,276.056 92.365 C 275.500 91.870,274.695 90.348,274.695 89.793 C 274.695 89.610,274.600 89.428,274.484 89.390 C 274.324 89.336,274.274 88.367,274.274 85.305 C 274.274 82.244,274.324 81.275,274.484 81.221 C 274.600 81.182,274.695 81.008,274.695 80.834 C 274.695 80.312,275.221 78.915,275.472 78.771 C 275.600 78.697,275.705 78.528,275.705 78.396 C 275.705 78.263,275.914 78.023,276.168 77.860 C 276.423 77.698,276.669 77.518,276.716 77.461 C 277.067 77.023,280.080 76.797,281.218 77.124 M357.659 77.166 C 357.960 77.275,358.300 77.540,358.416 77.756 C 358.531 77.971,358.681 78.147,358.749 78.147 C 359.546 78.147,359.531 85.623,358.732 86.594 C 357.774 87.757,357.624 87.826,355.937 87.889 L 354.391 87.947 353.701 87.278 C 353.321 86.909,353.011 86.492,353.011 86.350 C 353.011 86.207,352.933 86.065,352.839 86.034 C 352.286 85.850,352.359 79.280,352.920 78.719 C 353.063 78.577,353.179 78.366,353.179 78.250 C 353.179 77.274,356.043 76.582,357.659 77.166 M380.831 77.121 C 381.233 77.278,381.653 77.645,382.220 78.333 C 382.572 78.760,382.983 80.257,382.987 81.127 C 382.988 81.422,383.065 81.711,383.158 81.768 C 383.251 81.826,383.326 82.058,383.326 82.284 L 383.326 82.695 379.116 82.695 L 374.905 82.695 374.908 82.147 C 374.912 81.276,375.386 79.498,375.750 78.986 C 375.934 78.728,376.084 78.464,376.084 78.399 C 376.084 77.434,379.367 76.549,380.831 77.121 M41.309 77.835 C 43.863 78.380,44.330 80.059,43.388 85.319 C 43.157 86.608,42.880 88.345,42.772 89.179 C 42.663 90.013,42.462 91.339,42.323 92.126 C 41.807 95.059,41.749 95.806,41.852 98.263 C 41.934 100.228,42.028 100.934,42.283 101.493 C 43.241 103.596,40.554 103.496,39.503 101.389 C 38.603 99.584,38.517 97.776,38.806 86.737 C 38.906 82.900,38.893 80.813,38.761 79.757 C 38.462 77.365,38.604 77.258,41.309 77.835 M336.674 87.038 C 336.674 88.473,336.310 90.156,335.914 90.552 C 335.776 90.690,335.663 90.865,335.663 90.940 C 335.663 91.153,334.435 92.295,334.206 92.295 C 334.095 92.295,333.878 92.420,333.724 92.574 C 332.589 93.709,329.998 92.776,329.593 91.086 C 328.945 88.385,330.062 86.661,332.758 86.202 C 333.429 86.088,333.979 85.934,333.979 85.860 C 333.979 85.787,334.585 85.726,335.326 85.726 L 336.674 85.726 336.674 87.038 " stroke="none" fill="#b01d23" fill-rule="evenodd"></path></g></svg>