<svg id="svg" version="1.1" xmlns="http://www.w3.org/2000/svg" xmlns:xlink="http://www.w3.org/1999/xlink" width="400" height="252.63157894736844" viewBox="0, 0, 400,252.63157894736844"><g id="svgg"><path id="path0" d="M40.632 89.201 C 40.342 89.256,39.564 89.482,38.901 89.703 C 37.450 90.188,36.972 90.206,36.556 89.789 C 36.125 89.358,35.714 89.389,35.856 89.842 C 36.267 91.147,36.275 91.108,35.546 91.432 C 34.436 91.925,34.111 92.033,32.240 92.535 C 31.273 92.795,30.183 93.228,29.819 93.498 C 29.456 93.769,28.717 94.287,28.179 94.651 C 27.640 95.014,26.740 95.786,26.179 96.365 C 25.563 97.000,24.892 97.476,24.488 97.565 C 24.120 97.645,23.704 97.849,23.564 98.018 C 23.352 98.273,23.376 98.301,23.707 98.182 C 23.926 98.103,24.043 98.108,23.967 98.193 C 23.890 98.278,23.654 98.377,23.440 98.412 C 23.227 98.448,23.076 98.583,23.105 98.712 C 23.134 98.842,23.063 98.947,22.947 98.947 C 22.650 98.947,22.686 98.243,23.000 97.916 C 23.213 97.696,23.183 97.659,22.842 97.724 C 22.411 97.808,22.371 98.023,22.618 98.954 C 22.724 99.355,22.626 99.642,22.221 100.112 C 21.924 100.456,21.628 100.903,21.563 101.105 C 21.498 101.308,21.294 101.474,21.109 101.474 C 20.923 101.474,20.828 101.530,20.897 101.598 C 20.965 101.667,20.626 102.132,20.142 102.631 C 18.455 104.374,17.926 105.061,17.789 105.688 C 17.712 106.035,17.563 106.266,17.457 106.200 C 17.350 106.134,17.263 106.207,17.263 106.362 C 17.263 106.785,15.872 110.092,14.548 112.819 C 14.189 113.559,13.895 114.293,13.895 114.451 C 13.895 114.608,13.819 114.737,13.726 114.737 C 13.254 114.737,12.639 118.882,12.508 122.947 C 12.453 124.626,12.304 126.207,12.176 126.460 C 11.944 126.919,11.998 127.726,12.421 130.158 C 12.537 130.824,12.718 131.866,12.823 132.474 C 12.928 133.082,13.116 133.958,13.239 134.421 C 13.363 134.884,13.466 135.625,13.469 136.068 C 13.471 136.510,13.607 137.006,13.770 137.169 C 13.933 137.332,14.130 137.841,14.208 138.299 C 14.285 138.758,14.473 139.237,14.625 139.363 C 14.777 139.489,14.965 140.015,15.042 140.531 C 15.120 141.047,15.296 141.588,15.434 141.734 C 15.571 141.880,16.058 142.758,16.515 143.684 C 16.971 144.611,17.463 145.487,17.606 145.633 C 17.750 145.778,17.932 146.100,18.010 146.348 C 18.089 146.596,18.474 147.120,18.866 147.512 C 19.258 147.904,19.579 148.360,19.579 148.526 C 19.579 148.692,19.768 148.929,20.000 149.053 C 20.232 149.177,20.421 149.407,20.421 149.564 C 20.421 149.887,22.149 151.789,22.442 151.790 C 22.546 151.790,23.437 152.593,24.421 153.575 C 25.405 154.557,26.292 155.362,26.392 155.364 C 26.492 155.366,27.013 155.730,27.550 156.172 C 28.087 156.614,28.904 157.206,29.365 157.488 C 29.827 157.770,30.395 158.116,30.629 158.259 C 31.376 158.714,34.121 160.000,34.347 160.000 C 34.467 160.000,34.796 160.182,35.078 160.404 C 35.360 160.626,35.968 160.871,36.427 160.948 C 36.887 161.026,37.263 161.161,37.263 161.249 C 37.263 161.426,40.507 162.105,41.354 162.105 C 41.651 162.105,41.895 162.210,41.895 162.337 C 41.895 162.492,42.225 162.524,42.895 162.432 C 43.445 162.357,44.226 162.306,44.632 162.318 C 53.420 162.587,57.303 162.527,57.886 162.112 C 58.216 161.877,58.614 161.684,58.769 161.683 C 58.925 161.682,59.337 161.527,59.684 161.337 C 60.032 161.147,60.822 160.918,61.440 160.828 C 62.126 160.727,62.892 160.431,63.407 160.068 C 64.709 159.150,65.581 158.728,66.276 158.677 C 66.625 158.652,66.896 158.582,66.877 158.522 C 66.801 158.285,67.716 157.352,68.263 157.109 C 68.581 156.967,69.255 156.470,69.760 156.005 C 70.265 155.539,70.739 155.158,70.813 155.158 C 71.052 155.158,74.190 152.328,75.338 151.077 C 78.256 147.899,78.222 147.939,78.542 147.332 C 78.684 147.062,78.864 146.795,78.943 146.737 C 79.022 146.679,79.314 146.172,79.591 145.610 C 79.869 145.048,80.245 144.479,80.427 144.347 C 80.609 144.214,80.883 143.797,81.036 143.421 C 81.189 143.045,81.390 142.737,81.483 142.737 C 81.576 142.737,81.768 142.382,81.909 141.947 C 82.051 141.513,82.343 140.828,82.557 140.425 C 82.771 140.022,83.002 139.359,83.071 138.951 C 83.190 138.238,83.592 137.134,84.010 136.371 C 84.120 136.170,84.211 135.714,84.211 135.357 C 84.211 135.001,84.293 134.550,84.394 134.355 C 84.496 134.160,84.643 133.154,84.722 132.119 C 84.801 131.085,84.899 130.184,84.940 130.117 C 85.004 130.013,85.332 122.804,85.314 121.895 C 85.310 121.721,85.157 120.726,84.973 119.684 C 84.789 118.642,84.637 117.486,84.635 117.115 C 84.633 116.679,84.445 116.254,84.105 115.914 C 83.773 115.582,83.579 115.150,83.579 114.744 C 83.579 114.389,83.493 113.935,83.387 113.734 C 82.902 112.808,82.316 111.046,82.316 110.513 C 82.316 110.190,82.197 109.797,82.053 109.642 C 81.908 109.486,81.758 109.219,81.720 109.050 C 81.682 108.880,81.583 108.693,81.501 108.634 C 81.418 108.575,81.224 108.133,81.070 107.653 C 80.895 107.108,80.601 106.695,80.289 106.553 C 80.014 106.427,79.789 106.219,79.789 106.089 C 79.789 105.959,79.219 105.081,78.522 104.137 C 76.568 101.493,76.190 101.053,75.873 101.053 C 75.711 101.053,75.579 100.963,75.579 100.854 C 75.579 100.322,71.551 96.632,70.970 96.632 C 70.344 96.632,69.545 96.135,68.215 94.919 C 66.081 92.968,64.620 91.973,62.999 91.366 C 62.337 91.119,61.665 90.808,61.507 90.677 C 61.240 90.455,60.226 90.256,57.895 89.968 C 57.374 89.904,56.772 89.695,56.557 89.505 C 56.175 89.165,42.234 88.900,40.632 89.201 M55.399 92.005 C 63.269 93.604,70.306 98.272,75.819 105.550 C 86.871 120.140,83.565 142.341,68.690 153.422 C 67.952 153.972,67.009 154.682,66.593 155.000 C 60.169 159.918,46.514 161.494,37.885 158.312 C 23.142 152.876,14.394 139.795,15.010 124.105 C 15.826 103.323,35.225 87.905,55.399 92.005 M24.000 96.842 C 24.000 97.342,24.531 97.407,24.714 96.930 C 24.900 96.447,24.885 96.421,24.421 96.421 C 24.140 96.421,24.000 96.561,24.000 96.842 M86.734 104.472 C 86.732 104.618,86.592 106.726,86.422 109.158 C 86.253 111.589,86.112 113.750,86.110 113.959 C 86.106 114.277,86.252 114.329,86.985 114.275 L 87.864 114.211 88.241 112.226 C 89.129 107.561,90.637 106.316,95.402 106.316 L 97.684 106.316 97.684 120.632 L 97.684 134.947 95.263 134.947 L 92.842 134.947 92.842 136.000 L 92.842 137.053 100.000 137.053 L 107.158 137.053 107.158 136.000 L 107.158 134.947 104.737 134.947 L 102.316 134.947 102.316 120.607 L 102.316 106.266 105.000 106.360 C 109.855 106.529,112.000 108.803,112.000 113.781 C 112.000 114.276,112.072 114.316,112.960 114.316 L 113.920 114.316 113.779 111.842 C 113.701 110.482,113.577 108.232,113.503 106.842 L 113.368 104.316 100.053 104.262 C 89.471 104.219,86.736 104.262,86.734 104.472 M68.632 107.052 C 68.516 107.357,68.420 107.719,68.419 107.856 C 68.414 108.435,67.089 110.351,66.110 111.195 C 64.828 112.299,64.758 112.740,65.832 112.942 C 66.261 113.022,66.968 113.269,67.403 113.491 C 69.179 114.398,71.008 112.467,71.040 109.653 C 71.062 107.628,69.184 105.599,68.632 107.052 M29.263 113.829 C 21.859 115.056,17.720 121.752,20.716 127.657 C 23.764 133.665,33.101 133.672,36.007 127.669 C 36.556 126.536,36.466 125.760,35.651 124.584 C 34.946 123.567,34.565 123.583,33.732 124.667 C 31.374 127.734,26.538 128.710,24.193 126.591 C 21.285 123.964,22.731 120.350,27.516 118.288 C 30.226 117.120,35.709 117.316,42.737 118.833 C 43.489 118.995,44.863 119.236,45.789 119.367 C 46.716 119.499,47.871 119.695,48.356 119.803 C 49.707 120.104,49.808 120.071,50.773 119.000 C 51.269 118.450,52.175 117.511,52.785 116.913 C 54.452 115.280,54.407 115.237,50.895 115.094 C 49.245 115.027,46.616 114.783,45.053 114.552 C 40.219 113.838,31.593 113.443,29.263 113.829 M58.842 114.784 C 55.355 116.290,51.344 120.100,50.360 122.842 C 50.235 123.189,49.839 124.232,49.478 125.158 C 45.342 135.798,52.212 146.805,62.051 145.300 C 64.073 144.990,66.421 143.896,66.421 143.263 C 66.421 142.752,65.662 142.786,64.842 143.333 C 64.409 143.622,63.756 143.684,61.158 143.684 L 58.000 143.684 56.591 142.779 C 48.173 137.365,50.213 123.380,60.135 118.496 C 65.857 115.679,69.360 123.036,64.595 127.861 C 63.204 129.268,63.180 129.422,64.262 129.958 C 66.115 130.878,67.467 130.504,68.585 128.764 C 72.190 123.155,71.371 117.296,66.653 114.939 C 64.977 114.101,60.622 114.015,58.842 114.784 M120.256 117.440 C 112.238 120.289,111.491 132.810,119.114 136.577 L 120.715 137.368 123.467 137.368 C 127.590 137.368,129.512 136.293,130.973 133.168 C 131.938 131.105,131.970 130.615,131.152 130.451 C 130.073 130.236,129.684 130.289,129.684 130.654 C 129.684 132.975,126.690 135.366,123.789 135.362 C 120.311 135.356,118.878 133.553,118.590 128.818 L 118.463 126.737 125.231 126.737 L 132.000 126.737 132.000 125.728 C 132.000 119.609,126.023 115.390,120.256 117.440 M140.716 117.483 C 134.819 119.353,135.202 126.169,141.336 128.507 C 142.396 128.911,144.027 129.531,144.961 129.884 C 149.653 131.660,148.690 135.588,143.565 135.574 C 140.249 135.566,138.773 134.279,138.396 131.068 L 138.258 129.895 137.324 129.895 L 136.390 129.895 136.535 133.105 C 136.707 136.891,136.484 136.525,138.958 137.071 C 146.040 138.634,151.569 136.202,151.577 131.520 C 151.582 128.488,150.163 127.173,144.842 125.274 C 141.075 123.930,140.308 123.460,139.997 122.306 C 139.485 120.405,140.824 119.095,143.397 118.978 C 146.625 118.831,148.144 120.052,148.601 123.158 C 148.739 124.101,148.744 124.106,149.659 124.171 L 150.579 124.237 150.427 121.119 C 150.344 119.403,150.214 117.941,150.138 117.869 C 149.317 117.088,142.803 116.822,140.716 117.483 M160.421 117.449 C 156.885 118.590,155.039 121.566,156.684 123.473 C 158.501 125.579,161.685 123.621,160.719 120.992 C 160.540 120.504,160.376 119.974,160.355 119.813 C 160.294 119.357,161.637 118.981,163.390 118.963 C 166.234 118.935,166.904 119.812,166.931 123.600 L 166.947 125.832 164.684 125.963 C 157.157 126.400,153.183 130.271,155.540 134.868 C 157.188 138.082,163.097 138.474,166.091 135.568 L 166.943 134.741 167.232 135.423 C 167.860 136.906,169.425 137.422,172.512 137.165 L 174.316 137.015 174.316 135.981 L 174.316 134.947 173.085 134.947 C 170.988 134.947,171.053 135.179,171.053 127.714 C 171.053 120.517,170.978 120.055,169.585 118.608 C 168.095 117.061,163.445 116.473,160.421 117.449 M187.369 117.420 C 186.771 117.631,185.978 118.199,185.212 118.965 L 184.000 120.177 184.000 118.931 L 184.000 117.684 180.105 117.684 L 176.211 117.684 176.211 118.737 L 176.211 119.789 177.895 119.789 L 179.579 119.789 179.579 127.368 L 179.579 134.947 177.895 134.947 L 176.211 134.947 176.211 136.000 L 176.211 137.053 181.579 137.053 L 186.947 137.053 186.947 136.000 L 186.947 134.947 185.458 134.947 L 183.968 134.947 184.042 129.632 C 184.152 121.760,185.357 119.368,189.213 119.368 C 192.164 119.368,192.300 119.747,192.382 128.158 L 192.447 134.947 190.855 134.947 L 189.263 134.947 189.263 136.000 L 189.263 137.053 194.526 137.053 L 199.789 137.053 199.789 136.000 L 199.789 134.947 198.211 134.947 L 196.632 134.947 196.632 128.571 C 196.632 120.063,196.342 118.988,193.689 117.632 C 192.320 116.932,189.062 116.823,187.369 117.420 M209.366 117.421 C 204.203 119.257,201.547 124.818,203.060 130.624 C 205.362 139.466,218.459 140.044,221.676 131.447 C 223.721 125.980,221.706 120.037,217.053 117.814 C 215.296 116.975,211.208 116.766,209.366 117.421 M124.913 119.145 C 126.138 119.610,126.955 121.203,127.270 123.737 L 127.408 124.842 123.072 124.842 L 118.737 124.842 118.737 124.229 C 118.737 120.594,121.892 117.996,124.913 119.145 M214.800 119.232 C 216.919 120.117,217.582 122.064,217.571 127.368 C 217.558 133.715,216.420 135.562,212.518 135.574 C 208.716 135.586,207.474 133.566,207.474 127.368 C 207.474 122.361,208.130 120.394,210.131 119.404 C 211.220 118.865,213.702 118.773,214.800 119.232 M38.850 119.917 C 38.632 120.135,38.541 120.444,38.616 120.716 C 38.936 121.871,38.989 126.936,38.740 132.497 C 38.384 140.468,38.669 142.922,40.119 144.372 C 41.488 145.741,42.991 145.089,42.219 143.461 C 41.770 142.516,41.870 136.653,42.387 133.579 C 42.581 132.421,42.833 130.779,42.946 129.929 C 43.060 129.079,43.353 127.336,43.598 126.055 C 44.091 123.476,44.032 122.442,43.325 121.299 C 42.568 120.073,39.608 119.159,38.850 119.917 M85.684 122.000 C 85.684 122.327,85.804 122.526,86.000 122.526 C 86.196 122.526,86.316 122.327,86.316 122.000 C 86.316 121.673,86.196 121.474,86.000 121.474 C 85.804 121.474,85.684 121.673,85.684 122.000 M85.684 123.579 C 85.684 123.813,85.825 124.000,86.000 124.000 C 86.175 124.000,86.316 123.813,86.316 123.579 C 86.316 123.345,86.175 123.158,86.000 123.158 C 85.825 123.158,85.684 123.345,85.684 123.579 M85.684 126.737 C 85.684 127.158,85.789 127.368,86.000 127.368 C 86.211 127.368,86.316 127.158,86.316 126.737 C 86.316 126.316,86.211 126.105,86.000 126.105 C 85.789 126.105,85.684 126.316,85.684 126.737 M166.898 129.526 C 166.558 134.935,160.211 137.727,159.471 132.794 C 158.975 129.484,160.985 127.864,165.661 127.806 L 167.007 127.789 166.898 129.526 M85.684 128.947 C 85.684 129.121,85.826 129.263,86.000 129.263 C 86.174 129.263,86.316 129.121,86.316 128.947 C 86.316 128.774,86.174 128.632,86.000 128.632 C 85.826 128.632,85.684 128.774,85.684 128.947 M57.404 162.877 C 57.147 163.134,57.258 163.579,57.579 163.579 C 57.754 163.579,57.895 163.392,57.895 163.158 C 57.895 162.738,57.670 162.610,57.404 162.877 " stroke="none" fill="#eee7e5" fill-rule="evenodd"></path><path id="path1" d="M45.158 91.562 C 23.337 94.327,9.933 115.648,16.690 136.842 C 19.806 146.617,27.613 154.525,37.885 158.312 C 46.514 161.494,60.169 159.918,66.593 155.000 C 67.009 154.682,67.952 153.972,68.690 153.422 C 78.643 146.008,83.698 133.618,82.001 120.800 C 79.629 102.899,62.564 89.356,45.158 91.562 M250.384 103.788 C 243.166 105.680,239.315 111.562,239.288 120.737 C 239.246 134.492,247.938 140.466,262.368 136.601 L 264.000 136.164 264.000 134.853 C 264.000 134.131,264.062 132.105,264.138 130.349 L 264.276 127.158 263.395 127.158 C 262.868 127.158,262.484 127.264,262.441 127.421 C 262.401 127.566,262.255 128.300,262.115 129.053 C 261.302 133.433,259.027 135.368,254.490 135.538 C 247.173 135.812,244.359 131.736,244.342 120.842 C 244.326 110.058,246.952 105.752,253.693 105.512 C 258.671 105.334,261.014 107.132,261.739 111.685 L 261.990 113.263 262.870 113.263 L 263.750 113.263 263.652 109.421 C 263.525 104.425,263.622 104.758,262.161 104.352 C 258.389 103.303,253.183 103.054,250.384 103.788 M70.391 107.548 C 72.264 110.142,69.931 114.781,67.403 113.491 C 66.968 113.269,66.261 113.022,65.832 112.942 C 64.758 112.740,64.828 112.299,66.110 111.195 C 67.089 110.351,68.414 108.435,68.419 107.856 C 68.431 106.346,69.413 106.192,70.391 107.548 M296.947 112.868 C 294.738 113.265,294.947 112.992,294.947 115.478 L 294.947 117.684 293.263 117.684 L 291.579 117.684 291.579 118.737 L 291.579 119.789 293.248 119.789 L 294.917 119.789 294.985 126.789 C 295.061 134.662,295.116 134.970,296.696 136.357 C 298.849 138.247,303.626 137.805,305.249 135.565 C 306.053 134.456,306.702 132.513,306.378 132.189 C 305.740 131.550,304.798 131.861,304.446 132.827 C 303.870 134.403,302.991 135.158,301.729 135.158 C 299.338 135.158,299.368 135.266,299.368 126.747 L 299.368 119.789 302.211 119.789 L 305.053 119.789 305.053 118.737 L 305.053 117.684 302.211 117.684 L 299.368 117.684 299.368 115.158 L 299.368 112.632 298.684 112.655 C 298.308 112.668,297.526 112.764,296.947 112.868 M312.737 112.868 C 310.527 113.265,310.737 112.992,310.737 115.478 L 310.737 117.684 309.053 117.684 L 307.368 117.684 307.368 118.737 L 307.368 119.789 309.038 119.789 L 310.707 119.789 310.774 126.789 C 310.851 134.662,310.906 134.970,312.485 136.357 C 314.639 138.247,319.416 137.805,321.039 135.565 C 321.842 134.456,322.492 132.513,322.168 132.189 C 321.529 131.550,320.588 131.861,320.235 132.827 C 319.660 134.403,318.780 135.158,317.519 135.158 C 315.128 135.158,315.158 135.266,315.158 126.747 L 315.158 119.789 318.000 119.789 L 320.842 119.789 320.842 118.737 L 320.842 117.684 318.000 117.684 L 315.158 117.684 315.158 115.158 L 315.158 112.632 314.474 112.655 C 314.097 112.668,313.316 112.764,312.737 112.868 M39.118 113.908 C 40.819 114.031,43.489 114.321,45.053 114.552 C 46.616 114.783,49.245 115.027,50.895 115.094 C 54.407 115.237,54.452 115.280,52.785 116.913 C 52.175 117.511,51.269 118.450,50.773 119.000 C 49.808 120.071,49.707 120.104,48.356 119.803 C 47.871 119.695,46.716 119.499,45.789 119.367 C 44.863 119.236,43.489 118.995,42.737 118.833 C 35.709 117.316,30.226 117.120,27.516 118.288 C 22.731 120.350,21.285 123.964,24.193 126.591 C 26.538 128.710,31.374 127.734,33.732 124.667 C 34.565 123.583,34.946 123.567,35.651 124.584 C 36.466 125.760,36.556 126.536,36.007 127.669 C 33.101 133.672,23.764 133.665,20.716 127.657 C 19.013 124.300,19.610 119.974,22.114 117.524 C 25.708 114.007,29.463 113.209,39.118 113.908 M66.653 114.939 C 70.754 116.988,72.082 122.584,69.552 127.158 C 67.720 130.469,66.545 131.091,64.262 129.958 C 63.180 129.422,63.204 129.268,64.595 127.861 C 69.360 123.036,65.857 115.679,60.135 118.496 C 50.213 123.380,48.173 137.365,56.591 142.779 L 58.000 143.684 61.158 143.684 C 63.756 143.684,64.409 143.622,64.842 143.333 C 65.662 142.786,66.421 142.752,66.421 143.263 C 66.421 143.896,64.073 144.990,62.051 145.300 C 52.212 146.805,45.342 135.798,49.478 125.158 C 49.839 124.232,50.235 123.189,50.360 122.842 C 51.344 120.100,55.355 116.290,58.842 114.784 C 60.622 114.015,64.977 114.101,66.653 114.939 M363.684 117.196 C 363.337 117.382,362.705 117.806,362.280 118.140 L 361.506 118.746 360.717 118.211 C 357.823 116.247,352.640 116.722,350.104 119.184 C 347.763 121.456,347.285 125.916,349.080 128.747 L 349.704 129.730 348.948 130.828 C 346.833 133.899,347.171 137.078,349.754 138.402 L 350.950 139.015 356.054 139.139 C 362.533 139.297,363.154 139.565,363.150 142.211 C 363.146 145.323,360.450 147.386,356.184 147.542 C 351.294 147.721,348.720 145.663,350.000 142.599 C 350.446 141.532,350.408 141.379,349.583 140.935 L 348.851 140.541 348.112 141.256 C 344.426 144.829,347.955 149.201,354.710 149.430 C 361.613 149.664,365.937 146.667,366.258 141.424 C 366.574 136.266,364.924 135.123,356.892 134.938 C 351.981 134.824,351.529 134.782,350.997 134.387 C 350.239 133.823,350.140 132.861,350.740 131.889 C 351.274 131.026,351.161 131.043,352.744 131.600 C 358.359 133.576,363.851 130.027,363.854 124.421 C 363.855 122.707,363.773 122.358,362.852 120.172 C 362.583 119.534,363.909 119.016,364.237 119.630 C 365.330 121.683,368.447 120.484,367.880 118.228 C 367.556 116.934,365.241 116.365,363.684 117.196 M275.892 117.421 C 267.071 120.558,266.886 134.427,275.630 137.083 C 284.773 139.860,292.132 130.585,287.744 121.816 C 285.804 117.939,280.238 115.875,275.892 117.421 M330.531 117.390 C 326.859 118.377,324.821 121.696,326.721 123.595 C 328.871 125.746,332.244 122.640,330.301 120.298 C 329.668 119.535,331.022 118.947,333.414 118.947 C 336.142 118.947,336.810 119.857,336.830 123.601 L 336.842 125.834 334.789 125.951 C 328.240 126.324,324.957 128.485,324.957 132.421 C 324.957 137.414,331.619 139.469,335.704 135.735 L 336.825 134.710 337.137 135.456 C 337.736 136.889,339.452 137.430,342.536 137.157 L 344.211 137.009 344.211 135.978 L 344.211 134.947 342.980 134.947 C 340.882 134.947,340.947 135.179,340.947 127.714 C 340.947 120.470,340.874 120.024,339.445 118.593 C 337.952 117.098,333.736 116.529,330.531 117.390 M376.256 117.451 C 368.165 120.245,367.545 133.014,375.321 136.698 C 377.328 137.648,381.489 137.707,383.400 136.811 C 386.167 135.514,388.942 130.809,387.152 130.451 C 386.104 130.242,385.684 130.289,385.684 130.614 C 385.684 132.985,382.728 135.367,379.789 135.362 C 376.276 135.356,374.891 133.605,374.591 128.789 L 374.463 126.737 381.262 126.737 L 388.061 126.737 387.944 125.211 C 387.479 119.151,381.953 115.483,376.256 117.451 M281.326 119.232 C 283.445 120.117,284.108 122.064,284.097 127.368 C 284.084 133.923,282.855 135.744,278.577 135.549 C 275.189 135.395,273.902 133.115,273.902 127.263 C 273.902 121.282,275.359 118.947,279.093 118.947 C 279.946 118.947,280.951 119.075,281.326 119.232 M357.924 119.278 C 360.259 120.486,360.127 128.666,357.754 129.792 C 354.072 131.539,351.764 128.518,352.414 122.802 C 352.801 119.399,355.196 117.867,357.924 119.278 M380.913 119.145 C 382.168 119.622,382.940 121.127,383.269 123.737 L 383.408 124.842 379.043 124.842 L 374.678 124.842 374.806 123.842 C 375.297 119.984,377.885 117.994,380.913 119.145 M42.019 120.207 C 43.816 120.982,44.257 122.612,43.598 126.055 C 43.353 127.336,43.060 129.079,42.946 129.929 C 42.833 130.779,42.581 132.421,42.387 133.579 C 41.870 136.653,41.770 142.516,42.219 143.461 C 42.991 145.089,41.488 145.741,40.119 144.372 C 38.669 142.922,38.384 140.468,38.740 132.497 C 38.989 126.936,38.936 121.871,38.616 120.716 C 38.300 119.572,39.967 119.323,42.019 120.207 M336.792 129.544 C 336.474 134.643,330.853 137.547,329.461 133.331 C 328.371 130.028,330.756 127.866,335.556 127.806 L 336.901 127.789 336.792 129.544 " stroke="none" fill="#b01d23" fill-rule="evenodd"></path></g></svg>