<svg id="svg" version="1.1" xmlns="http://www.w3.org/2000/svg" xmlns:xlink="http://www.w3.org/1999/xlink" width="400" height="259.95525727069355" viewBox="0, 0, 400,259.95525727069355"><g id="svgg"><path id="path0" d="M192.328 86.225 C 191.899 86.422,191.283 86.588,190.959 86.594 C 190.635 86.601,190.146 86.746,189.873 86.917 C 189.498 87.150,189.216 87.155,188.732 86.934 C 187.956 86.580,187.776 86.722,187.776 87.690 C 187.776 88.253,187.654 88.427,187.256 88.427 C 186.970 88.427,186.736 88.530,186.736 88.657 C 186.736 88.783,186.074 88.969,185.266 89.070 C 183.913 89.240,182.633 89.638,182.315 89.990 C 182.243 90.069,181.541 90.594,180.754 91.155 C 179.967 91.717,178.951 92.561,178.496 93.032 C 177.658 93.898,176.717 94.289,177.373 93.498 C 177.597 93.229,177.607 93.108,177.405 93.108 C 177.244 93.108,177.113 93.225,177.113 93.368 C 177.113 93.511,176.908 93.630,176.658 93.632 C 176.326 93.635,176.293 93.693,176.534 93.846 C 176.787 94.007,176.741 94.169,176.339 94.533 C 176.014 94.827,175.813 94.888,175.813 94.693 C 175.813 94.520,175.688 94.455,175.535 94.549 C 175.382 94.644,175.326 94.901,175.411 95.121 C 175.555 95.496,175.050 96.504,174.385 97.172 C 174.224 97.334,173.573 98.080,172.937 98.832 C 172.302 99.583,171.664 100.331,171.521 100.494 C 171.038 101.044,170.351 102.418,170.351 102.836 C 170.351 103.064,170.234 103.251,170.091 103.251 C 169.948 103.251,169.831 103.544,169.831 103.901 C 169.831 104.259,169.714 104.551,169.571 104.551 C 169.428 104.551,169.311 104.779,169.311 105.056 C 169.311 105.334,169.192 105.634,169.046 105.724 C 168.901 105.814,168.849 105.997,168.932 106.130 C 169.014 106.263,168.957 106.372,168.806 106.372 C 168.655 106.372,168.531 106.606,168.531 106.892 C 168.531 107.178,168.414 107.412,168.270 107.412 C 168.127 107.412,168.010 107.690,168.010 108.031 C 168.010 108.371,167.835 108.795,167.620 108.973 C 167.406 109.151,167.230 109.626,167.230 110.030 C 167.230 110.433,167.113 110.835,166.970 110.923 C 166.827 111.012,166.710 111.697,166.710 112.447 C 166.710 113.197,166.582 113.938,166.426 114.095 C 165.648 114.872,165.509 124.403,166.255 125.853 C 166.505 126.340,166.710 127.247,166.710 127.868 C 166.710 128.490,166.827 128.999,166.970 128.999 C 167.113 128.999,167.230 129.442,167.230 129.984 C 167.230 130.909,167.978 133.474,168.358 133.854 C 168.453 133.949,168.531 134.286,168.531 134.602 C 168.531 134.918,168.706 135.323,168.921 135.501 C 169.135 135.679,169.311 136.016,169.311 136.250 C 169.311 136.484,169.545 136.822,169.831 137.001 C 170.117 137.179,170.351 137.550,170.351 137.825 C 170.351 138.100,170.527 138.500,170.741 138.714 C 170.956 138.929,171.131 139.229,171.131 139.380 C 171.131 139.679,171.632 140.340,172.757 141.526 C 173.150 141.941,173.472 142.389,173.472 142.521 C 173.472 142.866,175.343 144.727,175.907 144.944 C 176.169 145.044,176.443 145.360,176.518 145.645 C 176.593 145.930,176.733 146.164,176.830 146.164 C 176.927 146.164,177.528 146.634,178.165 147.208 C 179.775 148.658,179.916 148.765,180.223 148.765 C 180.372 148.765,180.494 148.857,180.494 148.970 C 180.494 149.083,181.138 149.512,181.925 149.923 C 182.711 150.335,183.355 150.769,183.355 150.889 C 183.355 151.008,183.473 151.105,183.616 151.105 C 183.760 151.105,184.484 151.398,185.226 151.756 C 185.967 152.113,186.727 152.406,186.915 152.406 C 187.103 152.406,187.256 152.508,187.256 152.633 C 187.256 152.757,187.748 152.938,188.349 153.034 C 188.949 153.130,189.564 153.306,189.714 153.425 C 190.463 154.017,208.152 154.593,208.563 154.038 C 208.863 153.633,210.701 152.926,211.456 152.926 C 212.378 152.926,213.010 152.606,214.414 151.430 C 214.628 151.252,215.079 151.105,215.417 151.105 C 215.755 151.105,216.278 150.842,216.580 150.520 C 217.370 149.679,217.884 149.285,218.194 149.285 C 218.344 149.285,218.466 149.168,218.466 149.025 C 218.466 148.882,218.620 148.765,218.809 148.765 C 218.998 148.765,219.399 148.501,219.701 148.179 C 220.442 147.390,221.001 146.944,221.252 146.944 C 221.523 146.944,224.960 143.571,226.061 142.225 C 226.532 141.648,227.123 140.934,227.373 140.639 C 227.624 140.344,227.828 139.998,227.828 139.871 C 227.828 139.744,228.062 139.389,228.349 139.082 C 228.635 138.775,228.869 138.321,228.869 138.074 C 228.869 137.827,228.956 137.586,229.064 137.538 C 229.391 137.393,230.689 135.276,230.689 134.888 C 230.689 134.688,230.865 134.378,231.079 134.200 C 231.303 134.014,231.469 133.447,231.469 132.868 C 231.469 132.313,231.586 131.860,231.730 131.860 C 231.873 131.860,231.990 131.635,231.990 131.361 C 231.990 131.087,232.105 130.824,232.247 130.776 C 232.388 130.728,232.562 130.111,232.633 129.405 C 232.705 128.699,232.882 128.003,233.027 127.858 C 233.171 127.713,233.290 126.747,233.290 125.711 C 233.290 124.675,233.407 123.756,233.550 123.667 C 233.693 123.579,233.810 123.038,233.810 122.466 C 233.810 121.834,233.913 121.489,234.072 121.588 C 234.402 121.792,234.700 121.064,234.451 120.661 C 234.315 120.442,234.205 120.456,234.042 120.713 C 233.909 120.923,233.816 119.939,233.814 118.286 C 233.812 116.717,233.697 115.435,233.550 115.345 C 233.407 115.256,233.290 114.507,233.290 113.679 C 233.290 112.269,232.799 110.743,232.233 110.393 C 232.099 110.310,231.990 109.898,231.990 109.477 C 231.990 109.057,231.888 108.713,231.763 108.713 C 231.638 108.713,231.456 108.098,231.357 107.347 C 231.259 106.596,230.887 105.484,230.532 104.876 C 230.177 104.269,229.960 103.771,230.050 103.771 C 230.224 103.771,228.539 101.383,227.767 100.536 C 227.515 100.259,227.308 99.945,227.308 99.839 C 227.308 99.734,227.160 99.492,226.980 99.303 C 226.799 99.114,226.441 98.632,226.184 98.230 C 225.928 97.829,225.519 97.430,225.277 97.344 C 224.807 97.175,223.927 96.357,223.927 96.088 C 223.927 95.543,220.838 93.115,219.607 92.692 C 219.110 92.521,218.328 92.013,217.869 91.563 C 216.158 89.884,215.969 89.727,215.661 89.727 C 215.487 89.727,215.345 89.612,215.345 89.472 C 215.345 89.331,215.052 89.143,214.694 89.053 C 214.337 88.964,214.044 88.786,214.044 88.658 C 214.044 88.531,213.834 88.427,213.576 88.427 C 213.319 88.427,212.997 88.316,212.861 88.181 C 212.511 87.834,210.522 87.344,208.869 87.198 C 208.023 87.123,207.265 86.888,206.965 86.609 C 206.022 85.730,194.092 85.417,192.328 86.225 M205.489 88.971 C 216.226 90.698,227.072 100.967,229.774 111.964 C 236.222 138.207,210.743 160.251,186.807 149.140 C 166.496 139.711,162.173 112.754,178.465 97.115 C 185.747 90.124,195.111 87.302,205.489 88.971 M218.050 103.186 C 217.779 104.353,216.712 106.019,215.700 106.853 C 214.627 107.737,214.655 108.317,215.779 108.520 C 216.184 108.593,216.898 108.810,217.367 109.002 C 219.579 109.910,221.406 105.554,219.775 103.263 C 219.056 102.255,218.274 102.220,218.050 103.186 M181.795 109.152 C 171.136 110.937,169.306 123.694,179.374 126.029 C 184.537 127.226,190.283 122.351,187.534 119.106 L 186.771 118.205 185.648 119.407 C 181.613 123.725,174.482 122.103,175.843 117.177 C 176.907 113.322,182.911 111.841,191.287 113.367 C 201.474 115.222,200.743 115.229,202.373 113.257 C 202.954 112.554,203.652 111.823,203.925 111.631 C 205.156 110.769,204.565 110.293,202.276 110.303 C 201.096 110.308,198.726 110.128,197.009 109.904 C 190.758 109.085,184.147 108.759,181.795 109.152 M209.881 109.736 C 198.346 113.245,195.443 132.243,205.651 137.415 C 208.862 139.043,215.303 138.567,216.040 136.648 C 216.292 135.989,215.988 135.974,214.270 136.557 C 205.664 139.478,199.065 129.792,203.559 120.834 C 205.242 117.481,207.824 114.745,210.471 113.513 C 215.731 111.064,218.870 118.674,214.152 122.439 C 213.064 123.307,213.039 123.667,214.031 124.181 C 216.480 125.447,218.643 123.637,219.905 119.265 C 221.708 113.016,216.227 107.805,209.881 109.736 M190.738 114.635 C 190.541 114.764,190.458 116.400,190.478 119.766 C 190.493 122.484,190.448 126.814,190.377 129.389 C 190.233 134.587,190.542 136.392,191.772 137.548 C 192.666 138.388,193.932 138.245,193.784 137.321 C 193.363 134.684,193.667 128.885,194.500 123.685 C 195.617 116.706,195.326 115.239,192.737 114.805 C 192.226 114.719,191.632 114.603,191.417 114.548 C 191.203 114.492,190.897 114.531,190.738 114.635 M207.542 154.876 C 207.542 155.091,207.659 155.267,207.802 155.267 C 207.945 155.267,208.062 155.091,208.062 154.876 C 208.062 154.662,207.945 154.486,207.802 154.486 C 207.659 154.486,207.542 154.662,207.542 154.876 " stroke="none" fill="#dfcfcb" fill-rule="evenodd"></path><path id="path1" d="M196.359 88.683 C 179.570 90.836,167.863 104.776,168.618 121.717 C 169.832 148.981,202.263 162.130,221.269 143.064 C 242.314 121.955,225.369 84.963,196.359 88.683 M219.775 103.263 C 221.406 105.554,219.579 109.910,217.367 109.002 C 216.898 108.810,216.184 108.593,215.779 108.520 C 214.655 108.317,214.627 107.737,215.700 106.853 C 216.712 106.019,217.779 104.353,218.050 103.186 C 218.274 102.220,219.056 102.255,219.775 103.263 M190.897 109.236 C 192.542 109.378,195.293 109.679,197.009 109.904 C 198.726 110.128,201.096 110.308,202.276 110.303 C 204.565 110.293,205.156 110.769,203.925 111.631 C 203.652 111.823,202.954 112.554,202.373 113.257 C 200.743 115.229,201.474 115.222,191.287 113.367 C 182.911 111.841,176.907 113.322,175.843 117.177 C 174.482 122.103,181.613 123.725,185.648 119.407 L 186.771 118.205 187.534 119.106 C 190.283 122.351,184.537 127.226,179.374 126.029 C 171.762 124.264,170.242 115.422,176.822 111.193 C 180.180 109.035,183.401 108.587,190.897 109.236 M215.403 109.765 C 218.995 110.762,221.086 115.174,219.905 119.265 C 218.643 123.637,216.480 125.447,214.031 124.181 C 213.039 123.667,213.064 123.307,214.152 122.439 C 218.870 118.674,215.731 111.064,210.471 113.513 C 207.824 114.745,205.242 117.481,203.559 120.834 C 199.065 129.792,205.664 139.478,214.270 136.557 C 215.988 135.974,216.292 135.989,216.040 136.648 C 215.579 137.849,211.415 138.798,208.598 138.344 C 197.391 136.539,195.958 118.659,206.450 111.551 C 209.390 109.559,212.459 108.947,215.403 109.765 M192.737 114.805 C 195.326 115.239,195.617 116.706,194.500 123.685 C 193.667 128.885,193.363 134.684,193.784 137.321 C 193.932 138.245,192.666 138.388,191.772 137.548 C 190.542 136.392,190.233 134.587,190.377 129.389 C 190.448 126.814,190.493 122.484,190.478 119.766 C 190.449 114.760,190.529 114.317,191.417 114.548 C 191.632 114.603,192.226 114.719,192.737 114.805 M209.883 161.501 C 209.668 161.644,209.230 161.762,208.908 161.765 C 208.586 161.767,208.322 161.886,208.322 162.029 C 208.322 162.172,208.088 162.289,207.802 162.289 C 207.516 162.289,207.282 162.393,207.282 162.521 C 207.282 162.648,206.990 162.826,206.632 162.916 C 206.274 163.005,205.982 163.194,205.982 163.334 C 205.982 163.474,205.859 163.589,205.710 163.589 C 205.308 163.589,204.251 164.718,204.045 165.367 C 203.947 165.676,203.757 165.930,203.624 165.930 C 203.490 165.930,203.381 166.105,203.381 166.320 C 203.381 166.534,203.264 166.710,203.121 166.710 C 202.978 166.710,202.861 166.934,202.861 167.208 C 202.861 167.483,202.732 167.750,202.575 167.802 C 202.418 167.855,202.227 168.449,202.151 169.124 C 202.075 169.799,201.911 170.351,201.787 170.351 C 201.662 170.351,201.560 172.165,201.560 174.382 C 201.560 176.599,201.662 178.414,201.787 178.414 C 201.911 178.414,202.075 178.966,202.151 179.640 C 202.227 180.315,202.418 180.910,202.575 180.962 C 202.732 181.015,202.861 181.282,202.861 181.556 C 202.861 181.830,202.978 182.055,203.121 182.055 C 203.264 182.055,203.381 182.184,203.381 182.343 C 203.381 182.793,206.135 185.436,206.604 185.436 C 206.834 185.436,207.022 185.553,207.022 185.696 C 207.022 185.839,207.198 185.956,207.412 185.956 C 207.627 185.956,207.802 186.073,207.802 186.216 C 207.802 186.359,208.088 186.476,208.437 186.476 C 208.786 186.476,209.144 186.593,209.233 186.736 C 209.327 186.889,210.878 186.996,213.004 186.996 C 215.130 186.996,216.680 186.889,216.775 186.736 C 216.863 186.593,217.397 186.476,217.961 186.476 C 218.524 186.476,218.986 186.359,218.986 186.216 C 218.986 186.073,219.278 185.956,219.636 185.956 L 220.286 185.956 220.286 182.445 L 220.286 178.934 219.400 178.934 C 218.534 178.934,218.510 178.963,218.336 180.234 C 218.237 180.949,218.075 181.534,217.974 181.534 C 217.874 181.534,217.572 182.068,217.303 182.720 C 216.922 183.644,216.651 183.939,216.079 184.053 C 215.675 184.134,215.345 184.303,215.345 184.428 C 215.345 184.553,215.000 184.655,214.580 184.655 C 214.159 184.655,213.743 184.772,213.654 184.915 C 213.566 185.059,213.032 185.176,212.468 185.176 C 211.905 185.176,211.443 185.059,211.443 184.915 C 211.443 184.772,211.158 184.655,210.809 184.655 C 210.459 184.655,210.107 184.547,210.025 184.415 C 209.944 184.283,209.527 184.098,209.100 184.005 C 208.612 183.897,208.322 183.671,208.322 183.396 C 208.322 183.155,208.030 182.739,207.672 182.470 C 207.300 182.191,207.022 181.719,207.022 181.368 C 207.022 181.030,206.905 180.754,206.762 180.754 C 206.619 180.754,206.502 180.403,206.502 179.974 C 206.502 179.545,206.385 179.194,206.242 179.194 C 206.078 179.194,205.982 177.373,205.982 174.252 C 205.982 171.131,206.078 169.311,206.242 169.311 C 206.385 169.311,206.502 168.967,206.502 168.546 C 206.502 168.125,206.606 167.717,206.733 167.638 C 206.860 167.559,207.040 167.192,207.133 166.822 C 207.329 166.043,209.204 164.109,209.763 164.109 C 209.972 164.109,210.143 163.992,210.143 163.849 C 210.143 163.706,210.553 163.589,211.053 163.589 C 211.554 163.589,211.964 163.472,211.964 163.329 C 211.964 163.186,212.432 163.069,213.004 163.069 C 213.576 163.069,214.044 163.186,214.044 163.329 C 214.044 163.472,214.337 163.589,214.694 163.589 C 215.052 163.589,215.345 163.706,215.345 163.849 C 215.345 163.992,215.529 164.109,215.753 164.109 C 216.269 164.109,216.783 164.616,217.018 165.357 C 217.118 165.672,217.309 165.930,217.443 165.930 C 217.576 165.930,217.685 166.222,217.685 166.580 C 217.685 166.938,217.802 167.230,217.945 167.230 C 218.088 167.230,218.205 167.640,218.205 168.140 C 218.205 169.034,218.225 169.051,219.283 169.051 L 220.361 169.051 220.196 167.295 C 220.104 166.330,220.029 164.808,220.028 163.914 C 220.026 162.463,219.970 162.289,219.506 162.289 C 219.220 162.289,218.986 162.184,218.986 162.056 C 218.986 161.512,210.631 161.002,209.883 161.501 M88.854 163.134 C 88.770 163.885,88.624 165.582,88.530 166.905 L 88.359 169.311 89.433 169.311 L 90.507 169.311 90.507 168.270 C 90.507 167.698,90.624 167.230,90.767 167.230 C 90.910 167.230,91.027 166.991,91.027 166.699 C 91.027 165.661,92.701 164.109,93.820 164.109 C 94.287 164.109,94.668 163.992,94.668 163.849 C 94.668 163.706,95.137 163.589,95.709 163.589 L 96.749 163.589 96.749 174.122 L 96.749 184.655 95.059 184.655 L 93.368 184.655 93.368 185.566 L 93.368 186.476 99.090 186.476 L 104.811 186.476 104.811 185.566 L 104.811 184.655 102.861 184.655 L 100.910 184.655 100.910 174.122 L 100.910 163.589 102.211 163.589 C 102.926 163.589,103.511 163.706,103.511 163.849 C 103.511 163.992,103.893 164.109,104.359 164.109 C 105.268 164.109,106.632 165.130,106.632 165.810 C 106.632 166.019,106.749 166.190,106.892 166.190 C 107.035 166.190,107.152 166.599,107.152 167.100 C 107.152 167.601,107.269 168.010,107.412 168.010 C 107.555 168.010,107.672 168.303,107.672 168.661 C 107.672 169.230,107.785 169.311,108.583 169.311 L 109.493 169.311 109.493 165.540 L 109.493 161.769 99.250 161.769 L 89.007 161.769 88.854 163.134 M243.173 168.791 C 243.173 168.934,242.997 169.051,242.783 169.051 C 242.479 169.051,242.393 169.397,242.393 170.611 L 242.393 172.172 241.222 172.172 C 240.058 172.172,240.052 172.176,240.052 173.082 C 240.052 173.984,240.062 173.992,241.196 173.992 L 242.340 173.992 242.431 179.497 C 242.500 183.604,242.605 185.030,242.848 185.111 C 243.027 185.170,243.173 185.335,243.173 185.476 C 243.173 185.818,243.845 186.476,244.195 186.476 C 244.348 186.476,244.473 186.593,244.473 186.736 C 244.473 187.291,249.260 187.051,249.675 186.476 C 249.881 186.190,250.200 185.956,250.383 185.956 C 250.565 185.956,250.715 185.780,250.715 185.566 C 250.715 185.351,250.832 185.176,250.975 185.176 C 251.118 185.176,251.235 184.941,251.235 184.655 C 251.235 184.369,251.352 184.135,251.495 184.135 C 251.638 184.135,251.756 183.726,251.756 183.225 C 251.756 182.320,251.749 182.315,250.585 182.315 C 249.588 182.315,249.415 182.392,249.415 182.835 C 249.415 183.121,249.298 183.355,249.155 183.355 C 249.012 183.355,248.895 183.531,248.895 183.745 C 248.895 183.960,248.719 184.135,248.505 184.135 C 248.290 184.135,248.114 184.252,248.114 184.395 C 248.114 184.834,247.363 184.684,246.814 184.135 C 246.331 183.653,246.294 183.268,246.294 178.804 L 246.294 173.992 248.505 173.992 L 250.715 173.992 250.715 173.082 L 250.715 172.172 248.505 172.172 L 246.294 172.172 246.294 170.351 L 246.294 168.531 244.733 168.531 C 243.866 168.531,243.173 168.646,243.173 168.791 M254.876 168.791 C 254.876 168.934,254.642 169.051,254.356 169.051 C 253.894 169.051,253.836 169.224,253.836 170.611 L 253.836 172.172 252.796 172.172 C 251.780 172.172,251.756 172.193,251.756 173.082 C 251.756 173.971,251.780 173.992,252.796 173.992 L 253.836 173.992 253.836 178.804 C 253.836 181.838,253.932 183.615,254.096 183.615 C 254.239 183.615,254.356 183.966,254.356 184.395 C 254.356 184.824,254.460 185.176,254.586 185.176 C 254.712 185.176,254.879 185.418,254.957 185.715 C 255.034 186.012,255.341 186.318,255.637 186.396 C 255.934 186.473,256.177 186.640,256.177 186.766 C 256.177 187.283,260.728 187.026,261.318 186.476 C 261.626 186.190,261.999 185.956,262.148 185.956 C 262.297 185.956,262.419 185.790,262.419 185.587 C 262.419 185.385,262.538 185.179,262.684 185.131 C 262.829 185.082,263.021 184.429,263.110 183.679 L 263.271 182.315 262.195 182.315 C 261.292 182.315,261.118 182.398,261.118 182.835 C 261.118 183.121,261.001 183.355,260.858 183.355 C 260.715 183.355,260.598 183.531,260.598 183.745 C 260.598 183.960,260.423 184.135,260.208 184.135 C 259.993 184.135,259.818 184.252,259.818 184.395 C 259.818 184.804,259.095 184.700,258.521 184.207 C 258.031 183.788,257.997 183.447,257.997 178.876 L 257.997 173.992 260.208 173.992 L 262.419 173.992 262.419 173.082 L 262.419 172.172 260.208 172.172 L 257.997 172.172 257.997 170.351 L 257.997 168.531 256.437 168.531 C 255.570 168.531,254.876 168.646,254.876 168.791 M113.394 171.912 C 113.394 172.055,113.218 172.172,113.004 172.172 C 112.789 172.172,112.614 172.289,112.614 172.432 C 112.614 172.575,112.422 172.692,112.187 172.692 C 111.795 172.692,110.273 174.049,110.273 174.399 C 110.273 174.482,110.098 174.725,109.883 174.940 C 109.668 175.154,109.493 175.614,109.493 175.961 C 109.493 176.309,109.376 176.593,109.233 176.593 C 109.076 176.593,108.973 177.677,108.973 179.324 C 108.973 180.826,109.074 182.055,109.199 182.055 C 109.323 182.055,109.491 182.461,109.571 182.958 C 109.728 183.921,111.535 185.956,112.234 185.956 C 112.443 185.956,112.615 186.044,112.616 186.151 C 112.617 186.258,112.933 186.492,113.318 186.671 C 114.166 187.065,119.116 187.120,119.116 186.736 C 119.116 186.593,119.291 186.476,119.506 186.476 C 120.066 186.476,121.957 184.505,122.390 183.471 C 123.038 181.919,122.904 181.534,121.717 181.534 C 121.045 181.534,120.676 181.652,120.676 181.867 C 120.676 182.050,120.442 182.369,120.156 182.575 C 119.870 182.781,119.636 183.156,119.636 183.407 C 119.636 183.679,119.371 183.932,118.986 184.028 C 118.628 184.118,118.336 184.296,118.336 184.424 C 118.336 184.551,118.160 184.655,117.945 184.655 C 117.731 184.655,117.555 184.772,117.555 184.915 C 117.555 185.059,117.146 185.176,116.645 185.176 C 116.144 185.176,115.735 185.059,115.735 184.915 C 115.735 184.772,115.550 184.655,115.325 184.655 C 114.731 184.655,113.394 183.228,113.394 182.595 C 113.394 182.298,113.277 182.055,113.134 182.055 C 112.991 182.055,112.874 181.411,112.874 180.624 L 112.874 179.194 117.815 179.194 L 122.757 179.194 122.757 177.769 C 122.757 176.339,122.123 174.252,121.688 174.252 C 121.561 174.252,121.456 174.137,121.456 173.995 C 121.456 173.538,120.574 172.692,120.098 172.692 C 119.844 172.692,119.636 172.575,119.636 172.432 C 119.636 172.289,119.460 172.172,119.246 172.172 C 119.031 172.172,118.856 172.055,118.856 171.912 C 118.856 171.755,117.772 171.651,116.125 171.651 C 114.478 171.651,113.394 171.755,113.394 171.912 M128.739 171.912 C 128.739 172.055,128.505 172.172,128.218 172.172 C 127.932 172.172,127.698 172.276,127.698 172.404 C 127.698 172.531,127.406 172.709,127.048 172.799 C 126.640 172.901,126.398 173.146,126.398 173.455 C 126.398 173.727,126.255 173.997,126.080 174.055 C 124.698 174.516,126.312 179.714,127.837 179.714 C 128.047 179.714,128.218 179.822,128.218 179.953 C 128.218 180.085,128.599 180.270,129.064 180.365 C 130.172 180.592,131.339 181.091,131.339 181.338 C 131.339 181.446,131.632 181.534,131.990 181.534 C 132.347 181.534,132.640 181.643,132.640 181.776 C 132.640 181.910,132.903 182.056,133.225 182.102 C 134.481 182.280,133.825 184.655,132.521 184.655 C 132.300 184.655,132.120 184.772,132.120 184.915 C 132.120 185.059,131.710 185.176,131.209 185.176 C 130.709 185.176,130.299 185.059,130.299 184.915 C 130.299 184.772,130.065 184.655,129.779 184.655 C 129.168 184.655,128.218 183.785,128.218 183.225 C 128.218 183.010,128.101 182.835,127.958 182.835 C 127.815 182.835,127.698 182.425,127.698 181.925 C 127.698 181.036,127.674 181.014,126.658 181.014 L 125.618 181.014 125.618 182.932 C 125.618 185.894,125.794 186.476,126.691 186.476 C 127.102 186.476,127.438 186.593,127.438 186.736 C 127.438 186.896,128.695 186.996,130.689 186.996 C 132.683 186.996,133.940 186.896,133.940 186.736 C 133.940 186.593,134.180 186.476,134.472 186.476 C 134.765 186.476,135.286 186.213,135.630 185.891 C 135.974 185.569,136.437 185.155,136.658 184.970 C 136.880 184.786,137.061 184.405,137.061 184.125 C 137.061 183.845,137.178 183.615,137.321 183.615 C 137.464 183.615,137.581 183.030,137.581 182.315 C 137.581 181.599,137.464 181.014,137.321 181.014 C 137.178 181.014,137.061 180.844,137.061 180.636 C 137.061 180.295,136.499 179.656,135.394 178.739 C 135.179 178.560,134.763 178.414,134.471 178.414 C 134.179 178.414,133.940 178.320,133.940 178.205 C 133.940 177.933,131.640 177.110,130.884 177.112 C 130.562 177.113,130.299 176.996,130.299 176.853 C 130.299 176.710,130.174 176.593,130.020 176.593 C 128.916 176.593,128.584 174.366,129.649 174.099 C 130.007 174.009,130.299 173.831,130.299 173.704 C 130.299 173.576,130.709 173.472,131.209 173.472 C 131.710 173.472,132.120 173.576,132.120 173.703 C 132.120 173.830,132.529 174.011,133.030 174.105 C 133.702 174.231,133.940 174.409,133.940 174.784 C 133.940 175.064,134.057 175.293,134.200 175.293 C 134.343 175.293,134.460 175.702,134.460 176.203 C 134.460 177.108,134.467 177.113,135.631 177.113 L 136.801 177.113 136.801 174.642 L 136.801 172.172 136.021 172.172 C 135.592 172.172,135.241 172.055,135.241 171.912 C 135.241 171.752,133.984 171.651,131.990 171.651 C 129.996 171.651,128.739 171.752,128.739 171.912 M143.303 171.912 C 143.303 172.055,143.010 172.172,142.653 172.172 C 142.295 172.172,142.003 172.276,142.003 172.404 C 142.003 172.531,141.710 172.709,141.352 172.799 C 140.933 172.904,140.702 173.144,140.702 173.477 C 140.702 173.760,140.585 173.992,140.442 173.992 C 139.980 173.992,140.123 177.035,140.593 177.215 C 141.486 177.558,143.823 177.390,143.823 176.983 C 143.823 176.769,143.940 176.593,144.083 176.593 C 144.451 176.593,144.408 174.681,144.031 174.304 C 143.788 174.062,143.875 173.992,144.421 173.992 C 144.808 173.992,145.124 173.875,145.124 173.732 C 145.124 173.345,145.863 173.417,146.987 173.912 L 147.984 174.352 147.984 176.123 L 147.984 177.893 146.164 177.893 C 145.124 177.893,144.343 178.005,144.343 178.153 C 144.343 178.296,143.934 178.414,143.433 178.414 C 142.932 178.414,142.523 178.525,142.523 178.662 C 142.523 178.798,142.132 178.983,141.655 179.073 C 141.177 179.163,140.621 179.475,140.419 179.767 C 140.217 180.059,139.906 180.451,139.727 180.637 C 138.547 181.871,139.822 186.476,141.344 186.476 C 141.563 186.476,141.743 186.593,141.743 186.736 C 141.743 186.889,142.653 186.996,143.953 186.996 C 145.254 186.996,146.164 186.889,146.164 186.736 C 146.164 186.593,146.431 186.476,146.757 186.476 C 147.083 186.476,147.513 186.248,147.714 185.970 C 148.075 185.469,148.083 185.469,148.517 185.970 C 148.758 186.248,149.147 186.476,149.380 186.476 C 149.614 186.476,149.805 186.593,149.805 186.736 C 149.805 186.883,150.542 186.996,151.495 186.996 C 152.449 186.996,153.186 186.883,153.186 186.736 C 153.186 186.593,153.420 186.476,153.706 186.476 C 154.088 186.476,154.226 186.303,154.226 185.826 C 154.226 185.273,154.106 185.176,153.427 185.176 C 151.957 185.176,151.886 184.918,151.886 179.602 C 151.886 176.556,151.790 174.772,151.625 174.772 C 151.482 174.772,151.365 174.484,151.365 174.132 C 151.365 173.781,151.186 173.342,150.966 173.157 C 150.747 172.973,150.404 172.676,150.205 172.497 C 150.005 172.318,149.717 172.172,149.563 172.172 C 149.410 172.172,149.285 172.055,149.285 171.912 C 149.285 171.753,148.114 171.651,146.294 171.651 C 144.473 171.651,143.303 171.753,143.303 171.912 M163.069 171.912 C 163.069 172.055,162.944 172.172,162.790 172.172 C 162.637 172.172,162.336 172.347,162.121 172.562 C 161.907 172.776,161.623 172.952,161.490 172.952 C 161.357 172.952,161.248 172.776,161.248 172.562 C 161.248 172.237,160.728 172.172,158.127 172.172 L 155.007 172.172 155.007 173.082 C 155.007 173.987,155.013 173.992,156.177 173.992 L 157.347 173.992 157.347 179.324 L 157.347 184.655 156.177 184.655 C 155.013 184.655,155.007 184.660,155.007 185.566 L 155.007 186.476 159.298 186.476 L 163.589 186.476 163.589 185.566 C 163.589 184.660,163.583 184.655,162.419 184.655 L 161.248 184.655 161.248 180.624 C 161.248 178.407,161.338 176.593,161.447 176.593 C 161.556 176.593,161.861 176.096,162.124 175.488 C 162.659 174.251,162.936 174.002,163.784 173.996 C 164.106 173.994,164.369 173.875,164.369 173.732 C 164.369 173.589,164.603 173.472,164.889 173.472 C 165.176 173.472,165.410 173.589,165.410 173.732 C 165.410 173.875,165.585 173.992,165.800 173.992 C 166.014 173.992,166.190 174.168,166.190 174.382 C 166.190 174.597,166.307 174.772,166.450 174.772 C 166.614 174.772,166.710 176.593,166.710 179.714 L 166.710 184.655 165.540 184.655 C 164.376 184.655,164.369 184.660,164.369 185.566 L 164.369 186.476 168.661 186.476 L 172.952 186.476 172.952 185.566 C 172.952 184.664,172.941 184.655,171.811 184.655 L 170.670 184.655 170.572 179.212 C 170.474 173.785,170.471 173.768,169.827 173.235 C 169.472 172.942,169.039 172.582,168.867 172.437 C 168.694 172.291,168.431 172.172,168.281 172.172 C 168.132 172.172,168.010 172.055,168.010 171.912 C 168.010 171.756,167.013 171.651,165.540 171.651 C 164.066 171.651,163.069 171.756,163.069 171.912 M179.194 171.912 C 179.194 172.055,178.901 172.172,178.544 172.172 C 178.186 172.172,177.893 172.281,177.893 172.414 C 177.893 172.548,177.640 172.737,177.330 172.835 C 177.020 172.934,176.508 173.273,176.191 173.590 C 175.874 173.907,175.535 174.420,175.436 174.729 C 175.338 175.039,175.148 175.293,175.015 175.293 C 174.882 175.293,174.772 175.585,174.772 175.943 C 174.772 176.300,174.655 176.593,174.512 176.593 C 174.355 176.593,174.252 177.720,174.252 179.454 C 174.252 181.188,174.355 182.315,174.512 182.315 C 174.655 182.315,174.772 182.549,174.772 182.835 C 174.772 183.121,174.889 183.355,175.033 183.355 C 175.176 183.355,175.293 183.521,175.293 183.723 C 175.293 184.221,177.006 185.956,177.499 185.956 C 177.716 185.956,177.894 186.044,177.895 186.151 C 177.901 186.642,179.478 186.996,181.664 186.996 C 183.851 186.996,185.428 186.642,185.434 186.151 C 185.435 186.044,185.587 185.956,185.772 185.956 C 186.292 185.956,188.557 183.638,188.557 183.106 C 188.557 182.957,188.674 182.835,188.817 182.835 C 188.960 182.835,189.077 182.425,189.077 181.925 C 189.077 181.424,189.194 181.014,189.337 181.014 C 189.485 181.014,189.597 180.239,189.597 179.209 C 189.597 178.216,189.480 177.332,189.337 177.243 C 189.194 177.155,189.077 176.797,189.077 176.448 C 189.077 176.098,188.960 175.813,188.817 175.813 C 188.674 175.813,188.557 175.579,188.557 175.293 C 188.557 175.007,188.440 174.772,188.296 174.772 C 188.153 174.772,188.036 174.602,188.036 174.394 C 188.036 174.186,187.739 173.718,187.374 173.354 C 187.010 172.990,186.542 172.692,186.334 172.692 C 186.126 172.692,185.956 172.575,185.956 172.432 C 185.956 172.289,185.663 172.172,185.306 172.172 C 184.948 172.172,184.655 172.055,184.655 171.912 C 184.655 171.755,183.572 171.651,181.925 171.651 C 180.277 171.651,179.194 171.755,179.194 171.912 M228.349 171.912 C 228.349 172.055,228.056 172.172,227.698 172.172 C 227.341 172.172,227.048 172.281,227.048 172.414 C 227.048 172.548,226.785 172.740,226.463 172.842 C 225.818 173.045,224.786 174.126,224.558 174.837 C 224.478 175.088,224.303 175.293,224.170 175.293 C 224.036 175.293,223.927 175.585,223.927 175.943 C 223.927 176.300,223.810 176.593,223.667 176.593 C 223.509 176.593,223.407 177.720,223.407 179.454 C 223.407 181.188,223.509 182.315,223.667 182.315 C 223.810 182.315,223.927 182.549,223.927 182.835 C 223.927 183.121,224.044 183.355,224.187 183.355 C 224.330 183.355,224.447 183.502,224.447 183.683 C 224.447 184.185,226.262 185.956,226.777 185.956 C 226.926 185.956,227.048 186.073,227.048 186.216 C 227.048 186.359,227.282 186.476,227.568 186.476 C 227.854 186.476,228.088 186.593,228.088 186.736 C 228.088 186.894,229.215 186.996,230.949 186.996 C 232.683 186.996,233.810 186.894,233.810 186.736 C 233.810 186.593,233.986 186.476,234.200 186.476 C 234.415 186.476,234.590 186.359,234.590 186.216 C 234.590 186.073,234.767 185.956,234.982 185.956 C 235.479 185.956,237.711 183.710,237.711 183.210 C 237.711 183.004,237.828 182.835,237.971 182.835 C 238.114 182.835,238.231 182.425,238.231 181.925 C 238.231 181.424,238.349 181.014,238.492 181.014 C 238.642 181.014,238.752 180.191,238.752 179.064 C 238.752 177.937,238.642 177.113,238.492 177.113 C 238.349 177.113,238.231 176.821,238.231 176.463 C 238.231 176.105,238.129 175.813,238.004 175.813 C 237.879 175.813,237.704 175.451,237.615 175.008 C 237.446 174.160,236.088 172.692,235.473 172.692 C 235.274 172.692,235.111 172.575,235.111 172.432 C 235.111 172.289,234.818 172.172,234.460 172.172 C 234.103 172.172,233.810 172.055,233.810 171.912 C 233.810 171.755,232.726 171.651,231.079 171.651 C 229.432 171.651,228.349 171.755,228.349 171.912 M268.661 171.912 C 268.661 172.055,268.368 172.172,268.010 172.172 C 267.653 172.172,267.360 172.276,267.360 172.404 C 267.360 172.531,267.068 172.709,266.710 172.799 C 266.290 172.904,266.060 173.144,266.060 173.477 C 266.060 173.760,265.943 173.992,265.800 173.992 C 265.338 173.992,265.481 177.035,265.951 177.215 C 268.229 178.090,270.107 176.851,269.500 174.873 C 269.260 174.092,269.284 173.992,269.710 173.992 C 269.974 173.992,270.263 173.875,270.351 173.732 C 270.554 173.404,271.782 173.388,271.782 173.714 C 271.782 173.847,272.045 173.993,272.367 174.039 C 272.904 174.115,272.958 174.278,273.028 176.008 L 273.105 177.893 271.403 177.893 C 270.442 177.893,269.701 178.007,269.701 178.153 C 269.701 178.296,269.291 178.414,268.791 178.414 C 268.290 178.414,267.880 178.516,267.880 178.641 C 267.880 178.766,267.518 178.941,267.076 179.030 C 264.224 179.600,263.764 186.476,266.578 186.476 C 266.722 186.476,266.840 186.593,266.840 186.736 C 266.840 186.889,267.750 186.996,269.051 186.996 C 270.351 186.996,271.261 186.889,271.261 186.736 C 271.261 186.593,271.511 186.476,271.816 186.476 C 272.121 186.476,272.589 186.224,272.856 185.916 C 273.333 185.367,273.351 185.365,273.800 185.851 C 274.760 186.889,278.544 187.594,278.544 186.736 C 278.544 186.593,278.719 186.476,278.934 186.476 C 279.176 186.476,279.324 186.230,279.324 185.826 C 279.324 185.260,279.209 185.176,278.441 185.176 C 277.256 185.176,277.243 185.118,277.243 179.563 C 277.243 176.543,277.147 174.772,276.983 174.772 C 276.840 174.772,276.723 174.529,276.723 174.232 C 276.723 173.599,275.386 172.172,274.792 172.172 C 274.567 172.172,274.382 172.055,274.382 171.912 C 274.382 171.754,273.255 171.651,271.521 171.651 C 269.788 171.651,268.661 171.754,268.661 171.912 M284.785 171.912 C 284.785 172.055,284.663 172.172,284.514 172.172 C 283.834 172.172,281.664 174.489,281.664 175.217 C 281.664 175.545,281.547 175.813,281.404 175.813 C 281.258 175.813,281.144 176.550,281.144 177.503 C 281.144 178.457,281.258 179.194,281.404 179.194 C 281.547 179.194,281.664 179.436,281.664 179.732 C 281.664 180.029,281.840 180.447,282.055 180.661 C 282.269 180.876,282.445 181.152,282.445 181.274 C 282.445 181.397,282.269 181.673,282.055 181.887 C 281.840 182.102,281.664 182.403,281.664 182.556 C 281.664 182.709,281.547 182.835,281.404 182.835 C 281.253 182.835,281.144 183.702,281.144 184.915 C 281.144 186.071,281.255 186.996,281.394 186.996 C 281.531 186.996,281.912 187.278,282.239 187.622 C 282.816 188.228,282.979 188.252,287.335 188.344 C 292.460 188.453,292.406 188.429,292.256 190.537 C 292.131 192.276,291.231 193.250,289.574 193.436 C 288.943 193.507,288.427 193.668,288.427 193.792 C 288.427 193.916,287.900 194.018,287.256 194.018 C 286.612 194.018,286.086 193.916,286.086 193.792 C 286.086 193.668,285.675 193.499,285.173 193.418 C 283.802 193.195,282.478 190.377,283.745 190.377 C 283.888 190.377,284.005 190.252,284.005 190.098 C 284.005 188.969,281.554 188.650,281.144 189.727 C 281.008 190.085,280.777 190.377,280.631 190.377 C 280.481 190.377,280.364 191.004,280.364 191.808 C 280.364 192.594,280.468 193.238,280.596 193.238 C 280.724 193.238,280.901 193.531,280.991 193.888 C 281.093 194.292,281.339 194.538,281.642 194.538 C 281.910 194.538,282.196 194.714,282.279 194.928 C 282.366 195.157,282.756 195.319,283.217 195.319 C 283.650 195.319,284.005 195.436,284.005 195.579 C 284.005 195.738,285.262 195.839,287.256 195.839 C 289.044 195.839,290.507 195.737,290.507 195.612 C 290.507 195.487,290.952 195.314,291.497 195.227 C 292.041 195.140,292.714 194.831,292.992 194.540 C 293.270 194.250,293.650 193.867,293.836 193.690 C 294.942 192.635,295.146 192.346,295.290 191.627 C 295.614 190.006,295.474 187.249,295.059 187.090 C 294.844 187.008,294.668 186.719,294.668 186.448 C 294.668 186.136,294.486 185.956,294.170 185.956 C 293.896 185.956,293.623 185.809,293.563 185.631 C 293.484 185.392,292.297 185.284,289.120 185.223 C 286.671 185.176,284.785 185.035,284.785 184.898 C 284.785 184.765,284.620 184.655,284.417 184.655 C 283.913 184.655,283.771 184.124,284.086 183.420 C 284.354 182.824,284.785 182.623,284.785 183.095 C 284.785 183.252,285.869 183.355,287.516 183.355 C 289.163 183.355,290.247 183.252,290.247 183.095 C 290.247 182.952,290.423 182.835,290.637 182.835 C 290.852 182.835,291.027 182.720,291.027 182.580 C 291.027 182.439,291.320 182.251,291.678 182.161 C 292.035 182.072,292.328 181.820,292.328 181.602 C 292.328 181.384,292.574 180.991,292.876 180.730 C 293.536 180.157,293.892 176.424,293.416 175.060 C 293.248 174.576,293.234 174.252,293.382 174.252 C 293.517 174.252,293.628 174.369,293.628 174.512 C 293.628 174.655,294.259 174.772,295.030 174.772 C 296.616 174.772,296.932 174.323,296.599 172.546 L 296.431 171.651 294.397 171.651 C 292.591 171.651,292.344 171.710,292.198 172.172 C 292.032 172.695,291.027 172.918,291.027 172.432 C 291.027 172.289,290.852 172.172,290.637 172.172 C 290.423 172.172,290.247 172.055,290.247 171.912 C 290.247 171.755,289.163 171.651,287.516 171.651 C 285.869 171.651,284.785 171.755,284.785 171.912 M301.495 172.005 C 301.174 172.165,300.910 172.384,300.910 172.493 C 300.910 172.603,300.747 172.692,300.548 172.692 C 300.045 172.692,298.681 174.010,298.459 174.713 C 298.357 175.032,298.165 175.293,298.032 175.293 C 297.898 175.293,297.789 175.585,297.789 175.943 C 297.789 176.300,297.672 176.593,297.529 176.593 C 297.372 176.593,297.269 177.677,297.269 179.324 C 297.269 180.971,297.372 182.055,297.529 182.055 C 297.672 182.055,297.789 182.347,297.789 182.705 C 297.789 183.062,297.906 183.355,298.049 183.355 C 298.192 183.355,298.309 183.525,298.309 183.733 C 298.309 184.239,300.109 185.956,300.639 185.956 C 300.788 185.956,300.911 186.044,300.912 186.151 C 300.917 186.647,302.497 186.996,304.737 186.996 C 307.459 186.996,307.742 186.887,309.523 185.144 C 310.517 184.171,310.786 183.712,310.932 182.738 L 311.112 181.534 310.043 181.534 C 309.265 181.534,308.973 181.641,308.973 181.925 C 308.973 182.139,308.877 182.315,308.761 182.315 C 308.644 182.315,308.354 182.724,308.115 183.225 C 307.831 183.821,307.500 184.135,307.156 184.135 C 306.868 184.135,306.632 184.252,306.632 184.395 C 306.632 184.538,306.456 184.655,306.242 184.655 C 306.027 184.655,305.852 184.772,305.852 184.915 C 305.852 185.059,305.442 185.176,304.941 185.176 C 304.441 185.176,304.031 185.059,304.031 184.915 C 304.031 184.772,303.885 184.654,303.706 184.651 C 302.595 184.637,301.654 183.145,301.504 181.159 L 301.355 179.194 306.212 179.194 C 310.464 179.194,311.090 179.141,311.232 178.769 C 311.484 178.115,310.769 174.950,310.271 174.512 C 310.027 174.298,309.743 173.854,309.639 173.526 C 309.519 173.145,309.178 172.876,308.692 172.779 C 308.274 172.695,307.932 172.524,307.932 172.399 C 307.932 172.274,307.757 172.172,307.542 172.172 C 307.328 172.172,307.152 172.055,307.152 171.912 C 307.152 171.555,302.241 171.636,301.495 172.005 M116.515 173.732 C 116.515 173.875,116.723 173.992,116.977 173.992 C 117.564 173.992,118.336 174.880,118.336 175.556 C 118.336 175.840,118.453 176.073,118.596 176.073 C 118.739 176.073,118.856 176.365,118.856 176.723 L 118.856 177.373 115.800 177.353 C 114.119 177.341,112.890 177.273,113.069 177.201 C 113.248 177.129,113.394 176.727,113.394 176.309 C 113.394 175.421,114.543 173.992,115.258 173.992 C 115.520 173.992,115.735 173.875,115.735 173.732 C 115.735 173.589,115.910 173.472,116.125 173.472 C 116.339 173.472,116.515 173.589,116.515 173.732 M182.445 173.732 C 182.533 173.875,182.815 173.992,183.070 173.992 C 184.014 173.992,184.681 174.917,184.839 176.443 C 184.921 177.241,185.089 177.893,185.212 177.893 C 185.335 177.893,185.436 178.537,185.436 179.324 C 185.436 180.111,185.335 180.754,185.212 180.754 C 185.089 180.754,184.919 181.425,184.834 182.246 C 184.750 183.066,184.556 183.778,184.403 183.829 C 184.251 183.880,183.961 184.087,183.759 184.289 C 183.557 184.490,183.150 184.655,182.853 184.655 C 182.557 184.655,182.315 184.772,182.315 184.915 C 182.315 185.059,182.022 185.176,181.664 185.176 C 181.307 185.176,181.014 185.059,181.014 184.915 C 181.014 184.772,180.843 184.655,180.633 184.655 C 180.424 184.655,179.868 184.280,179.398 183.820 L 178.544 182.985 178.544 179.334 L 178.544 175.683 179.352 174.837 C 179.797 174.373,180.352 173.992,180.587 173.992 C 180.822 173.992,181.014 173.875,181.014 173.732 C 181.014 173.589,181.300 173.472,181.649 173.472 C 181.998 173.472,182.356 173.589,182.445 173.732 M231.599 173.732 C 231.688 173.875,231.969 173.992,232.225 173.992 C 232.825 173.992,233.810 174.846,233.810 175.366 C 233.810 175.588,233.952 175.817,234.126 175.875 C 234.352 175.950,234.442 176.932,234.442 179.324 C 234.442 181.715,234.352 182.698,234.126 182.773 C 233.952 182.831,233.810 183.095,233.810 183.359 C 233.810 183.624,233.576 183.914,233.290 184.005 C 233.004 184.096,232.770 184.279,232.770 184.413 C 232.770 184.546,232.477 184.655,232.120 184.655 C 231.762 184.655,231.469 184.772,231.469 184.915 C 231.469 185.059,231.177 185.176,230.819 185.176 C 230.462 185.176,230.169 185.059,230.169 184.915 C 230.169 184.772,230.022 184.655,229.841 184.655 C 229.318 184.655,228.088 183.381,228.088 182.840 C 228.088 182.568,227.971 182.273,227.828 182.185 C 227.682 182.094,227.568 180.843,227.568 179.324 C 227.568 177.804,227.682 176.553,227.828 176.463 C 227.971 176.375,228.088 176.080,228.088 175.809 C 228.088 175.228,229.247 173.992,229.791 173.992 C 229.999 173.992,230.169 173.875,230.169 173.732 C 230.169 173.589,230.455 173.472,230.804 173.472 C 231.153 173.472,231.511 173.589,231.599 173.732 M288.228 173.805 C 289.599 174.516,289.727 174.830,289.727 177.482 C 289.727 180.101,289.381 181.014,288.390 181.014 C 288.148 181.014,287.904 181.150,287.849 181.316 C 287.641 181.941,285.630 180.752,285.460 179.902 C 284.918 177.191,285.367 174.444,286.436 173.932 C 287.511 173.418,287.486 173.419,288.228 173.805 M305.357 173.907 C 306.398 174.418,306.623 174.698,306.628 175.488 C 306.630 175.809,306.749 176.073,306.892 176.073 C 307.035 176.073,307.152 176.365,307.152 176.723 L 307.152 177.373 304.344 177.373 L 301.535 177.373 301.645 176.426 C 301.766 175.395,302.895 173.992,303.604 173.992 C 303.839 173.992,304.031 173.875,304.031 173.732 C 304.031 173.366,304.338 173.407,305.357 173.907 M147.984 180.888 C 147.984 182.498,146.581 184.655,145.534 184.655 C 145.308 184.655,145.124 184.772,145.124 184.915 C 145.124 185.379,144.596 185.192,143.876 184.472 C 142.246 182.841,143.146 180.553,145.514 180.309 C 146.300 180.228,146.944 180.061,146.944 179.938 C 146.944 179.815,147.178 179.714,147.464 179.714 C 147.908 179.714,147.984 179.887,147.984 180.888 M273.017 181.409 C 272.880 183.117,271.843 184.638,270.806 184.651 C 270.627 184.654,270.481 184.772,270.481 184.915 C 270.481 185.395,269.800 185.182,269.228 184.523 C 268.916 184.165,268.661 183.755,268.661 183.613 C 268.661 183.471,268.544 183.355,268.401 183.355 C 268.257 183.355,268.140 183.121,268.140 182.835 C 268.140 182.549,268.257 182.315,268.401 182.315 C 268.544 182.315,268.661 182.072,268.661 181.776 C 268.661 180.897,269.391 180.411,270.899 180.286 C 271.670 180.222,272.302 180.067,272.302 179.942 C 272.302 179.816,272.493 179.714,272.727 179.714 C 273.092 179.714,273.134 179.957,273.017 181.409 " stroke="none" fill="#b11d23" fill-rule="evenodd"></path></g></svg>