<svg id="svg" version="1.1" xmlns="http://www.w3.org/2000/svg" xmlns:xlink="http://www.w3.org/1999/xlink" width="400" height="259.95525727069355" viewBox="0, 0, 400,259.95525727069355"><g id="svgg"><path id="path0" d="M195.319 47.568 C 195.319 47.804,193.784 48.211,191.743 48.515 C 190.995 48.627,190.637 48.585,190.637 48.385 C 190.637 47.966,188.277 48.123,188.112 48.553 C 188.040 48.739,187.877 48.827,187.749 48.748 C 187.621 48.669,187.516 48.728,187.516 48.879 C 187.516 49.031,187.179 49.155,186.766 49.155 C 186.353 49.155,185.680 49.330,185.270 49.543 C 184.861 49.757,184.272 49.932,183.962 49.933 C 183.652 49.934,183.359 50.051,183.312 50.193 C 183.264 50.335,182.903 50.477,182.510 50.510 C 182.116 50.542,181.795 50.647,181.795 50.744 C 181.795 50.893,181.476 51.017,180.169 51.377 C 180.062 51.406,179.798 51.445,179.584 51.463 C 179.369 51.481,179.194 51.691,179.194 51.929 C 179.194 52.167,179.118 52.286,179.025 52.194 C 178.870 52.039,178.026 52.833,177.842 53.306 C 177.732 53.589,174.859 55.397,174.519 55.397 C 174.233 55.397,173.955 55.657,168.493 61.028 C 164.566 64.891,164.233 65.272,163.203 67.087 C 162.753 67.881,161.895 69.304,161.296 70.249 C 160.698 71.194,160.208 72.059,160.208 72.170 C 160.208 72.281,159.722 73.321,159.129 74.482 C 158.535 75.643,157.959 76.944,157.849 77.373 C 156.968 80.807,156.320 83.647,156.053 85.247 C 155.879 86.287,155.573 87.303,155.372 87.504 C 154.922 87.954,154.831 97.510,155.273 97.952 C 155.833 98.512,156.092 102.565,155.591 102.936 C 155.230 103.204,155.209 103.314,155.485 103.485 C 155.675 103.603,155.808 103.776,155.780 103.870 C 155.605 104.453,156.126 106.372,156.459 106.372 C 156.669 106.372,156.956 106.694,157.099 107.087 C 157.241 107.480,157.465 108.036,157.596 108.322 C 158.239 109.729,158.908 111.404,158.908 111.609 C 158.908 112.036,161.531 117.423,161.867 117.685 C 162.050 117.828,162.648 118.586,163.197 119.369 C 163.746 120.153,164.803 121.510,165.546 122.386 C 166.289 123.261,167.403 124.724,168.023 125.636 C 169.085 127.201,170.235 128.477,170.584 128.480 C 170.671 128.480,171.107 128.824,171.555 129.244 C 172.063 129.720,172.552 129.959,172.855 129.881 C 173.161 129.802,173.944 130.194,174.963 130.938 C 175.855 131.588,176.676 132.120,176.787 132.120 C 176.899 132.120,177.209 132.412,177.478 132.770 C 177.747 133.127,178.124 133.420,178.318 133.420 C 178.511 133.420,178.815 133.654,178.994 133.940 C 179.173 134.226,179.517 134.460,179.759 134.460 C 180.001 134.460,180.273 134.694,180.364 134.980 C 180.539 135.531,181.425 135.700,181.587 135.213 C 181.678 134.941,187.522 136.695,188.618 137.323 C 188.866 137.465,189.367 137.581,189.730 137.581 C 190.195 137.581,190.463 137.774,190.637 138.231 L 190.884 138.882 197.507 138.882 C 201.642 138.882,204.191 138.784,204.291 138.622 C 204.380 138.479,204.679 138.362,204.957 138.362 C 205.234 138.362,205.462 138.479,205.462 138.622 C 205.462 139.098,206.210 138.890,206.868 138.231 C 207.742 137.358,208.944 137.357,209.515 138.229 C 209.749 138.586,210.052 138.808,210.189 138.723 C 210.326 138.639,210.376 138.507,210.300 138.431 C 209.746 137.878,211.423 136.714,213.201 136.419 C 213.810 136.317,214.999 135.900,215.844 135.490 C 218.366 134.269,219.267 133.940,220.098 133.940 C 220.539 133.940,221.263 133.653,221.740 133.290 C 222.208 132.932,222.775 132.640,223.000 132.640 C 223.224 132.640,223.407 132.549,223.407 132.439 C 223.407 132.328,223.813 132.019,224.310 131.752 C 224.806 131.484,225.151 131.165,225.075 131.042 C 224.999 130.920,225.098 130.819,225.295 130.819 C 225.591 130.819,227.338 129.078,228.035 128.088 C 228.344 127.651,230.898 125.618,231.140 125.618 C 231.757 125.618,234.092 123.032,234.665 121.712 C 235.008 120.924,235.934 119.285,236.724 118.071 C 237.513 116.858,238.400 115.397,238.694 114.824 C 239.448 113.359,240.973 111.281,241.159 111.466 C 241.375 111.683,241.869 109.806,241.871 108.760 C 241.872 108.013,242.392 105.442,243.204 102.170 C 243.381 101.455,243.628 101.153,244.198 100.955 C 245.001 100.675,245.070 99.723,244.307 99.430 C 243.769 99.223,243.885 98.388,244.473 98.234 C 245.302 98.018,245.274 89.387,244.443 88.714 C 244.027 88.377,243.769 87.606,243.384 85.552 C 241.180 73.790,236.288 65.544,226.731 57.477 C 225.630 56.547,224.655 55.532,224.564 55.220 C 224.389 54.616,223.782 54.255,223.370 54.509 C 223.232 54.595,222.580 54.244,221.920 53.730 C 221.260 53.216,220.470 52.796,220.163 52.796 C 219.082 52.796,215.966 50.662,216.287 50.142 C 216.358 50.028,215.970 49.931,215.425 49.927 C 214.880 49.922,214.207 49.747,213.929 49.537 C 213.652 49.327,212.966 49.155,212.406 49.155 C 211.686 49.155,211.425 49.057,211.515 48.822 C 211.673 48.412,210.441 48.414,210.186 48.825 C 209.903 49.281,204.487 48.214,203.784 47.563 C 203.458 47.261,195.319 47.266,195.319 47.568 M208.057 52.667 C 223.347 56.088,235.962 68.807,239.270 84.135 C 246.763 118.852,211.265 146.562,180.505 130.006 C 153.208 115.314,151.477 75.890,177.373 58.668 C 183.286 54.735,185.854 53.778,194.798 52.172 C 196.419 51.881,206.172 52.245,208.057 52.667 M223.696 70.806 C 223.577 71.128,223.316 71.857,223.118 72.425 C 222.918 72.998,222.032 74.230,221.131 75.188 C 219.334 77.099,219.157 77.624,220.221 77.877 C 220.614 77.971,221.549 78.297,222.298 78.602 C 224.258 79.400,225.545 78.403,226.527 75.327 C 227.388 72.631,224.647 68.253,223.696 70.806 M176.723 78.729 C 172.239 79.350,166.861 82.868,165.376 86.153 C 163.733 89.787,164.830 95.710,167.622 98.283 C 169.577 100.085,174.122 101.690,176.088 101.273 C 180.465 100.344,182.843 98.751,184.396 95.707 C 185.554 93.437,183.429 89.719,181.983 91.485 C 177.220 97.302,168.905 97.014,168.328 91.012 C 167.843 85.966,175.404 82.477,184.135 83.718 C 190.110 84.568,191.440 84.781,192.978 85.134 C 195.031 85.606,198.976 86.174,200.367 86.198 C 201.315 86.215,201.494 86.088,202.968 84.364 C 203.839 83.345,204.813 82.361,205.132 82.176 C 205.759 81.815,206.115 81.050,205.853 80.627 C 205.758 80.473,204.363 80.364,202.491 80.364 C 200.731 80.364,198.660 80.244,197.890 80.096 C 192.288 79.025,180.218 78.246,176.723 78.729 M213.134 79.568 C 208.715 80.648,203.372 85.657,201.327 90.637 C 200.857 91.782,200.298 93.123,200.085 93.617 C 197.202 100.300,199.961 110.644,205.695 114.650 C 209.739 117.477,215.087 118.058,219.139 116.113 C 221.921 114.777,222.088 113.287,219.328 114.431 C 208.447 118.941,198.805 106.335,204.311 94.798 C 207.764 87.564,214.120 82.644,217.908 84.274 C 222.412 86.211,222.821 91.979,218.738 95.957 C 217.217 97.438,217.125 97.881,218.219 98.447 C 221.118 99.946,223.151 98.805,225.100 94.587 C 229.379 85.326,222.890 77.182,213.134 79.568 M187.656 86.243 C 187.388 86.511,187.274 86.898,187.364 87.230 C 187.764 88.706,187.825 94.442,187.515 101.319 C 187.063 111.351,187.545 114.794,189.607 116.262 C 191.451 117.575,192.659 116.643,191.795 114.575 C 191.476 113.812,191.410 112.788,191.479 109.666 C 191.562 105.884,191.813 103.920,193.260 95.750 C 194.126 90.860,194.154 89.784,193.453 88.427 C 192.492 86.567,188.744 85.156,187.656 86.243 " stroke="none" fill="#e0cdc9" fill-rule="evenodd"></path><path id="path1" d="M190.637 47.576 C 190.637 47.709,190.374 47.869,190.052 47.931 L 189.467 48.044 190.052 48.079 C 190.374 48.098,190.637 48.242,190.637 48.397 C 190.637 48.695,191.772 48.589,194.083 48.076 C 196.011 47.649,195.542 47.334,192.978 47.334 C 191.691 47.334,190.637 47.443,190.637 47.576 M203.784 47.563 C 204.560 48.281,209.912 49.282,210.207 48.764 C 210.419 48.394,211.443 48.540,211.443 48.940 C 211.443 49.075,211.567 49.109,211.719 49.015 C 212.133 48.759,211.176 48.132,210.357 48.123 C 209.974 48.118,209.484 47.939,209.270 47.724 C 208.974 47.428,208.236 47.334,206.208 47.334 C 204.658 47.334,203.641 47.430,203.784 47.563 M187.451 48.294 C 186.948 48.425,186.854 48.776,187.256 49.025 C 187.399 49.113,187.516 49.055,187.516 48.895 C 187.516 48.735,187.621 48.669,187.749 48.748 C 187.877 48.827,188.049 48.717,188.131 48.503 C 188.284 48.104,188.234 48.089,187.451 48.294 M213.929 49.537 C 214.207 49.747,214.551 49.918,214.694 49.918 C 214.837 49.918,214.727 49.747,214.450 49.537 C 214.172 49.327,213.828 49.155,213.685 49.155 C 213.542 49.155,213.652 49.327,213.929 49.537 M216.320 50.090 C 215.970 50.657,219.009 52.796,220.163 52.796 C 220.470 52.796,221.260 53.216,221.920 53.730 C 222.580 54.244,223.232 54.595,223.370 54.509 C 223.782 54.255,224.389 54.616,224.564 55.220 C 224.655 55.532,225.630 56.547,226.731 57.477 C 236.214 65.481,241.321 74.051,243.318 85.306 C 243.745 87.716,244.226 88.947,244.739 88.947 C 245.062 88.947,245.080 84.200,244.759 83.862 C 244.629 83.726,244.458 83.088,244.377 82.445 C 244.017 79.577,243.889 79.064,243.536 79.064 C 243.322 79.064,243.173 78.796,243.173 78.414 C 243.173 78.056,243.085 77.763,242.978 77.762 C 242.871 77.762,242.568 77.206,242.304 76.527 C 241.534 74.538,241.452 74.347,240.494 72.302 C 239.992 71.229,239.504 70.088,239.409 69.766 C 239.314 69.444,239.151 69.181,239.046 69.181 C 238.942 69.181,238.710 68.778,238.533 68.286 C 238.355 67.794,237.687 66.839,237.050 66.164 C 236.412 65.489,235.891 64.897,235.891 64.848 C 235.891 64.404,228.341 56.871,227.452 56.428 C 227.031 56.218,226.399 55.783,226.049 55.462 C 225.698 55.140,225.253 54.876,225.060 54.876 C 224.866 54.876,224.707 54.762,224.707 54.621 C 224.707 54.481,224.415 54.293,224.057 54.203 C 223.700 54.113,223.407 53.935,223.407 53.808 C 223.407 53.680,223.241 53.576,223.039 53.576 C 222.836 53.576,222.631 53.477,222.583 53.355 C 222.500 53.142,221.221 52.253,219.268 51.052 C 218.755 50.736,217.965 50.473,217.512 50.466 C 217.059 50.460,216.641 50.315,216.584 50.143 C 216.520 49.949,216.419 49.929,216.320 50.090 M194.798 52.172 C 185.854 53.778,183.286 54.735,177.373 58.668 C 151.477 75.890,153.208 115.314,180.505 130.006 C 211.265 146.562,246.763 118.852,239.270 84.135 C 235.962 68.807,223.347 56.088,208.057 52.667 C 206.172 52.245,196.419 51.881,194.798 52.172 M176.138 53.352 C 175.244 53.941,174.512 54.525,174.512 54.650 C 174.512 54.775,174.345 54.876,174.141 54.876 C 173.937 54.876,173.540 55.169,173.258 55.527 C 172.977 55.884,172.618 56.177,172.459 56.177 C 172.301 56.177,172.172 56.294,172.172 56.437 C 172.172 56.580,171.992 56.697,171.773 56.697 C 171.554 56.697,171.308 56.873,171.225 57.087 C 171.143 57.302,170.963 57.477,170.825 57.477 C 170.687 57.477,170.420 57.624,170.232 57.802 C 169.495 58.501,168.775 59.038,168.573 59.038 C 168.316 59.038,167.230 60.165,167.230 60.431 C 167.230 60.536,166.949 60.924,166.605 61.295 C 166.261 61.666,165.822 62.268,165.630 62.633 C 165.437 62.998,165.046 63.549,164.759 63.858 C 163.387 65.339,162.809 66.027,162.809 66.181 C 162.809 66.273,162.457 66.722,162.028 67.179 C 161.598 67.636,161.181 68.215,161.100 68.466 C 161.019 68.716,160.846 68.921,160.714 68.921 C 160.357 68.921,159.168 70.912,159.168 71.508 C 159.168 71.793,158.948 72.418,158.678 72.897 C 158.409 73.376,158.102 74.287,157.996 74.921 C 157.891 75.554,157.584 76.383,157.315 76.763 C 157.047 77.143,156.827 77.686,156.827 77.971 C 156.827 78.255,156.670 78.548,156.477 78.622 C 156.285 78.696,155.975 79.323,155.789 80.015 C 155.602 80.708,155.350 81.386,155.228 81.521 C 154.918 81.867,154.945 87.646,155.257 87.646 C 155.552 87.646,155.922 86.344,156.291 83.999 C 156.438 83.066,156.805 81.369,157.107 80.228 C 157.409 79.087,157.744 77.802,157.853 77.373 C 157.961 76.944,158.535 75.643,159.129 74.482 C 159.722 73.321,160.208 72.281,160.208 72.170 C 160.208 72.059,160.698 71.194,161.296 70.249 C 161.895 69.304,162.753 67.881,163.203 67.087 C 164.233 65.272,164.566 64.891,168.493 61.028 C 173.955 55.657,174.233 55.397,174.519 55.397 C 174.880 55.397,177.736 53.580,177.852 53.278 C 177.900 53.151,178.113 52.873,178.325 52.661 C 179.145 51.841,177.772 52.275,176.138 53.352 M225.896 71.243 C 228.112 74.591,225.511 79.910,222.298 78.602 C 221.549 78.297,220.614 77.971,220.221 77.877 C 219.157 77.624,219.334 77.099,221.131 75.188 C 222.032 74.230,222.918 72.998,223.118 72.425 C 223.876 70.254,223.897 70.221,224.567 70.221 C 225.039 70.221,225.408 70.505,225.896 71.243 M186.736 78.801 C 190.633 79.121,196.120 79.758,197.890 80.096 C 198.660 80.244,200.731 80.364,202.491 80.364 C 204.363 80.364,205.758 80.473,205.853 80.627 C 206.115 81.050,205.759 81.815,205.132 82.176 C 204.813 82.361,203.839 83.345,202.968 84.364 C 201.494 86.088,201.315 86.215,200.367 86.198 C 198.976 86.174,195.031 85.606,192.978 85.134 C 191.440 84.781,190.110 84.568,184.135 83.718 C 175.404 82.477,167.843 85.966,168.328 91.012 C 168.905 97.014,177.220 97.302,181.983 91.485 C 183.429 89.719,185.554 93.437,184.396 95.707 C 182.843 98.751,180.465 100.344,176.088 101.273 C 175.142 101.474,171.442 100.667,170.003 99.947 C 163.852 96.870,162.639 87.947,167.721 83.162 C 172.063 79.073,176.802 77.986,186.736 78.801 M220.443 79.831 C 226.049 81.802,228.061 88.177,225.100 94.587 C 223.151 98.805,221.118 99.946,218.219 98.447 C 217.125 97.881,217.217 97.438,218.738 95.957 C 222.821 91.979,222.412 86.211,217.908 84.274 C 214.120 82.644,207.764 87.564,204.311 94.798 C 198.805 106.335,208.447 118.941,219.328 114.431 C 222.088 113.287,221.921 114.777,219.139 116.113 C 215.087 118.058,209.739 117.477,205.695 114.650 C 199.961 110.644,197.202 100.300,200.085 93.617 C 200.298 93.123,200.857 91.782,201.327 90.637 C 203.166 86.159,206.357 82.841,211.233 80.335 C 213.485 79.177,217.896 78.936,220.443 79.831 M191.678 86.694 C 194.106 87.860,194.380 89.426,193.260 95.750 C 191.813 103.920,191.562 105.884,191.479 109.666 C 191.410 112.788,191.476 113.812,191.795 114.575 C 192.659 116.643,191.451 117.575,189.607 116.262 C 187.545 114.794,187.063 111.351,187.515 101.319 C 187.825 94.442,187.764 88.706,187.364 87.230 C 186.968 85.767,189.176 85.493,191.678 86.694 M155.062 100.633 C 155.122 103.005,155.215 103.620,155.527 103.705 C 155.872 103.799,155.873 103.780,155.528 103.541 C 155.188 103.305,155.196 103.229,155.591 102.936 C 155.995 102.636,156.017 102.368,155.791 100.409 C 155.397 96.987,154.975 97.116,155.062 100.633 M244.408 98.229 C 243.928 98.354,243.762 99.350,244.222 99.350 C 244.369 99.350,244.596 99.613,244.725 99.935 C 244.916 100.410,244.964 100.288,244.977 99.285 C 244.986 98.605,244.964 98.063,244.928 98.080 C 244.893 98.096,244.659 98.163,244.408 98.229 M244.153 100.969 C 243.388 101.229,243.423 101.137,242.420 105.509 C 241.839 108.046,241.706 109.887,242.123 109.629 C 242.260 109.544,242.449 109.068,242.542 108.571 C 242.635 108.073,242.816 107.602,242.942 107.524 C 243.069 107.446,243.173 107.108,243.173 106.775 C 243.173 106.441,243.349 106.100,243.563 106.018 C 243.791 105.930,243.953 105.541,243.953 105.080 C 243.953 104.646,244.070 104.291,244.213 104.291 C 244.356 104.291,244.473 103.815,244.473 103.234 C 244.473 102.652,244.598 101.944,244.750 101.659 C 245.151 100.911,244.963 100.694,244.153 100.969 M155.557 104.573 C 155.505 105.727,156.111 108.234,156.478 108.374 C 156.676 108.450,156.827 108.892,156.827 109.394 C 156.827 110.265,157.160 111.078,157.802 111.777 C 157.981 111.972,158.127 112.334,158.127 112.583 C 158.127 112.832,158.362 113.287,158.648 113.594 C 158.934 113.901,159.168 114.391,159.168 114.684 C 159.168 114.976,159.272 115.215,159.400 115.215 C 159.527 115.215,159.711 115.536,159.808 115.930 C 159.906 116.323,160.253 116.938,160.580 117.295 C 160.908 117.653,161.338 118.326,161.536 118.791 C 161.734 119.256,161.965 119.636,162.050 119.636 C 162.136 119.636,162.356 120.093,162.541 120.653 C 162.871 121.654,163.225 122.055,166.320 124.940 C 169.220 127.644,168.773 126.190,165.529 122.366 C 164.796 121.501,163.746 120.153,163.197 119.369 C 162.648 118.586,162.050 117.828,161.867 117.685 C 161.531 117.423,158.908 112.036,158.908 111.609 C 158.908 111.404,158.239 109.729,157.596 108.322 C 157.465 108.036,157.241 107.480,157.099 107.087 C 156.956 106.694,156.674 106.372,156.472 106.372 C 156.242 106.372,156.006 105.908,155.846 105.137 C 155.683 104.354,155.577 104.148,155.557 104.573 M239.867 112.955 C 239.280 113.840,238.654 114.857,238.476 115.215 C 238.299 115.572,237.545 116.803,236.800 117.949 C 235.145 120.500,234.503 121.716,234.706 121.919 C 234.873 122.086,237.451 119.403,237.451 119.062 C 237.451 118.948,237.919 118.401,238.492 117.845 C 239.064 117.290,239.532 116.645,239.532 116.412 C 239.532 116.179,239.644 115.785,239.782 115.536 C 241.736 112.005,241.801 110.042,239.867 112.955 M231.329 125.448 C 230.643 125.835,228.245 127.769,228.131 128.026 C 228.083 128.135,227.732 128.547,227.351 128.944 C 226.970 129.340,226.424 129.945,226.138 130.289 L 225.618 130.914 226.325 130.411 C 226.714 130.135,227.035 129.821,227.040 129.714 C 227.044 129.607,227.173 129.519,227.326 129.519 C 227.855 129.519,230.169 127.647,230.169 127.218 C 230.169 127.077,230.257 126.921,230.364 126.872 C 230.593 126.767,232.141 125.086,231.973 125.123 C 231.911 125.137,231.621 125.283,231.329 125.448 M172.462 130.015 C 172.169 130.200,172.195 130.293,172.595 130.507 C 172.866 130.653,173.534 131.192,174.079 131.706 C 174.624 132.219,175.237 132.640,175.441 132.640 C 175.646 132.640,175.813 132.728,175.814 132.835 C 175.814 132.942,176.370 133.255,177.049 133.529 C 177.728 133.804,178.563 134.243,178.904 134.504 C 179.245 134.766,179.684 134.980,179.879 134.980 C 180.074 134.980,180.234 135.117,180.234 135.284 C 180.234 135.451,180.295 135.526,180.370 135.451 C 180.632 135.189,180.175 134.460,179.749 134.460 C 179.512 134.460,179.173 134.226,178.994 133.940 C 178.815 133.654,178.511 133.420,178.318 133.420 C 178.124 133.420,177.747 133.127,177.478 132.770 C 177.209 132.412,176.899 132.120,176.787 132.120 C 176.676 132.120,175.861 131.593,174.976 130.949 C 173.299 129.729,173.056 129.639,172.462 130.015 M218.466 134.270 C 218.108 134.432,217.028 134.940,216.066 135.399 C 215.104 135.858,213.816 136.316,213.205 136.418 C 211.330 136.729,210.479 137.293,210.273 138.361 C 210.152 138.992,211.113 139.109,211.349 138.492 C 211.434 138.272,211.821 138.101,212.233 138.101 C 212.637 138.101,213.142 137.926,213.357 137.711 C 213.571 137.497,213.870 137.321,214.020 137.321 C 214.532 137.321,217.815 136.177,217.902 135.969 C 217.950 135.854,218.132 135.761,218.306 135.761 C 218.481 135.761,219.021 135.351,219.506 134.850 C 220.479 133.846,219.996 133.577,218.466 134.270 M181.329 135.381 C 181.052 135.695,181.063 135.761,181.394 135.761 C 181.614 135.761,181.795 135.878,181.795 136.021 C 181.795 136.164,181.955 136.281,182.152 136.281 C 182.574 136.281,184.845 137.516,185.058 137.862 C 185.140 137.994,185.726 138.101,186.361 138.101 C 187.147 138.101,187.495 138.205,187.451 138.427 C 187.406 138.655,187.907 138.774,189.138 138.828 C 190.961 138.908,191.575 137.848,189.829 137.635 C 189.487 137.594,188.973 137.450,188.687 137.317 C 188.146 137.064,181.915 134.973,181.755 134.990 C 181.705 134.996,181.514 135.171,181.329 135.381 M207.087 137.977 C 206.126 138.657,206.408 138.882,208.224 138.882 L 209.946 138.882 209.560 138.296 C 209.083 137.573,207.878 137.418,207.087 137.977 M204.291 138.622 C 204.200 138.769,204.419 138.882,204.796 138.882 C 205.162 138.882,205.462 138.765,205.462 138.622 C 205.462 138.479,205.234 138.362,204.957 138.362 C 204.679 138.362,204.380 138.479,204.291 138.622 M71.717 145.552 C 71.323 145.622,71.001 145.788,71.001 145.921 C 71.001 146.055,70.735 146.164,70.409 146.164 C 70.082 146.164,69.647 146.398,69.441 146.684 C 69.235 146.970,68.934 147.204,68.773 147.204 C 68.388 147.204,67.360 148.102,67.360 148.438 C 67.360 148.583,67.185 148.847,66.970 149.025 C 66.756 149.203,66.580 149.568,66.580 149.837 C 66.580 150.105,66.463 150.325,66.320 150.325 C 66.177 150.325,66.060 150.735,66.060 151.235 C 66.060 151.736,65.943 152.146,65.800 152.146 C 65.649 152.146,65.540 152.969,65.540 154.096 C 65.540 155.223,65.649 156.047,65.800 156.047 C 65.943 156.047,66.060 156.456,66.060 156.957 C 66.060 157.458,66.177 157.867,66.320 157.867 C 66.463 157.867,66.580 158.037,66.580 158.245 C 66.580 158.453,67.171 159.214,67.893 159.936 C 68.615 160.658,69.376 161.248,69.583 161.248 C 69.791 161.248,69.961 161.365,69.961 161.508 C 69.961 161.651,70.195 161.769,70.481 161.769 C 70.767 161.769,71.001 161.886,71.001 162.029 C 71.001 162.172,71.284 162.289,71.630 162.289 C 71.976 162.289,72.300 162.413,72.351 162.566 C 72.401 162.718,72.938 162.909,73.543 162.990 C 74.148 163.071,74.642 163.239,74.642 163.363 C 74.642 163.487,74.935 163.589,75.293 163.589 C 75.650 163.589,75.943 163.679,75.943 163.788 C 75.943 163.971,77.817 164.889,78.190 164.889 C 78.280 164.889,78.940 165.486,79.658 166.215 L 80.962 167.540 80.962 169.778 C 80.962 171.233,80.858 172.050,80.663 172.115 C 80.499 172.170,80.364 172.328,80.364 172.465 C 80.364 172.603,80.083 172.996,79.741 173.339 C 79.398 173.682,79.075 174.088,79.024 174.242 C 78.972 174.396,78.317 174.595,77.567 174.683 C 76.817 174.772,76.203 174.946,76.203 175.069 C 76.203 175.362,74.195 175.360,74.013 175.067 C 73.937 174.943,73.286 174.763,72.568 174.668 C 71.849 174.572,71.261 174.381,71.261 174.243 C 71.261 174.105,71.129 173.992,70.967 173.992 C 70.609 173.992,69.494 172.737,69.292 172.107 C 69.211 171.856,69.037 171.651,68.903 171.651 C 68.770 171.651,68.661 171.476,68.661 171.261 C 68.661 171.047,68.555 170.871,68.427 170.871 C 68.298 170.871,68.111 170.052,68.010 169.051 L 67.828 167.230 66.684 167.230 L 65.540 167.230 65.540 171.651 C 65.540 175.899,65.560 176.073,66.060 176.073 C 66.346 176.073,66.580 176.190,66.580 176.333 C 66.580 176.476,66.921 176.593,67.339 176.593 C 67.756 176.593,68.146 176.739,68.205 176.918 C 68.288 177.165,69.681 177.243,73.992 177.243 C 78.303 177.243,79.696 177.165,79.778 176.918 C 79.838 176.739,80.170 176.593,80.516 176.593 C 80.862 176.593,81.144 176.476,81.144 176.333 C 81.144 176.190,81.329 176.073,81.555 176.073 C 82.089 176.073,84.265 173.896,84.265 173.363 C 84.265 173.137,84.354 172.952,84.462 172.952 C 85.869 172.952,85.759 165.406,84.330 163.896 C 84.151 163.707,84.005 163.473,84.005 163.375 C 84.004 163.004,82.809 161.835,82.250 161.658 C 81.928 161.557,81.664 161.364,81.664 161.231 C 81.664 161.097,81.489 160.988,81.274 160.988 C 81.060 160.988,80.884 160.871,80.884 160.728 C 80.884 160.585,80.660 160.468,80.386 160.468 C 80.112 160.468,79.846 160.344,79.795 160.191 C 79.744 160.039,79.208 159.848,78.603 159.767 C 77.998 159.686,77.503 159.518,77.503 159.394 C 77.503 159.269,77.328 159.168,77.113 159.168 C 76.899 159.168,76.723 159.064,76.723 158.937 C 76.723 158.810,76.196 158.628,75.553 158.531 C 74.909 158.435,74.382 158.246,74.382 158.112 C 74.382 157.977,74.102 157.867,73.760 157.867 C 73.418 157.867,73.068 157.686,72.983 157.465 C 72.898 157.244,72.481 156.941,72.056 156.793 C 71.630 156.645,71.211 156.299,71.124 156.025 C 71.037 155.751,70.857 155.527,70.724 155.527 C 70.590 155.527,70.481 155.351,70.481 155.137 C 70.481 154.922,70.364 154.746,70.221 154.746 C 70.069 154.746,69.961 153.879,69.961 152.666 C 69.961 151.452,70.069 150.585,70.221 150.585 C 70.364 150.585,70.481 150.410,70.481 150.195 C 70.481 149.980,70.590 149.805,70.724 149.805 C 70.857 149.805,71.034 149.593,71.116 149.334 C 71.281 148.813,72.941 147.984,73.820 147.984 C 74.129 147.984,74.382 147.867,74.382 147.724 C 74.382 147.581,74.909 147.464,75.553 147.464 C 76.196 147.464,76.723 147.581,76.723 147.724 C 76.723 147.867,77.133 147.984,77.633 147.984 C 78.134 147.984,78.544 148.094,78.544 148.227 C 78.544 148.360,78.801 148.551,79.117 148.651 C 79.706 148.838,80.364 149.379,80.364 149.675 C 80.364 149.767,80.540 150.018,80.754 150.232 C 80.969 150.447,81.144 150.907,81.144 151.254 C 81.144 151.601,81.261 151.886,81.404 151.886 C 81.547 151.886,81.664 152.295,81.664 152.796 C 81.664 153.296,81.782 153.706,81.925 153.706 C 82.068 153.706,82.185 153.940,82.185 154.226 C 82.185 154.663,82.358 154.746,83.263 154.746 L 84.341 154.746 84.203 150.857 C 84.057 146.746,83.876 146.164,82.745 146.164 C 82.461 146.164,82.184 146.032,82.130 145.870 C 82.029 145.567,73.169 145.297,71.717 145.552 M161.183 145.557 C 160.790 145.624,160.468 145.788,160.468 145.921 C 160.468 146.055,160.219 146.164,159.913 146.164 C 159.608 146.164,159.170 146.381,158.938 146.647 C 158.707 146.912,158.254 147.213,157.932 147.315 C 157.611 147.416,157.347 147.608,157.347 147.742 C 157.347 147.875,157.176 147.984,156.966 147.984 C 156.522 147.984,155.007 149.395,155.007 149.809 C 155.007 149.963,154.737 150.348,154.407 150.663 C 153.697 151.340,152.926 152.911,152.926 153.680 C 152.926 153.981,152.809 154.226,152.666 154.226 C 152.523 154.226,152.406 154.519,152.406 154.876 C 152.406 155.234,152.301 155.527,152.173 155.527 C 151.770 155.527,151.562 157.605,151.562 161.638 C 151.562 165.672,151.770 167.750,152.173 167.750 C 152.301 167.750,152.406 168.043,152.406 168.401 C 152.406 168.758,152.508 169.051,152.633 169.051 C 152.757 169.051,152.934 169.519,153.026 170.091 C 153.117 170.663,153.308 171.131,153.449 171.131 C 153.590 171.131,153.706 171.290,153.706 171.483 C 153.706 171.677,153.999 172.151,154.356 172.537 C 154.714 172.923,155.007 173.329,155.007 173.439 C 155.007 173.665,156.224 174.772,156.473 174.772 C 156.563 174.772,156.825 174.990,157.057 175.255 C 157.288 175.521,157.741 175.821,158.062 175.923 C 158.384 176.025,158.648 176.217,158.648 176.350 C 158.648 176.484,158.930 176.593,159.276 176.593 C 159.622 176.593,159.953 176.739,160.013 176.918 C 160.095 177.163,161.332 177.243,165.020 177.243 C 168.707 177.243,169.945 177.163,170.026 176.918 C 170.086 176.739,170.359 176.593,170.633 176.593 C 170.907 176.593,171.131 176.489,171.131 176.361 C 171.131 176.234,171.424 176.056,171.782 175.966 C 172.139 175.876,172.432 175.688,172.432 175.548 C 172.432 175.407,172.658 175.293,172.934 175.293 C 173.211 175.293,173.511 175.059,173.602 174.772 C 173.693 174.486,173.871 174.252,173.998 174.252 C 174.210 174.252,174.946 173.551,175.748 172.585 C 175.927 172.370,176.073 172.072,176.073 171.923 C 176.073 171.773,176.185 171.651,176.321 171.651 C 176.458 171.651,176.646 171.242,176.740 170.741 C 176.834 170.241,177.015 169.831,177.142 169.831 C 177.269 169.831,177.373 169.655,177.373 169.441 C 177.373 169.226,177.490 169.051,177.633 169.051 C 177.776 169.051,177.893 168.782,177.893 168.453 C 177.893 168.124,178.040 167.708,178.218 167.529 C 178.460 167.287,178.544 165.629,178.544 161.062 C 178.544 156.379,178.466 154.894,178.218 154.811 C 178.040 154.752,177.893 154.420,177.893 154.075 C 177.893 153.729,177.776 153.446,177.633 153.446 C 177.490 153.446,177.373 153.212,177.373 152.926 C 177.373 152.640,177.261 152.406,177.125 152.406 C 176.988 152.406,176.801 152.000,176.708 151.504 C 176.603 150.946,176.351 150.543,176.046 150.446 C 175.774 150.360,175.553 150.088,175.553 149.842 C 175.553 149.325,173.762 147.591,172.968 147.339 C 172.673 147.246,172.432 147.060,172.432 146.927 C 172.432 146.793,172.256 146.684,172.042 146.684 C 171.827 146.684,171.651 146.567,171.651 146.424 C 171.651 146.281,171.382 146.164,171.053 146.164 C 170.724 146.164,170.309 146.018,170.130 145.839 C 169.802 145.511,162.758 145.289,161.183 145.557 M204.551 145.621 C 203.163 145.979,202.601 146.220,202.601 146.454 C 202.601 146.581,202.367 146.684,202.081 146.684 C 201.795 146.684,201.560 146.801,201.560 146.944 C 201.560 147.087,201.390 147.204,201.182 147.204 C 200.974 147.204,200.511 147.497,200.154 147.854 C 199.796 148.212,199.441 148.505,199.364 148.505 C 199.047 148.505,197.919 149.665,197.919 149.990 C 197.919 150.183,197.744 150.409,197.529 150.491 C 197.315 150.573,197.139 150.862,197.139 151.133 C 197.139 151.404,197.047 151.625,196.935 151.625 C 196.614 151.625,195.839 153.079,195.839 153.681 C 195.839 153.981,195.722 154.226,195.579 154.226 C 195.436 154.226,195.319 154.509,195.319 154.855 C 195.319 155.200,195.172 155.532,194.993 155.592 C 194.746 155.674,194.668 157.145,194.668 161.769 C 194.668 166.392,194.746 167.863,194.993 167.945 C 195.172 168.005,195.319 168.337,195.319 168.682 C 195.319 169.028,195.423 169.311,195.550 169.311 C 195.677 169.311,195.858 169.720,195.952 170.221 C 196.046 170.722,196.234 171.131,196.371 171.131 C 196.507 171.131,196.619 171.290,196.619 171.484 C 196.619 171.779,197.580 172.852,199.268 174.444 C 199.456 174.621,199.844 175.010,200.130 175.309 C 200.416 175.607,200.972 175.916,201.365 175.994 C 201.759 176.073,202.081 176.212,202.081 176.302 C 202.081 177.207,214.984 177.805,215.281 176.914 C 215.340 176.737,215.729 176.593,216.147 176.593 C 216.564 176.593,216.905 176.476,216.905 176.333 C 216.905 176.190,217.081 176.073,217.295 176.073 C 217.568 176.073,217.685 175.798,217.685 175.163 C 217.685 174.662,217.802 174.252,217.945 174.252 C 218.106 174.252,218.205 172.909,218.205 170.741 L 218.205 167.230 217.035 167.230 C 215.968 167.230,215.865 167.286,215.865 167.865 C 215.865 168.214,215.763 168.563,215.639 168.639 C 215.515 168.716,215.335 169.367,215.240 170.085 C 215.145 170.804,214.954 171.391,214.815 171.391 C 214.677 171.391,214.564 171.567,214.564 171.782 C 214.564 171.996,214.447 172.172,214.304 172.172 C 214.161 172.172,214.044 172.329,214.044 172.522 C 214.044 173.028,213.143 173.992,212.670 173.992 C 212.448 173.992,212.224 174.121,212.172 174.278 C 212.119 174.435,211.524 174.626,210.850 174.702 C 210.175 174.778,209.623 174.942,209.623 175.066 C 209.623 175.191,209.038 175.293,208.322 175.293 C 207.607 175.293,207.022 175.192,207.022 175.069 C 207.022 174.946,206.408 174.772,205.658 174.683 C 204.908 174.595,204.255 174.403,204.206 174.257 C 204.158 174.111,204.010 173.992,203.877 173.992 C 203.554 173.992,202.081 172.570,202.081 172.258 C 202.081 172.121,201.875 171.783,201.624 171.505 C 201.101 170.928,200.528 169.167,200.338 167.555 C 200.266 166.947,200.102 166.450,199.974 166.450 C 199.844 166.450,199.740 164.314,199.740 161.638 C 199.740 158.963,199.844 156.827,199.974 156.827 C 200.102 156.827,200.268 156.330,200.341 155.722 C 200.556 153.950,201.090 151.886,201.335 151.886 C 201.459 151.886,201.560 151.764,201.560 151.615 C 201.560 151.293,201.978 150.759,202.838 149.982 C 203.183 149.670,203.648 149.210,203.871 148.960 C 204.094 148.709,204.478 148.505,204.724 148.505 C 204.970 148.505,205.243 148.388,205.332 148.244 C 205.420 148.101,205.895 147.984,206.387 147.984 C 206.879 147.984,207.282 147.867,207.282 147.724 C 207.282 147.581,207.926 147.464,208.713 147.464 C 209.499 147.464,210.143 147.581,210.143 147.724 C 210.143 147.867,210.373 147.984,210.654 147.984 C 211.846 147.984,213.602 149.083,213.897 150.012 C 213.997 150.327,214.188 150.585,214.322 150.585 C 214.455 150.585,214.564 150.819,214.564 151.105 C 214.564 151.391,214.681 151.625,214.824 151.625 C 214.967 151.625,215.085 151.962,215.085 152.373 C 215.085 154.365,215.320 154.746,216.547 154.746 L 217.685 154.746 217.685 151.625 C 217.685 149.718,217.584 148.505,217.425 148.505 C 217.282 148.505,217.165 147.978,217.165 147.334 C 217.165 146.175,217.156 146.164,216.277 146.164 C 215.788 146.164,215.342 146.027,215.286 145.859 C 215.167 145.501,205.820 145.293,204.551 145.621 M232.510 145.558 C 232.152 145.629,231.748 145.795,231.612 145.926 C 231.477 146.057,231.161 146.164,230.912 146.164 C 230.663 146.164,230.306 146.379,230.119 146.642 C 229.932 146.905,229.457 147.200,229.064 147.297 C 228.670 147.394,228.349 147.589,228.349 147.729 C 228.349 147.870,228.230 147.984,228.086 147.984 C 227.620 147.984,226.268 149.357,226.268 149.830 C 226.268 150.083,226.050 150.359,225.785 150.443 C 225.519 150.528,225.085 151.121,224.821 151.761 C 224.557 152.402,224.248 152.926,224.134 152.926 C 224.020 152.926,223.927 153.218,223.927 153.576 C 223.927 153.934,223.816 154.226,223.680 154.226 C 223.544 154.226,223.353 154.928,223.256 155.787 C 223.159 156.645,222.978 157.347,222.853 157.347 C 222.545 157.347,222.564 165.302,222.874 165.868 C 223.009 166.117,223.192 166.873,223.279 167.549 C 223.366 168.225,223.547 168.847,223.682 168.930 C 223.817 169.013,223.927 169.367,223.927 169.716 C 223.927 170.065,224.044 170.351,224.187 170.351 C 224.330 170.351,224.447 170.527,224.447 170.741 C 224.447 170.956,224.564 171.131,224.707 171.131 C 224.850 171.131,224.967 171.357,224.967 171.633 C 224.967 171.908,225.260 172.364,225.618 172.645 C 225.975 172.927,226.272 173.257,226.277 173.379 C 226.293 173.791,227.258 174.772,227.647 174.772 C 227.859 174.772,228.102 174.954,228.187 175.175 C 228.272 175.396,228.694 175.700,229.125 175.851 C 229.556 176.001,229.909 176.229,229.909 176.358 C 229.909 176.487,230.192 176.593,230.537 176.593 C 230.883 176.593,231.215 176.739,231.275 176.918 C 231.356 177.163,232.594 177.243,236.281 177.243 C 239.968 177.243,241.206 177.163,241.287 176.918 C 241.347 176.739,241.620 176.593,241.894 176.593 C 242.168 176.593,242.393 176.489,242.393 176.361 C 242.393 176.234,242.685 176.056,243.043 175.966 C 243.401 175.876,243.693 175.688,243.693 175.548 C 243.693 175.407,243.820 175.293,243.976 175.293 C 244.394 175.293,247.074 172.471,247.074 172.030 C 247.074 171.822,247.191 171.651,247.334 171.651 C 247.477 171.651,247.594 171.476,247.594 171.261 C 247.594 171.047,247.711 170.871,247.854 170.871 C 247.997 170.871,248.114 170.637,248.114 170.351 C 248.114 170.065,248.230 169.831,248.371 169.831 C 248.513 169.831,248.703 169.363,248.795 168.791 C 248.886 168.218,249.063 167.750,249.188 167.750 C 249.313 167.750,249.415 167.341,249.415 166.840 C 249.415 166.339,249.532 165.930,249.675 165.930 C 249.839 165.930,249.935 164.196,249.935 161.248 C 249.935 158.301,249.839 156.567,249.675 156.567 C 249.532 156.567,249.415 156.157,249.415 155.657 C 249.415 155.156,249.311 154.746,249.184 154.746 C 249.057 154.746,248.875 154.220,248.778 153.576 C 248.682 152.932,248.493 152.406,248.359 152.406 C 248.224 152.406,248.114 152.230,248.114 152.016 C 248.114 151.801,247.997 151.625,247.854 151.625 C 247.711 151.625,247.594 151.404,247.594 151.133 C 247.594 150.862,247.419 150.573,247.204 150.491 C 246.990 150.409,246.814 150.153,246.814 149.923 C 246.814 149.433,244.786 147.464,244.282 147.464 C 244.092 147.464,243.869 147.289,243.787 147.074 C 243.705 146.860,243.416 146.684,243.145 146.684 C 242.874 146.684,242.653 146.567,242.653 146.424 C 242.653 146.281,242.370 146.164,242.024 146.164 C 241.679 146.164,241.347 146.018,241.288 145.840 C 241.177 145.508,233.927 145.275,232.510 145.558 M347.529 145.555 C 347.064 145.622,346.684 145.786,346.684 145.920 C 346.684 146.054,346.333 146.164,345.904 146.164 C 345.475 146.164,345.124 146.281,345.124 146.424 C 345.124 146.567,344.948 146.684,344.733 146.684 C 344.519 146.684,344.343 146.793,344.343 146.927 C 344.343 147.060,344.093 147.248,343.788 147.345 C 343.081 147.570,339.922 150.683,339.922 151.155 C 339.922 151.351,339.685 151.682,339.395 151.891 C 339.101 152.102,338.799 152.703,338.711 153.248 C 338.625 153.786,338.453 154.226,338.328 154.226 C 338.204 154.226,338.101 154.519,338.101 154.876 C 338.101 155.234,337.997 155.527,337.869 155.527 C 337.304 155.527,336.772 165.225,337.308 165.760 C 337.458 165.911,337.581 166.479,337.581 167.022 C 337.581 167.566,337.698 168.010,337.841 168.010 C 337.984 168.010,338.101 168.303,338.101 168.661 C 338.101 169.018,338.205 169.311,338.333 169.311 C 338.460 169.311,338.641 169.720,338.734 170.221 C 338.828 170.722,339.017 171.131,339.154 171.131 C 339.290 171.131,339.402 171.306,339.402 171.518 C 339.402 172.145,343.281 175.821,344.119 175.989 C 344.529 176.071,344.863 176.240,344.863 176.365 C 344.863 176.491,345.029 176.593,345.232 176.593 C 345.435 176.593,345.649 176.739,345.709 176.918 C 345.791 177.165,347.210 177.243,351.626 177.243 C 356.041 177.243,357.460 177.165,357.542 176.918 C 357.602 176.739,357.853 176.593,358.100 176.593 C 358.348 176.593,359.040 176.356,359.639 176.067 L 360.728 175.541 360.728 170.735 L 360.728 165.930 362.549 165.930 L 364.369 165.930 364.369 164.759 L 364.369 163.589 357.737 163.589 L 351.105 163.589 351.105 164.759 L 351.105 165.930 353.576 165.930 L 356.047 165.930 356.047 170.193 C 356.047 174.935,356.112 174.772,354.205 174.772 C 353.645 174.772,353.186 174.889,353.186 175.033 C 353.186 175.181,352.406 175.293,351.365 175.293 C 350.364 175.293,349.545 175.191,349.545 175.066 C 349.545 174.941,348.960 174.762,348.244 174.667 C 347.529 174.572,346.944 174.381,346.944 174.243 C 346.944 174.105,346.817 173.992,346.662 173.992 C 346.261 173.992,344.684 172.315,344.480 171.671 C 344.385 171.374,344.199 171.131,344.066 171.131 C 343.932 171.131,343.823 170.921,343.823 170.663 C 343.823 170.406,343.707 170.079,343.565 169.937 C 343.423 169.794,343.230 168.952,343.138 168.064 C 343.045 167.176,342.868 166.450,342.746 166.450 C 342.623 166.450,342.523 164.285,342.523 161.638 C 342.523 158.992,342.625 156.827,342.749 156.827 C 342.874 156.827,343.056 156.008,343.155 155.007 C 343.254 154.005,343.444 153.186,343.579 153.186 C 343.713 153.186,343.823 152.893,343.823 152.536 C 343.823 152.178,343.940 151.886,344.083 151.886 C 344.226 151.886,344.343 151.710,344.343 151.495 C 344.343 151.281,344.452 151.105,344.586 151.105 C 344.719 151.105,344.901 150.877,344.989 150.598 C 345.078 150.320,345.372 150.021,345.644 149.935 C 345.915 149.849,346.206 149.563,346.289 149.299 C 346.382 149.008,346.796 148.753,347.343 148.650 C 347.839 148.557,348.244 148.369,348.244 148.233 C 348.244 148.096,348.654 147.984,349.155 147.984 C 349.655 147.984,350.065 147.867,350.065 147.724 C 350.065 147.581,350.709 147.464,351.495 147.464 C 352.282 147.464,352.926 147.581,352.926 147.724 C 352.926 147.867,353.200 147.984,353.536 147.984 C 354.765 147.984,357.347 149.833,357.347 150.714 C 357.347 150.905,357.480 151.106,357.642 151.160 C 357.804 151.214,358.009 152.014,358.097 152.937 L 358.257 154.616 359.483 154.695 L 360.709 154.774 360.545 150.798 C 360.377 146.700,360.226 146.164,359.238 146.164 C 358.971 146.164,358.614 146.026,358.446 145.858 C 358.135 145.547,349.298 145.302,347.529 145.555 M8.843 148.375 C 8.843 149.675,8.736 150.585,8.583 150.585 C 8.427 150.585,8.322 151.582,8.322 153.056 L 8.322 155.527 9.363 155.527 C 10.299 155.527,10.403 155.462,10.403 154.876 C 10.403 154.519,10.520 154.226,10.663 154.226 C 10.806 154.226,10.923 153.817,10.923 153.316 C 10.923 152.815,11.040 152.406,11.183 152.406 C 11.326 152.406,11.443 152.113,11.443 151.756 C 11.443 151.398,11.560 151.105,11.704 151.105 C 11.847 151.105,11.964 150.897,11.964 150.643 C 11.964 150.178,12.807 149.285,13.245 149.285 C 13.375 149.285,13.521 149.165,13.570 149.018 C 13.619 148.871,14.857 148.677,16.322 148.588 L 18.986 148.426 18.986 161.469 L 18.986 174.512 16.515 174.512 L 14.044 174.512 14.044 175.553 L 14.044 176.593 21.196 176.593 L 28.349 176.593 28.349 175.553 L 28.349 174.512 26.138 174.512 L 23.927 174.512 23.927 161.470 L 23.927 148.427 26.333 148.597 C 27.656 148.691,28.778 148.884,28.825 149.026 C 28.873 149.168,29.074 149.285,29.271 149.285 C 29.979 149.285,31.194 150.787,31.368 151.877 C 31.461 152.460,31.639 153.000,31.764 153.077 C 31.888 153.154,31.990 153.736,31.990 154.372 L 31.990 155.527 33.225 155.527 L 34.460 155.527 34.373 151.431 C 34.325 149.178,34.179 147.295,34.048 147.248 C 33.917 147.200,33.810 146.936,33.810 146.662 C 33.810 146.178,33.456 146.164,21.326 146.164 L 8.843 146.164 8.843 148.375 M36.411 147.334 L 36.411 148.505 38.492 148.505 L 40.572 148.505 40.572 161.508 L 40.572 174.512 38.492 174.512 L 36.411 174.512 36.411 175.553 L 36.411 176.593 48.752 176.593 L 61.093 176.593 61.213 172.497 C 61.278 170.244,61.413 167.838,61.513 167.151 L 61.693 165.901 60.300 165.980 L 58.908 166.060 58.714 167.750 C 58.608 168.680,58.403 169.644,58.259 169.892 C 58.115 170.141,57.997 170.521,57.997 170.738 C 57.997 170.954,57.895 171.131,57.769 171.131 C 57.643 171.131,57.392 171.490,57.210 171.929 C 56.993 172.452,56.534 172.877,55.878 173.161 C 55.327 173.400,54.876 173.684,54.876 173.793 C 54.876 173.903,54.350 173.992,53.706 173.992 C 53.062 173.992,52.536 174.109,52.536 174.252 C 52.536 174.413,51.192 174.512,49.025 174.512 L 45.514 174.512 45.514 168.140 L 45.514 161.769 47.464 161.769 C 48.591 161.769,49.415 161.878,49.415 162.029 C 49.415 162.172,49.707 162.289,50.065 162.289 C 50.423 162.289,50.715 162.398,50.715 162.531 C 50.715 162.665,50.949 162.848,51.235 162.939 C 51.521 163.030,51.756 163.330,51.756 163.607 C 51.756 163.883,51.873 164.109,52.016 164.109 C 52.160 164.109,52.276 164.803,52.276 165.670 L 52.276 167.230 53.576 167.230 L 54.876 167.230 54.876 160.988 L 54.876 154.746 53.576 154.746 L 52.276 154.746 52.276 156.047 C 52.276 156.762,52.159 157.347,52.016 157.347 C 51.873 157.347,51.756 157.573,51.756 157.850 C 51.756 158.126,51.521 158.427,51.235 158.518 C 50.949 158.608,50.715 158.792,50.715 158.925 C 50.715 159.059,50.423 159.168,50.065 159.168 C 49.707 159.168,49.415 159.285,49.415 159.428 C 49.415 159.578,48.591 159.688,47.464 159.688 L 45.514 159.688 45.514 154.064 L 45.514 148.441 50.373 148.550 C 53.841 148.629,55.261 148.749,55.336 148.972 C 55.393 149.144,55.546 149.285,55.676 149.285 C 56.432 149.285,57.997 151.416,57.997 152.446 C 57.997 152.710,58.114 152.926,58.257 152.926 C 58.401 152.926,58.518 153.336,58.518 153.836 C 58.518 154.740,58.526 154.746,59.673 154.746 C 60.875 154.746,61.384 154.388,60.888 153.892 C 60.702 153.706,60.598 152.267,60.598 149.883 L 60.598 146.164 48.505 146.164 L 36.411 146.164 36.411 147.334 M100.910 146.814 C 100.910 147.172,100.800 147.464,100.666 147.464 C 100.532 147.464,100.343 147.991,100.246 148.635 C 100.150 149.278,99.967 149.805,99.840 149.805 C 99.714 149.805,99.610 150.098,99.610 150.455 C 99.610 150.813,99.493 151.105,99.350 151.105 C 99.207 151.105,99.090 151.332,99.090 151.610 C 99.090 151.888,98.986 152.179,98.859 152.257 C 98.732 152.336,98.551 152.811,98.457 153.313 C 98.363 153.815,98.174 154.226,98.038 154.226 C 97.901 154.226,97.789 154.512,97.789 154.861 C 97.789 155.210,97.682 155.562,97.552 155.643 C 97.421 155.723,97.235 156.257,97.139 156.828 C 97.042 157.400,96.857 157.867,96.726 157.867 C 96.596 157.867,96.489 158.160,96.489 158.518 C 96.489 158.875,96.372 159.168,96.229 159.168 C 96.086 159.168,95.969 159.395,95.969 159.673 C 95.969 159.950,95.862 160.243,95.731 160.324 C 95.601 160.405,95.411 160.968,95.309 161.575 C 95.208 162.182,95.051 162.737,94.962 162.809 C 94.555 163.133,94.123 164.219,93.977 165.285 C 93.889 165.926,93.716 166.450,93.593 166.450 C 93.469 166.450,93.368 166.625,93.368 166.840 C 93.368 167.055,93.251 167.230,93.108 167.230 C 92.965 167.230,92.848 167.523,92.848 167.880 C 92.848 168.238,92.738 168.531,92.604 168.531 C 92.469 168.531,92.281 169.057,92.184 169.701 C 92.088 170.345,91.905 170.871,91.778 170.871 C 91.651 170.871,91.547 171.164,91.547 171.521 C 91.547 171.879,91.443 172.172,91.316 172.172 C 91.189 172.172,90.929 172.698,90.739 173.342 L 90.394 174.512 88.500 174.512 L 86.606 174.512 86.606 175.553 L 86.606 176.593 91.938 176.593 L 97.269 176.593 97.269 175.553 L 97.269 174.512 95.364 174.512 L 93.458 174.512 93.573 173.732 C 93.636 173.303,93.762 172.952,93.854 172.952 C 93.946 172.952,94.177 172.572,94.367 172.107 C 94.557 171.642,94.812 171.027,94.935 170.741 C 95.058 170.455,95.233 169.841,95.324 169.376 C 95.415 168.911,95.598 168.531,95.729 168.531 C 95.861 168.531,95.969 168.238,95.969 167.880 C 95.969 167.523,96.086 167.230,96.229 167.230 C 96.372 167.230,96.489 166.996,96.489 166.710 C 96.489 166.211,96.662 166.190,100.799 166.190 C 105.382 166.190,105.852 166.309,105.852 167.472 C 105.852 167.768,105.959 168.010,106.089 168.010 C 106.219 168.010,106.405 168.478,106.502 169.049 C 106.598 169.621,106.784 170.154,106.915 170.235 C 107.045 170.316,107.152 170.667,107.152 171.017 C 107.152 171.366,107.269 171.651,107.412 171.651 C 107.555 171.651,107.672 171.876,107.672 172.150 C 107.672 172.424,107.771 172.687,107.891 172.735 C 108.012 172.783,108.184 173.202,108.275 173.667 L 108.440 174.512 106.495 174.512 L 104.551 174.512 104.551 175.553 L 104.551 176.593 116.385 176.593 L 128.218 176.593 128.218 175.553 L 128.218 174.512 126.138 174.512 L 124.057 174.512 124.078 162.094 C 124.092 153.455,124.178 149.893,124.360 150.390 C 124.503 150.783,124.728 151.105,124.859 151.105 C 124.990 151.105,125.098 151.281,125.098 151.495 C 125.098 151.710,125.203 151.886,125.332 151.886 C 125.461 151.886,125.690 152.238,125.840 152.669 C 125.990 153.100,126.294 153.522,126.516 153.607 C 126.737 153.692,126.918 153.983,126.918 154.254 C 126.918 154.525,127.022 154.746,127.150 154.746 C 127.277 154.746,127.455 155.039,127.545 155.397 C 127.635 155.754,127.823 156.047,127.963 156.047 C 128.104 156.047,128.218 156.222,128.218 156.437 C 128.218 156.651,128.328 156.827,128.461 156.827 C 128.594 156.827,128.787 157.090,128.888 157.412 C 128.990 157.734,129.290 158.187,129.556 158.418 C 129.822 158.649,130.039 158.957,130.039 159.101 C 130.039 159.246,130.215 159.510,130.429 159.688 C 130.644 159.866,130.819 160.231,130.819 160.500 C 130.819 160.769,130.936 160.988,131.079 160.988 C 131.222 160.988,131.339 161.164,131.339 161.378 C 131.339 161.593,131.449 161.769,131.582 161.769 C 131.715 161.769,131.892 161.982,131.975 162.243 C 132.058 162.504,132.329 162.949,132.578 163.232 C 133.158 163.893,133.615 164.606,133.937 165.351 C 134.077 165.677,134.370 166.011,134.586 166.094 C 134.803 166.177,134.980 166.467,134.980 166.738 C 134.980 167.009,135.095 167.230,135.236 167.230 C 135.376 167.230,135.564 167.523,135.654 167.880 C 135.744 168.238,135.921 168.531,136.049 168.531 C 136.177 168.531,136.281 168.706,136.281 168.921 C 136.281 169.135,136.376 169.311,136.493 169.311 C 136.609 169.311,136.900 169.720,137.139 170.221 C 137.378 170.722,137.692 171.131,137.837 171.131 C 137.983 171.131,138.101 171.365,138.101 171.651 C 138.101 171.938,138.211 172.172,138.344 172.172 C 138.477 172.172,138.670 172.435,138.771 172.757 C 138.873 173.079,139.157 173.518,139.402 173.732 C 139.647 173.947,139.931 174.386,140.032 174.707 C 140.134 175.029,140.326 175.293,140.460 175.293 C 140.593 175.293,140.702 175.468,140.702 175.683 C 140.702 175.897,140.819 176.073,140.962 176.073 C 141.105 176.073,141.222 176.307,141.222 176.593 C 141.222 177.055,141.396 177.113,142.783 177.113 L 144.343 177.113 144.343 162.809 L 144.343 148.505 146.294 148.505 L 148.244 148.505 148.244 147.334 L 148.244 146.164 142.638 146.164 L 137.031 146.164 137.111 147.269 L 137.191 148.375 139.207 148.450 L 141.222 148.526 141.222 157.618 C 141.222 163.506,141.131 166.710,140.962 166.710 C 140.819 166.710,140.702 166.534,140.702 166.320 C 140.702 166.105,140.587 165.930,140.447 165.930 C 140.307 165.930,140.119 165.637,140.029 165.280 C 139.939 164.922,139.761 164.629,139.634 164.629 C 139.506 164.629,139.402 164.476,139.402 164.288 C 139.402 164.101,139.182 163.711,138.913 163.423 C 138.645 163.135,138.344 162.645,138.246 162.334 C 138.147 162.023,137.957 161.769,137.824 161.769 C 137.690 161.769,137.581 161.593,137.581 161.378 C 137.581 161.164,137.472 160.988,137.339 160.988 C 137.205 160.988,137.013 160.725,136.911 160.403 C 136.810 160.081,136.509 159.629,136.244 159.397 C 135.978 159.166,135.761 158.844,135.761 158.682 C 135.761 158.520,135.646 158.388,135.506 158.388 C 135.365 158.388,135.176 158.092,135.086 157.731 C 134.995 157.370,134.719 156.931,134.473 156.756 C 134.226 156.580,133.951 156.142,133.862 155.782 C 133.773 155.421,133.462 154.870,133.170 154.557 C 132.878 154.244,132.640 153.866,132.640 153.717 C 132.640 153.568,132.534 153.446,132.405 153.446 C 132.276 153.446,132.048 153.093,131.897 152.662 C 131.747 152.231,131.443 151.809,131.222 151.724 C 131.000 151.639,130.819 151.361,130.819 151.105 C 130.819 150.850,130.644 150.573,130.429 150.491 C 130.215 150.409,130.039 150.147,130.039 149.909 C 130.039 149.671,129.822 149.287,129.556 149.055 C 129.290 148.824,128.999 148.401,128.907 148.114 C 128.816 147.828,128.464 147.272,128.125 146.879 L 127.508 146.164 122.532 146.164 L 117.555 146.164 117.555 147.334 L 117.555 148.505 119.506 148.505 L 121.456 148.505 121.456 161.508 L 121.456 174.512 117.797 174.512 C 113.907 174.512,113.394 174.363,113.394 173.231 C 113.394 172.934,113.290 172.692,113.163 172.692 C 113.037 172.692,112.854 172.165,112.757 171.521 C 112.661 170.878,112.472 170.351,112.338 170.351 C 112.203 170.351,112.094 170.059,112.094 169.701 C 112.094 169.343,111.990 169.051,111.863 169.051 C 111.736 169.051,111.554 168.527,111.458 167.886 C 111.362 167.246,111.173 166.654,111.038 166.571 C 110.904 166.487,110.793 166.215,110.793 165.966 C 110.793 165.424,110.214 164.114,109.972 164.111 C 109.879 164.110,109.721 163.524,109.623 162.809 C 109.525 162.094,109.338 161.508,109.208 161.508 C 109.079 161.508,108.973 161.216,108.973 160.858 C 108.973 160.501,108.856 160.208,108.713 160.208 C 108.570 160.208,108.453 159.857,108.453 159.428 C 108.453 158.999,108.337 158.648,108.196 158.648 C 108.054 158.648,107.864 158.179,107.772 157.607 C 107.681 157.035,107.504 156.567,107.379 156.567 C 107.254 156.567,107.152 156.281,107.152 155.932 C 107.152 155.583,107.050 155.234,106.926 155.158 C 106.802 155.081,106.625 154.547,106.533 153.972 C 106.441 153.397,106.250 152.926,106.109 152.926 C 105.967 152.926,105.852 152.633,105.852 152.276 C 105.852 151.918,105.735 151.625,105.592 151.625 C 105.449 151.625,105.332 151.333,105.332 150.975 C 105.332 150.618,105.228 150.325,105.101 150.325 C 104.974 150.325,104.789 149.781,104.689 149.117 C 104.360 146.921,103.696 146.164,102.099 146.164 C 101.004 146.164,100.910 146.215,100.910 146.814 M253.747 149.480 C 253.654 151.304,253.578 153.410,253.577 154.161 L 253.576 155.527 254.616 155.527 C 255.553 155.527,255.657 155.462,255.657 154.876 C 255.657 154.519,255.774 154.226,255.917 154.226 C 256.060 154.226,256.177 153.824,256.177 153.331 C 256.177 152.839,256.284 152.370,256.414 152.290 C 256.545 152.209,256.730 151.680,256.825 151.115 C 256.942 150.427,257.164 150.034,257.498 149.928 C 257.773 149.841,257.997 149.661,257.997 149.527 C 257.997 149.394,258.163 149.285,258.366 149.285 C 258.568 149.285,258.774 149.165,258.823 149.018 C 258.872 148.871,260.111 148.677,261.576 148.588 L 264.239 148.426 264.239 161.469 L 264.239 174.512 261.769 174.512 L 259.298 174.512 259.298 175.553 L 259.298 176.593 266.450 176.593 L 273.602 176.593 273.602 175.553 L 273.602 174.512 271.391 174.512 L 269.181 174.512 269.181 161.470 L 269.181 148.427 271.586 148.597 C 272.910 148.691,274.031 148.884,274.079 149.026 C 274.127 149.168,274.331 149.285,274.534 149.285 C 274.737 149.285,274.902 149.394,274.902 149.527 C 274.902 149.661,275.114 149.837,275.373 149.919 C 275.895 150.085,276.723 151.744,276.723 152.623 C 276.723 152.933,276.840 153.186,276.983 153.186 C 277.126 153.186,277.243 153.713,277.243 154.356 L 277.243 155.527 278.544 155.527 C 279.526 155.527,279.844 155.431,279.844 155.137 C 279.844 154.922,279.727 154.746,279.584 154.746 C 279.423 154.746,279.324 153.414,279.324 151.268 C 279.324 149.355,279.251 147.424,279.161 146.977 L 278.999 146.164 266.458 146.164 L 253.916 146.164 253.747 149.480 M281.664 148.359 C 281.664 149.567,281.547 150.627,281.404 150.715 C 281.261 150.804,281.144 151.922,281.144 153.201 L 281.144 155.527 282.285 155.527 C 283.320 155.527,283.440 155.460,283.574 154.811 C 284.221 151.692,284.378 151.105,284.569 151.105 C 284.688 151.105,284.785 150.930,284.785 150.715 C 284.785 150.221,285.708 149.285,286.194 149.285 C 286.397 149.285,286.603 149.165,286.652 149.018 C 286.701 148.871,287.939 148.677,289.404 148.588 L 292.068 148.426 292.068 161.469 L 292.068 174.512 289.597 174.512 L 287.126 174.512 287.126 175.553 L 287.126 176.593 294.278 176.593 L 301.430 176.593 301.430 175.553 L 301.430 174.512 299.090 174.512 L 296.749 174.512 296.749 161.470 L 296.749 148.428 299.063 148.578 C 300.336 148.660,301.649 148.882,301.980 149.071 C 302.928 149.612,304.031 150.765,304.031 151.215 C 304.031 151.441,304.148 151.625,304.291 151.625 C 304.434 151.625,304.551 151.970,304.551 152.390 C 304.551 152.811,304.668 153.228,304.811 153.316 C 304.954 153.404,305.072 153.938,305.072 154.502 L 305.072 155.527 306.372 155.527 C 307.354 155.527,307.672 155.431,307.672 155.137 C 307.672 154.922,307.555 154.746,307.412 154.746 C 307.251 154.746,307.152 153.316,307.152 150.975 C 307.152 148.635,307.053 147.204,306.892 147.204 C 306.749 147.204,306.632 146.970,306.632 146.684 C 306.632 146.171,306.459 146.164,294.148 146.164 L 281.664 146.164 281.664 148.359 M319.519 147.334 C 319.423 147.978,319.234 148.505,319.100 148.505 C 318.966 148.505,318.856 148.797,318.856 149.155 C 318.856 149.512,318.739 149.805,318.596 149.805 C 318.453 149.805,318.336 150.098,318.336 150.455 C 318.336 150.813,318.229 151.105,318.098 151.105 C 317.968 151.105,317.778 151.603,317.676 152.211 C 317.575 152.819,317.418 153.375,317.328 153.446 C 316.950 153.747,316.513 154.794,316.357 155.775 C 316.264 156.354,316.086 156.827,315.962 156.827 C 315.837 156.827,315.735 157.061,315.735 157.347 C 315.735 157.633,315.618 157.867,315.475 157.867 C 315.332 157.867,315.215 158.160,315.215 158.518 C 315.215 158.875,315.105 159.168,314.970 159.168 C 314.836 159.168,314.647 159.694,314.551 160.338 C 314.454 160.982,314.272 161.508,314.145 161.508 C 314.018 161.508,313.914 161.801,313.914 162.159 C 313.914 162.516,313.820 162.809,313.705 162.809 C 313.433 162.809,312.611 165.109,312.612 165.865 C 312.613 166.187,312.497 166.450,312.354 166.450 C 312.211 166.450,312.094 166.625,312.094 166.840 C 312.094 167.055,311.990 167.230,311.863 167.230 C 311.736 167.230,311.554 167.757,311.457 168.401 C 311.360 169.044,311.172 169.571,311.037 169.571 C 310.903 169.571,310.793 169.863,310.793 170.221 C 310.793 170.579,310.676 170.871,310.533 170.871 C 310.390 170.871,310.273 171.154,310.273 171.500 C 310.273 171.845,310.148 172.170,309.996 172.221 C 309.844 172.271,309.653 172.808,309.572 173.413 L 309.424 174.512 307.378 174.512 L 305.332 174.512 305.332 175.553 L 305.332 176.593 310.663 176.593 L 315.995 176.593 315.995 175.553 L 315.995 174.512 313.979 174.508 C 312.871 174.506,312.093 174.418,312.251 174.313 C 312.409 174.208,312.619 173.683,312.718 173.147 C 312.817 172.611,313.009 172.172,313.146 172.172 C 313.282 172.172,313.394 171.879,313.394 171.521 C 313.394 171.164,313.511 170.871,313.654 170.871 C 313.797 170.871,313.914 170.520,313.914 170.091 C 313.914 169.662,314.030 169.311,314.171 169.311 C 314.313 169.311,314.503 168.843,314.595 168.270 C 314.686 167.698,314.863 167.230,314.988 167.230 C 315.112 167.230,315.215 166.996,315.215 166.710 C 315.215 166.210,315.388 166.190,319.738 166.190 C 324.566 166.190,324.577 166.193,324.577 167.512 C 324.577 167.786,324.694 168.010,324.837 168.010 C 324.980 168.010,325.098 168.244,325.098 168.531 C 325.098 168.817,325.201 169.051,325.328 169.051 C 325.455 169.051,325.637 169.575,325.733 170.215 C 325.829 170.855,326.018 171.447,326.153 171.531 C 326.288 171.614,326.398 171.909,326.398 172.187 C 326.398 172.465,326.515 172.692,326.658 172.692 C 326.801 172.692,326.918 172.984,326.918 173.342 C 326.918 173.700,327.035 173.992,327.178 173.992 C 327.321 173.992,327.438 174.109,327.438 174.252 C 327.438 174.404,326.571 174.512,325.358 174.512 L 323.277 174.512 323.277 175.553 L 323.277 176.593 330.039 176.593 L 336.801 176.593 336.801 175.553 L 336.801 174.512 334.832 174.512 C 332.529 174.512,332.239 174.319,331.982 172.602 C 331.882 171.936,331.697 171.391,331.570 171.391 C 331.443 171.391,331.339 171.157,331.339 170.871 C 331.339 170.585,331.222 170.351,331.079 170.351 C 330.936 170.351,330.819 170.059,330.819 169.701 C 330.819 169.343,330.713 169.051,330.584 169.051 C 330.454 169.051,330.267 168.466,330.169 167.750 C 330.071 167.035,329.884 166.450,329.755 166.450 C 329.625 166.450,329.519 166.229,329.519 165.960 C 329.519 165.690,329.344 165.134,329.130 164.724 C 328.917 164.314,328.741 163.716,328.740 163.394 C 328.739 163.072,328.622 162.809,328.479 162.809 C 328.336 162.809,328.218 162.516,328.218 162.159 C 328.218 161.801,328.101 161.508,327.958 161.508 C 327.815 161.508,327.698 161.223,327.698 160.874 C 327.698 160.524,327.597 160.176,327.472 160.099 C 327.348 160.022,327.171 159.489,327.079 158.913 C 326.987 158.338,326.796 157.867,326.655 157.867 C 326.514 157.867,326.398 157.575,326.398 157.217 C 326.398 156.860,326.281 156.567,326.138 156.567 C 325.995 156.567,325.878 156.304,325.879 155.982 C 325.881 155.226,325.058 152.926,324.786 152.926 C 324.671 152.926,324.577 152.633,324.577 152.276 C 324.577 151.918,324.471 151.625,324.342 151.625 C 324.212 151.625,324.026 151.040,323.927 150.325 C 323.829 149.610,323.642 149.025,323.513 149.025 C 323.383 149.025,323.277 148.830,323.277 148.592 C 323.277 147.077,322.438 146.164,321.046 146.164 L 319.695 146.164 319.519 147.334 M367.230 147.334 L 367.230 148.505 369.181 148.505 L 371.131 148.505 371.131 161.508 L 371.131 174.512 369.181 174.512 L 367.230 174.512 367.230 175.553 L 367.230 176.593 379.454 176.593 L 391.678 176.593 391.678 172.562 C 391.678 170.048,391.775 168.531,391.938 168.531 C 392.081 168.531,392.198 167.945,392.198 167.230 L 392.198 165.930 390.897 165.930 L 389.597 165.930 389.597 167.100 C 389.597 167.744,389.480 168.270,389.337 168.270 C 389.194 168.270,389.077 168.615,389.077 169.035 C 389.077 169.456,388.960 169.873,388.817 169.961 C 388.674 170.049,388.557 170.341,388.557 170.608 C 388.557 170.875,388.381 171.270,388.166 171.484 C 387.952 171.699,387.776 172.056,387.776 172.278 C 387.776 172.500,387.484 172.755,387.126 172.845 C 386.769 172.935,386.476 173.113,386.476 173.240 C 386.476 173.368,386.242 173.472,385.956 173.472 C 385.670 173.472,385.436 173.589,385.436 173.732 C 385.436 173.875,384.967 173.992,384.395 173.992 C 383.823 173.992,383.355 174.109,383.355 174.252 C 383.355 174.413,381.968 174.512,379.714 174.512 L 376.073 174.512 376.073 168.140 L 376.073 161.769 378.153 161.769 C 379.367 161.769,380.234 161.877,380.234 162.029 C 380.234 162.172,380.468 162.289,380.754 162.289 C 381.365 162.289,382.315 163.159,382.315 163.719 C 382.315 163.934,382.432 164.109,382.575 164.109 C 382.719 164.109,382.835 164.803,382.835 165.670 L 382.835 167.230 384.135 167.230 L 385.436 167.230 385.436 160.988 L 385.436 154.746 384.135 154.746 L 382.835 154.746 382.835 156.047 C 382.835 156.762,382.718 157.347,382.575 157.347 C 382.432 157.347,382.315 157.523,382.315 157.737 C 382.315 158.297,381.365 159.168,380.754 159.168 C 380.468 159.168,380.234 159.285,380.234 159.428 C 380.234 159.580,379.367 159.688,378.153 159.688 L 376.073 159.688 376.073 154.064 L 376.073 148.441 380.932 148.550 C 384.400 148.629,385.821 148.749,385.895 148.972 C 385.952 149.144,386.136 149.287,386.303 149.289 C 386.965 149.298,388.258 150.765,388.435 151.709 C 388.534 152.239,388.719 152.736,388.846 152.814 C 388.973 152.892,389.077 153.359,389.077 153.851 C 389.077 154.737,389.089 154.746,390.232 154.746 C 391.434 154.746,391.943 154.388,391.447 153.892 C 391.261 153.706,391.157 152.267,391.157 149.883 L 391.157 146.164 379.194 146.164 L 367.230 146.164 367.230 147.334 M166.710 147.724 C 166.710 147.867,167.120 147.984,167.620 147.984 C 168.121 147.984,168.531 148.101,168.531 148.244 C 168.531 148.388,168.695 148.505,168.897 148.505 C 169.836 148.505,172.432 151.817,172.432 153.015 C 172.432 153.235,172.549 153.488,172.692 153.576 C 172.835 153.664,172.952 154.140,172.952 154.632 C 172.952 155.124,173.069 155.527,173.212 155.527 C 173.377 155.527,173.472 157.559,173.472 161.103 C 173.472 164.540,173.372 166.741,173.212 166.840 C 173.069 166.928,172.952 167.462,172.952 168.026 C 172.952 168.589,172.850 169.051,172.725 169.051 C 172.600 169.051,172.423 169.519,172.332 170.091 C 172.240 170.663,172.050 171.131,171.908 171.131 C 171.767 171.131,171.651 171.307,171.651 171.521 C 171.651 171.941,169.727 173.992,169.332 173.992 C 169.201 173.992,169.054 174.111,169.006 174.257 C 168.957 174.403,168.304 174.595,167.554 174.683 C 166.804 174.772,166.190 174.946,166.190 175.069 C 166.190 175.362,164.182 175.360,164.000 175.067 C 163.924 174.943,163.273 174.763,162.555 174.668 C 161.836 174.572,161.248 174.381,161.248 174.243 C 161.248 174.105,161.127 173.992,160.978 173.992 C 160.548 173.992,158.648 171.994,158.648 171.542 C 158.648 171.316,158.531 171.131,158.388 171.131 C 158.244 171.131,158.127 170.921,158.127 170.663 C 158.127 170.406,158.011 170.079,157.869 169.937 C 157.727 169.794,157.535 168.952,157.442 168.064 C 157.349 167.176,157.173 166.450,157.050 166.450 C 156.744 166.450,156.767 156.930,157.074 156.368 C 157.210 156.120,157.394 155.244,157.483 154.421 C 157.572 153.599,157.753 152.926,157.886 152.926 C 158.019 152.926,158.127 152.692,158.127 152.406 C 158.127 152.120,158.216 151.886,158.324 151.886 C 158.432 151.886,158.686 151.505,158.887 151.040 C 159.354 149.964,160.516 148.828,161.371 148.613 C 161.735 148.522,162.098 148.343,162.176 148.216 C 162.255 148.088,162.722 147.984,163.214 147.984 C 163.707 147.984,164.109 147.867,164.109 147.724 C 164.109 147.581,164.694 147.464,165.410 147.464 C 166.125 147.464,166.710 147.581,166.710 147.724 M237.711 147.724 C 237.711 147.867,238.023 147.984,238.404 147.984 C 239.383 147.984,241.061 148.777,241.234 149.321 C 241.314 149.572,241.598 149.848,241.865 149.932 C 242.132 150.017,242.564 150.608,242.827 151.245 C 243.089 151.882,243.391 152.404,243.498 152.405 C 243.605 152.405,243.693 152.689,243.693 153.034 C 243.693 153.380,243.839 153.712,244.018 153.771 C 244.268 153.855,244.343 155.611,244.343 161.379 C 244.343 167.147,244.268 168.902,244.018 168.986 C 243.839 169.045,243.693 169.377,243.693 169.723 C 243.693 170.068,243.600 170.351,243.486 170.351 C 243.373 170.351,243.063 170.875,242.799 171.516 C 242.535 172.156,242.108 172.747,241.849 172.829 C 241.591 172.911,241.307 173.207,241.218 173.485 C 241.130 173.764,240.841 173.992,240.576 173.992 C 240.312 173.992,240.053 174.121,240.000 174.278 C 239.948 174.435,239.353 174.626,238.678 174.702 C 238.003 174.778,237.451 174.942,237.451 175.066 C 237.451 175.191,236.925 175.293,236.281 175.293 C 235.637 175.293,235.111 175.191,235.111 175.066 C 235.111 174.942,234.558 174.778,233.884 174.702 C 233.209 174.626,232.614 174.435,232.562 174.278 C 232.509 174.121,232.315 173.992,232.129 173.992 C 231.467 173.992,229.683 171.968,229.504 171.013 C 229.408 170.503,229.226 170.021,229.099 169.943 C 228.972 169.864,228.869 169.524,228.869 169.187 C 228.869 168.850,228.722 168.525,228.544 168.465 C 228.294 168.382,228.218 166.730,228.218 161.378 C 228.218 156.027,228.294 154.374,228.544 154.291 C 228.722 154.232,228.869 153.900,228.869 153.554 C 228.869 153.209,228.973 152.926,229.100 152.926 C 229.227 152.926,229.408 152.516,229.502 152.016 C 229.596 151.515,229.784 151.105,229.921 151.105 C 230.057 151.105,230.169 150.879,230.169 150.603 C 230.169 150.326,230.397 150.028,230.676 149.939 C 230.955 149.851,231.251 149.563,231.335 149.299 C 231.427 149.008,231.841 148.753,232.389 148.650 C 232.884 148.557,233.290 148.369,233.290 148.233 C 233.290 148.096,233.700 147.984,234.200 147.984 C 234.701 147.984,235.111 147.867,235.111 147.724 C 235.111 147.581,235.696 147.464,236.411 147.464 C 237.126 147.464,237.711 147.581,237.711 147.724 M101.555 155.072 C 101.715 155.887,102.018 156.720,102.501 157.669 C 102.627 157.917,102.731 158.356,102.731 158.644 C 102.731 158.932,102.833 159.168,102.958 159.168 C 103.082 159.168,103.259 159.636,103.351 160.208 C 103.442 160.780,103.633 161.248,103.774 161.248 C 103.916 161.248,104.031 161.599,104.031 162.029 C 104.031 162.458,104.148 162.809,104.291 162.809 C 104.434 162.809,104.551 163.101,104.551 163.459 L 104.551 164.109 100.910 164.109 C 98.656 164.109,97.269 164.010,97.269 163.849 C 97.269 163.706,97.358 163.589,97.466 163.589 C 97.743 163.589,98.244 162.346,98.461 161.118 C 98.562 160.546,98.715 160.020,98.802 159.948 C 99.148 159.663,99.584 158.662,99.751 157.769 C 99.848 157.251,100.032 156.827,100.159 156.827 C 100.286 156.827,100.390 156.534,100.390 156.177 C 100.390 155.819,100.507 155.527,100.650 155.527 C 100.793 155.527,100.910 155.234,100.910 154.876 C 100.910 153.940,101.360 154.076,101.555 155.072 M320.156 154.616 C 320.156 154.831,320.257 155.007,320.381 155.007 C 320.504 155.007,320.677 155.531,320.765 156.171 C 320.853 156.812,321.063 157.602,321.231 157.927 C 321.882 159.182,321.977 159.437,321.977 159.944 C 321.977 160.232,322.092 160.468,322.234 160.468 C 322.375 160.468,322.566 160.939,322.658 161.514 C 322.750 162.090,322.927 162.623,323.051 162.700 C 323.175 162.777,323.277 163.125,323.277 163.474 L 323.277 164.109 319.636 164.109 C 317.382 164.109,315.995 164.010,315.995 163.849 C 315.995 163.706,316.083 163.588,316.190 163.587 C 316.454 163.584,317.035 162.298,317.035 161.717 C 317.035 161.459,317.137 161.248,317.262 161.248 C 317.387 161.248,317.564 160.780,317.655 160.208 C 317.747 159.636,317.937 159.168,318.078 159.168 C 318.220 159.168,318.336 158.875,318.336 158.518 C 318.336 158.160,318.445 157.867,318.580 157.867 C 318.714 157.867,318.903 157.341,318.999 156.697 C 319.096 156.053,319.279 155.527,319.405 155.527 C 319.532 155.527,319.636 155.234,319.636 154.876 C 319.636 154.519,319.753 154.226,319.896 154.226 C 320.039 154.226,320.156 154.402,320.156 154.616 " stroke="none" fill="#b11d23" fill-rule="evenodd"></path></g></svg>