<svg id="svg" version="1.1" xmlns="http://www.w3.org/2000/svg" xmlns:xlink="http://www.w3.org/1999/xlink" width="400" height="259.95525727069355" viewBox="0, 0, 400,259.95525727069355"><g id="svgg"><path id="path0" d="M188.391 45.904 C 188.289 46.168,187.876 46.294,187.114 46.294 C 186.494 46.294,185.906 46.425,185.807 46.585 C 185.688 46.777,184.894 46.837,183.469 46.762 L 181.310 46.649 181.456 47.884 L 181.603 49.118 180.655 49.296 C 180.134 49.394,179.644 49.578,179.566 49.704 C 179.487 49.831,179.196 49.935,178.918 49.935 C 178.641 49.935,178.414 50.052,178.414 50.195 C 178.414 50.338,177.985 50.455,177.461 50.455 C 176.435 50.455,173.658 51.231,173.515 51.557 C 173.468 51.666,173.320 51.756,173.186 51.756 C 173.053 51.756,172.156 52.322,171.192 53.014 C 170.229 53.707,169.236 54.347,168.986 54.437 C 168.735 54.527,168.531 54.760,168.531 54.957 C 168.531 55.153,168.238 55.446,167.880 55.609 C 167.523 55.772,167.230 56.084,167.230 56.301 C 167.230 56.519,167.125 56.697,166.997 56.697 C 166.869 56.697,166.489 56.988,166.152 57.343 C 165.793 57.721,165.244 57.990,164.824 57.993 C 164.299 57.996,164.109 58.127,164.109 58.487 C 164.109 58.803,163.878 59.021,163.459 59.101 C 162.936 59.201,162.809 59.121,162.809 58.690 C 162.809 58.267,162.741 58.221,162.491 58.472 C 162.316 58.646,162.208 59.202,162.252 59.707 C 162.309 60.375,162.149 60.863,161.660 61.504 C 161.290 61.988,160.988 62.448,160.988 62.526 C 160.988 62.604,160.169 63.492,159.168 64.499 C 158.166 65.507,157.347 66.420,157.347 66.528 C 157.347 66.636,157.106 66.897,156.811 67.108 C 156.516 67.318,156.096 67.900,155.879 68.401 C 155.661 68.901,155.375 69.486,155.243 69.701 C 155.111 69.915,154.933 70.267,154.847 70.481 C 154.315 71.809,153.931 72.527,153.610 72.794 C 153.409 72.961,153.167 73.716,153.072 74.472 C 152.957 75.396,152.734 75.966,152.393 76.212 C 152.114 76.413,151.886 76.780,151.886 77.027 C 151.886 77.274,151.593 78.026,151.235 78.699 C 150.878 79.371,150.585 80.138,150.585 80.403 C 150.585 80.668,150.483 80.884,150.358 80.884 C 150.232 80.884,150.058 81.243,149.971 81.682 C 149.882 82.125,149.694 82.407,149.548 82.317 C 149.385 82.216,149.285 82.599,149.285 83.318 C 149.285 83.975,149.152 84.526,148.981 84.583 C 148.793 84.646,148.631 85.547,148.558 86.946 C 148.493 88.189,148.337 89.207,148.212 89.207 C 148.087 89.207,147.984 90.985,147.984 93.158 C 147.984 96.687,147.944 97.055,147.603 96.604 C 147.261 96.152,147.220 96.501,147.212 99.903 C 147.206 102.863,147.285 103.775,147.570 104.011 C 147.771 104.178,148.001 104.865,148.081 105.538 C 148.161 106.211,148.320 107.549,148.436 108.510 C 148.551 109.471,148.789 110.402,148.965 110.577 C 149.155 110.767,149.285 111.610,149.285 112.650 C 149.285 113.615,149.394 114.471,149.528 114.554 C 149.884 114.774,150.585 116.260,150.585 116.794 C 150.585 117.046,150.752 117.584,150.956 117.989 C 151.159 118.394,151.473 119.252,151.651 119.896 C 151.830 120.540,152.177 121.300,152.421 121.586 C 152.666 121.873,152.952 122.399,153.056 122.757 C 153.160 123.114,153.452 123.641,153.704 123.927 C 153.956 124.213,154.303 124.886,154.474 125.423 C 154.646 125.959,154.892 126.398,155.020 126.398 C 155.149 126.398,155.499 126.937,155.799 127.596 C 156.100 128.255,156.746 129.195,157.236 129.685 C 157.726 130.176,158.127 130.720,158.127 130.895 C 158.127 131.071,158.362 131.360,158.648 131.539 C 158.934 131.718,159.168 132.039,159.168 132.252 C 159.168 132.465,159.292 132.640,159.443 132.640 C 159.595 132.640,159.650 132.751,159.566 132.887 C 159.482 133.023,159.768 133.396,160.201 133.716 C 160.634 134.036,160.988 134.437,160.988 134.608 C 160.988 134.778,161.339 135.063,161.769 135.241 C 162.198 135.418,162.549 135.660,162.549 135.778 C 162.549 135.895,162.892 136.194,163.310 136.441 C 163.729 136.689,164.130 137.114,164.201 137.386 C 164.273 137.658,164.573 137.943,164.870 138.021 C 165.167 138.099,165.410 138.324,165.410 138.522 C 165.410 138.720,165.525 138.882,165.665 138.882 C 165.805 138.882,166.342 139.291,166.858 139.792 C 167.373 140.293,167.960 140.702,168.163 140.702 C 168.365 140.702,168.531 140.878,168.531 141.092 C 168.531 141.307,168.677 141.487,168.856 141.493 C 169.034 141.499,169.586 141.850,170.081 142.273 C 170.576 142.697,171.120 143.043,171.289 143.043 C 171.458 143.043,171.663 143.218,171.746 143.433 C 171.828 143.648,172.133 143.823,172.424 143.823 C 172.714 143.823,172.952 143.940,172.952 144.083 C 172.952 144.226,173.122 144.343,173.329 144.343 C 173.537 144.343,173.800 144.490,173.914 144.668 C 174.184 145.090,175.179 145.644,175.666 145.644 C 175.876 145.644,176.141 145.812,176.256 146.018 C 176.371 146.224,177.050 146.539,177.765 146.719 C 178.479 146.899,179.298 147.237,179.584 147.469 C 180.153 147.932,182.031 148.550,182.323 148.369 C 182.423 148.307,182.715 148.488,182.970 148.771 C 183.248 149.077,183.769 149.285,184.262 149.285 C 184.717 149.285,185.170 149.366,185.270 149.466 C 185.475 149.671,185.466 149.670,187.841 149.921 C 188.807 150.023,189.597 150.214,189.597 150.346 C 189.597 150.477,190.358 150.585,191.287 150.585 C 192.241 150.585,192.978 150.472,192.978 150.325 C 192.978 150.182,193.322 150.065,193.743 150.065 C 194.163 150.065,194.580 150.182,194.668 150.325 C 194.770 150.490,198.037 150.585,203.611 150.585 L 212.393 150.585 213.004 149.935 C 213.392 149.522,213.899 149.285,214.394 149.285 C 214.823 149.285,215.358 149.126,215.584 148.931 C 216.188 148.412,217.622 147.984,218.760 147.984 C 219.808 147.984,222.058 146.623,222.091 145.969 C 222.099 145.790,222.399 145.644,222.757 145.644 C 223.114 145.644,223.407 145.527,223.407 145.384 C 223.407 145.241,223.797 145.124,224.274 145.124 C 225.120 145.124,226.528 143.988,226.528 143.305 C 226.528 143.161,226.686 143.043,226.878 143.043 C 227.520 143.043,228.809 142.260,229.885 141.215 C 230.471 140.647,231.067 140.182,231.210 140.182 C 231.353 140.182,231.469 140.007,231.469 139.792 C 231.469 139.575,231.701 139.402,231.990 139.402 C 232.276 139.402,232.510 139.285,232.510 139.142 C 232.510 138.999,232.660 138.882,232.843 138.882 C 233.180 138.882,237.711 134.642,237.711 134.327 C 237.711 134.233,238.121 133.759,238.622 133.273 C 239.122 132.787,239.532 132.349,239.532 132.299 C 239.532 132.250,240.059 131.636,240.702 130.935 C 241.346 130.234,241.873 129.525,241.873 129.359 C 241.873 129.194,242.165 128.867,242.523 128.632 C 242.880 128.398,243.173 127.982,243.173 127.708 C 243.173 127.433,243.283 127.141,243.417 127.058 C 243.736 126.861,244.473 125.375,244.473 124.928 C 244.473 124.735,244.607 124.577,244.770 124.577 C 245.149 124.577,245.755 123.785,245.765 123.275 C 245.770 123.059,245.993 122.745,246.262 122.577 C 246.530 122.410,246.832 121.831,246.934 121.291 C 247.035 120.751,247.325 120.129,247.578 119.908 C 247.831 119.687,248.107 119.155,248.191 118.726 C 248.646 116.388,248.874 115.612,249.130 115.526 C 249.287 115.474,249.415 115.100,249.415 114.694 C 249.415 114.289,249.542 113.915,249.696 113.864 C 250.018 113.756,250.440 111.313,250.630 108.453 C 250.702 107.380,250.851 106.385,250.962 106.242 C 251.373 105.712,251.539 104.333,251.637 100.653 C 251.692 98.577,251.807 95.765,251.893 94.404 C 251.998 92.740,251.946 91.674,251.737 91.153 C 251.565 90.726,251.443 90.044,251.466 89.636 C 251.489 89.228,251.335 88.549,251.124 88.126 C 250.913 87.703,250.715 86.727,250.684 85.956 C 250.641 84.901,250.478 84.394,250.021 83.902 C 249.596 83.444,249.415 82.936,249.415 82.209 C 249.415 81.611,249.265 81.082,249.063 80.962 C 248.869 80.848,248.643 80.462,248.562 80.104 C 248.480 79.746,248.218 78.580,247.981 77.512 C 247.744 76.444,247.329 75.260,247.059 74.882 C 246.790 74.503,246.636 74.127,246.717 74.046 C 246.798 73.965,246.619 73.745,246.319 73.558 C 246.019 73.370,245.774 73.016,245.774 72.772 C 245.774 72.063,245.203 71.001,244.822 71.001 C 244.630 71.001,244.473 70.826,244.473 70.611 C 244.473 70.397,244.356 70.221,244.213 70.221 C 244.070 70.221,243.953 70.003,243.953 69.737 C 243.953 69.471,243.661 69.034,243.303 68.765 C 242.945 68.497,242.653 68.154,242.653 68.003 C 242.653 67.853,242.185 67.212,241.612 66.580 C 241.040 65.948,240.572 65.274,240.572 65.082 C 240.572 64.690,238.957 62.939,238.594 62.939 C 238.321 62.939,236.931 61.515,236.931 61.234 C 236.931 61.006,235.307 59.305,235.086 59.301 C 235.001 59.299,234.321 58.713,233.575 57.997 C 232.587 57.049,232.015 56.697,231.467 56.697 C 231.053 56.697,230.621 56.538,230.507 56.344 C 230.393 56.149,229.860 55.848,229.324 55.673 C 228.787 55.499,228.349 55.239,228.349 55.096 C 228.349 54.732,225.140 51.756,224.748 51.756 C 224.651 51.756,224.275 51.492,223.912 51.170 C 223.070 50.425,222.214 49.935,221.752 49.935 C 221.553 49.935,221.244 49.759,221.066 49.545 C 220.888 49.330,220.470 49.155,220.137 49.155 C 219.804 49.155,219.438 48.988,219.324 48.785 C 219.047 48.294,217.012 47.603,215.828 47.598 C 215.228 47.596,214.825 47.451,214.730 47.204 C 214.617 46.909,214.138 46.814,212.752 46.814 C 211.706 46.814,210.923 46.703,210.923 46.554 C 210.923 46.411,210.702 46.294,210.431 46.294 C 210.160 46.294,209.871 46.118,209.789 45.904 C 209.659 45.566,208.227 45.514,199.090 45.514 C 189.952 45.514,188.520 45.566,188.391 45.904 M205.729 49.689 C 220.730 51.553,236.220 62.828,242.421 76.399 C 242.862 77.364,243.516 78.776,243.875 79.536 C 248.216 88.737,248.416 105.226,244.315 115.844 C 231.297 149.553,188.607 157.714,164.151 131.169 C 158.457 124.988,154.420 117.281,152.797 109.493 C 146.988 81.605,163.996 54.960,190.637 50.212 C 195.233 49.393,201.578 49.173,205.729 49.689 M164.629 56.827 C 164.629 57.042,164.454 57.217,164.239 57.217 C 164.025 57.217,163.849 57.334,163.849 57.477 C 163.849 57.620,164.142 57.737,164.499 57.737 C 164.857 57.737,165.150 57.630,165.150 57.499 C 165.150 57.367,165.221 57.075,165.307 56.848 C 165.411 56.578,165.322 56.437,165.047 56.437 C 164.817 56.437,164.629 56.612,164.629 56.827 M228.154 71.066 C 228.012 71.245,227.748 71.860,227.567 72.432 C 226.976 74.301,226.343 75.280,224.602 77.021 C 222.573 79.050,222.400 79.741,223.862 79.980 C 224.399 80.068,225.424 80.425,226.142 80.772 C 227.805 81.579,228.146 81.567,229.044 80.669 C 230.735 78.976,231.749 76.083,231.366 74.041 C 231.004 72.113,228.883 70.148,228.154 71.066 M247.334 74.772 C 247.334 74.989,247.565 75.163,247.854 75.163 C 248.143 75.163,248.375 74.989,248.375 74.772 C 248.375 74.556,248.143 74.382,247.854 74.382 C 247.565 74.382,247.334 74.556,247.334 74.772 M171.226 81.253 C 160.591 83.696,155.385 92.498,159.597 100.917 C 163.224 108.168,174.160 109.668,179.644 103.668 C 182.451 100.597,182.711 98.149,180.485 95.759 C 179.765 94.986,179.542 95.032,178.586 96.157 C 173.708 101.898,165.755 102.672,163.321 97.643 C 159.966 90.712,170.068 84.872,181.980 86.856 C 182.951 87.018,185.150 87.369,186.866 87.637 C 188.583 87.905,190.748 88.294,191.678 88.501 C 192.607 88.709,194.363 89.020,195.579 89.192 C 196.795 89.364,198.391 89.629,199.127 89.781 C 201.013 90.171,201.487 89.950,203.251 87.860 C 204.109 86.843,205.095 85.764,205.441 85.463 C 207.977 83.258,207.845 83.135,202.728 82.921 C 200.441 82.825,197.809 82.618,196.879 82.460 C 189.446 81.196,174.529 80.495,171.226 81.253 M215.735 81.837 C 199.857 86.126,193.274 110.066,204.805 121.585 C 209.679 126.454,217.990 127.754,223.439 124.498 C 225.854 123.055,225.264 121.945,222.667 123.044 C 220.416 123.997,213.396 123.988,211.834 123.029 C 205.100 118.900,202.035 112.394,203.374 105.072 C 205.171 95.251,215.428 84.927,220.961 87.369 C 226.596 89.856,226.928 96.600,221.662 101.605 C 220.008 103.177,220.050 103.670,221.904 104.418 C 224.659 105.530,226.350 104.875,228.212 101.976 C 233.114 94.344,231.710 85.941,224.981 82.628 C 223.320 81.810,217.635 81.324,215.735 81.837 M185.457 89.831 C 185.179 90.166,185.153 90.734,185.335 92.527 C 185.676 95.884,185.616 103.114,185.191 109.805 C 184.669 118.033,185.212 122.376,187.020 124.435 C 188.922 126.601,191.761 125.965,190.449 123.667 C 189.815 122.557,189.796 114.040,190.419 110.663 C 190.657 109.376,190.979 107.445,191.134 106.372 C 191.289 105.299,191.766 102.282,192.193 99.668 C 193.230 93.316,192.813 91.476,190.038 90.159 C 188.669 89.509,185.889 89.310,185.457 89.831 M252.276 92.848 C 252.276 93.134,252.393 93.368,252.536 93.368 C 252.679 93.368,252.796 93.134,252.796 92.848 C 252.796 92.562,252.679 92.328,252.536 92.328 C 252.393 92.328,252.276 92.562,252.276 92.848 M252.449 94.582 C 252.179 94.852,252.245 95.709,252.536 95.709 C 252.679 95.709,252.796 95.416,252.796 95.059 C 252.796 94.378,252.736 94.295,252.449 94.582 M252.276 99.350 C 252.276 99.779,252.393 100.130,252.536 100.130 C 252.679 100.130,252.796 99.779,252.796 99.350 C 252.796 98.921,252.679 98.570,252.536 98.570 C 252.393 98.570,252.276 98.921,252.276 99.350 M252.276 102.731 C 252.276 103.017,252.393 103.251,252.536 103.251 C 252.679 103.251,252.796 103.017,252.796 102.731 C 252.796 102.445,252.679 102.211,252.536 102.211 C 252.393 102.211,252.276 102.445,252.276 102.731 M211.704 151.495 C 211.704 151.900,211.851 152.146,212.094 152.146 C 212.336 152.146,212.484 151.900,212.484 151.495 C 212.484 151.091,212.336 150.845,212.094 150.845 C 211.851 150.845,211.704 151.091,211.704 151.495 " stroke="none" fill="#e0d2cd" fill-rule="evenodd"></path><path id="path1" d="M194.668 49.591 C 173.390 51.400,155.131 69.168,152.013 91.100 C 150.401 102.439,153.192 115.805,158.978 124.450 C 161.287 127.899,162.039 128.877,164.151 131.169 C 188.607 157.714,231.297 149.553,244.315 115.844 C 248.416 105.226,248.216 88.737,243.875 79.536 C 243.516 78.776,242.862 77.364,242.421 76.399 C 237.671 66.003,224.924 54.833,213.907 51.409 C 208.421 49.704,201.276 49.029,194.668 49.591 M230.281 71.941 C 232.157 74.398,231.636 78.075,229.044 80.669 C 228.146 81.567,227.805 81.579,226.142 80.772 C 225.424 80.425,224.399 80.068,223.862 79.980 C 222.400 79.741,222.573 79.050,224.602 77.021 C 226.343 75.280,226.976 74.301,227.567 72.432 C 228.230 70.336,228.955 70.205,230.281 71.941 M190.637 81.653 C 193.140 81.939,195.949 82.302,196.879 82.460 C 197.809 82.618,200.441 82.825,202.728 82.921 C 207.845 83.135,207.977 83.258,205.441 85.463 C 205.095 85.764,204.109 86.843,203.251 87.860 C 201.487 89.950,201.013 90.171,199.127 89.781 C 198.391 89.629,196.795 89.364,195.579 89.192 C 194.363 89.020,192.607 88.709,191.678 88.501 C 190.748 88.294,188.583 87.905,186.866 87.637 C 185.150 87.369,182.951 87.018,181.980 86.856 C 170.068 84.872,159.966 90.712,163.321 97.643 C 165.755 102.672,173.708 101.898,178.586 96.157 C 179.759 94.777,180.395 95.045,181.536 97.402 C 183.514 101.488,177.422 107.395,171.213 107.409 C 157.531 107.440,153.137 90.818,164.968 83.783 C 170.031 80.772,177.488 80.154,190.637 81.653 M224.981 82.628 C 231.710 85.941,233.114 94.344,228.212 101.976 C 226.350 104.875,224.659 105.530,221.904 104.418 C 220.050 103.670,220.008 103.177,221.662 101.605 C 226.928 96.600,226.596 89.856,220.961 87.369 C 215.428 84.927,205.171 95.251,203.374 105.072 C 202.035 112.394,205.100 118.900,211.834 123.029 C 213.396 123.988,220.416 123.997,222.667 123.044 C 225.264 121.945,225.854 123.055,223.439 124.498 C 217.990 127.754,209.679 126.454,204.805 121.585 C 193.274 110.066,199.857 86.126,215.735 81.837 C 217.635 81.324,223.320 81.810,224.981 82.628 M190.038 90.159 C 192.813 91.476,193.230 93.316,192.193 99.668 C 191.766 102.282,191.289 105.299,191.134 106.372 C 190.979 107.445,190.657 109.376,190.419 110.663 C 189.796 114.040,189.815 122.557,190.449 123.667 C 191.761 125.965,188.922 126.601,187.020 124.435 C 185.212 122.376,184.669 118.033,185.191 109.805 C 185.616 103.114,185.676 95.884,185.335 92.527 C 185.032 89.542,185.179 89.342,187.495 89.579 C 188.423 89.674,189.567 89.935,190.038 90.159 M215.475 162.029 C 215.386 162.172,214.970 162.289,214.549 162.289 C 214.128 162.289,213.784 162.406,213.784 162.549 C 213.784 162.692,213.521 162.813,213.199 162.818 C 212.446 162.829,210.599 163.698,210.832 163.932 C 210.930 164.029,210.815 164.109,210.577 164.109 C 210.338 164.109,210.143 164.226,210.143 164.369 C 210.143 164.512,209.953 164.629,209.721 164.629 C 209.193 164.629,206.112 167.709,205.867 168.481 C 205.768 168.794,205.578 169.051,205.444 169.051 C 205.311 169.051,205.202 169.226,205.202 169.441 C 205.202 169.655,205.085 169.831,204.941 169.831 C 204.798 169.831,204.681 170.065,204.681 170.351 C 204.681 170.637,204.570 170.871,204.433 170.871 C 204.297 170.871,204.108 171.281,204.014 171.782 C 203.920 172.282,203.739 172.692,203.612 172.692 C 203.485 172.692,203.381 172.984,203.381 173.342 C 203.381 173.700,203.276 173.992,203.148 173.992 C 202.916 173.992,202.851 174.307,202.364 177.763 C 201.837 181.505,202.374 189.597,203.149 189.597 C 203.277 189.597,203.381 189.955,203.381 190.392 C 203.381 190.857,203.489 191.121,203.641 191.027 C 203.784 190.939,203.901 191.119,203.901 191.428 C 203.901 192.161,204.659 193.775,205.253 194.309 C 205.511 194.540,205.722 194.856,205.722 195.011 C 205.722 195.404,208.786 198.440,209.183 198.440 C 209.362 198.440,209.676 198.673,209.882 198.959 C 210.088 199.244,210.640 199.550,211.110 199.638 C 211.579 199.726,211.964 199.902,211.964 200.029 C 211.964 200.156,212.256 200.260,212.614 200.260 C 212.971 200.260,213.264 200.377,213.264 200.520 C 213.264 200.663,213.674 200.780,214.174 200.780 C 214.675 200.780,215.085 200.897,215.085 201.040 C 215.085 201.204,216.862 201.300,219.896 201.300 C 222.930 201.300,224.707 201.204,224.707 201.040 C 224.707 200.897,225.286 200.780,225.992 200.780 C 226.699 200.780,227.350 200.663,227.438 200.520 C 227.527 200.377,227.936 200.260,228.349 200.260 C 228.761 200.260,229.170 200.143,229.259 200.000 C 229.347 199.857,229.691 199.740,230.023 199.740 C 231.148 199.740,231.225 199.337,231.150 193.855 L 231.079 188.687 229.779 188.687 L 228.479 188.687 228.253 190.637 C 228.129 191.710,227.953 192.646,227.862 192.718 C 227.772 192.789,227.522 193.199,227.308 193.628 C 227.093 194.057,226.772 194.563,226.593 194.752 C 226.414 194.941,226.268 195.220,226.268 195.372 C 226.268 195.766,224.944 196.865,224.254 197.044 C 223.933 197.127,223.735 197.299,223.814 197.427 C 223.893 197.555,223.658 197.659,223.292 197.659 C 222.926 197.659,222.627 197.776,222.627 197.919 C 222.627 198.079,221.326 198.179,219.246 198.179 C 217.165 198.179,215.865 198.079,215.865 197.919 C 215.865 197.776,215.572 197.659,215.215 197.659 C 214.857 197.659,214.564 197.542,214.564 197.399 C 214.564 197.256,214.394 197.139,214.186 197.139 C 213.684 197.139,210.923 194.388,210.923 193.888 C 210.923 193.674,210.808 193.498,210.666 193.498 C 210.525 193.498,210.334 193.030,210.243 192.458 C 210.151 191.886,209.974 191.417,209.850 191.417 C 209.725 191.417,209.623 191.135,209.623 190.789 C 209.623 190.443,209.477 190.112,209.298 190.052 C 209.047 189.968,208.973 188.083,208.973 181.795 C 208.973 175.507,209.047 173.621,209.298 173.537 C 209.477 173.477,209.623 173.249,209.623 173.030 C 209.623 172.466,210.494 169.978,210.728 169.874 C 210.836 169.827,210.923 169.632,210.923 169.441 C 210.923 169.250,211.032 169.055,211.164 169.007 C 211.296 168.960,211.442 168.758,211.489 168.559 C 211.600 168.083,212.912 166.710,213.255 166.710 C 213.403 166.710,213.524 166.616,213.524 166.500 C 213.524 166.238,215.368 165.410,215.952 165.410 C 216.190 165.410,216.385 165.293,216.385 165.150 C 216.385 164.991,217.599 164.889,219.506 164.889 C 221.413 164.889,222.627 164.991,222.627 165.150 C 222.627 165.293,222.910 165.410,223.255 165.410 C 223.601 165.410,223.925 165.533,223.975 165.684 C 224.026 165.835,224.249 165.985,224.473 166.018 C 225.137 166.115,226.129 167.278,226.671 168.596 C 226.950 169.274,227.266 169.829,227.373 169.830 C 227.480 169.831,227.568 170.241,227.568 170.741 C 227.568 171.242,227.679 171.651,227.813 171.651 C 227.948 171.651,228.095 172.149,228.138 172.757 L 228.218 173.862 229.389 173.862 L 230.559 173.862 230.631 169.591 C 230.676 166.921,230.602 165.219,230.436 165.052 C 230.289 164.905,230.169 164.403,230.169 163.936 C 230.169 163.113,230.128 163.081,228.869 162.914 C 228.153 162.819,227.568 162.640,227.568 162.515 C 227.568 162.391,227.042 162.289,226.398 162.289 C 225.754 162.289,225.228 162.172,225.228 162.029 C 225.228 161.865,223.455 161.769,220.431 161.769 C 217.515 161.769,215.572 161.870,215.475 162.029 M29.389 165.020 C 29.389 166.320,29.282 167.230,29.129 167.230 C 28.967 167.230,28.869 168.661,28.869 171.001 L 28.869 174.772 30.054 174.772 C 30.779 174.772,31.178 174.671,31.079 174.512 C 30.991 174.369,31.043 174.252,31.194 174.252 C 31.352 174.252,31.469 173.689,31.469 172.937 C 31.469 172.126,31.569 171.682,31.730 171.782 C 31.881 171.875,31.990 171.616,31.990 171.162 C 31.990 170.733,32.096 170.316,32.227 170.235 C 32.358 170.154,32.543 169.621,32.640 169.049 C 32.737 168.478,32.893 168.009,32.988 168.006 C 33.082 168.004,33.570 167.640,34.070 167.197 C 35.365 166.051,35.841 165.930,39.029 165.930 L 41.873 165.930 41.873 181.795 L 41.873 197.659 38.999 197.659 L 36.125 197.659 36.203 199.155 L 36.281 200.650 44.553 200.719 C 53.893 200.796,53.576 200.862,53.576 198.848 L 53.576 197.659 50.585 197.659 L 47.594 197.659 47.594 181.764 L 47.594 165.870 51.048 165.970 L 54.502 166.071 55.582 167.184 C 56.176 167.796,56.737 168.642,56.830 169.064 C 56.923 169.486,57.106 169.831,57.238 169.831 C 57.370 169.831,57.477 170.241,57.477 170.741 C 57.477 171.242,57.594 171.651,57.737 171.651 C 57.880 171.651,57.997 172.187,57.997 172.840 C 57.997 174.279,58.425 174.772,59.669 174.772 L 60.598 174.772 60.598 170.351 C 60.598 167.577,60.501 165.930,60.338 165.930 C 60.194 165.930,60.078 165.236,60.078 164.369 L 60.078 162.809 44.733 162.809 L 29.389 162.809 29.389 165.020 M266.125 172.882 L 265.020 172.982 265.020 175.698 L 265.020 178.414 263.329 178.414 L 261.638 178.414 261.638 179.974 L 261.638 181.534 263.329 181.534 L 265.020 181.534 265.020 189.191 C 265.020 194.016,265.116 196.908,265.280 197.009 C 265.423 197.098,265.540 197.456,265.540 197.805 C 265.540 198.154,265.657 198.440,265.800 198.440 C 265.943 198.440,266.064 198.586,266.068 198.765 C 266.082 199.271,267.007 200.260,267.467 200.260 C 267.694 200.260,267.880 200.377,267.880 200.520 C 267.880 200.663,268.046 200.780,268.249 200.780 C 268.451 200.780,268.659 200.904,268.709 201.056 C 268.767 201.229,269.913 201.332,271.782 201.332 C 273.650 201.332,274.796 201.229,274.854 201.056 C 274.904 200.904,275.170 200.780,275.444 200.780 C 275.718 200.780,275.943 200.663,275.943 200.520 C 275.943 200.377,276.075 200.260,276.237 200.260 C 276.623 200.260,277.503 199.238,277.503 198.790 C 277.503 198.597,277.620 198.440,277.763 198.440 C 277.906 198.440,278.023 198.264,278.023 198.049 C 278.023 197.835,278.140 197.659,278.283 197.659 C 278.427 197.659,278.544 197.390,278.544 197.061 C 278.544 196.732,278.671 196.336,278.826 196.181 C 279.363 195.644,278.994 194.675,278.218 194.586 C 277.825 194.541,277.503 194.395,277.503 194.261 C 277.503 193.974,276.212 193.928,276.184 194.213 C 276.100 195.061,275.887 195.723,275.675 195.795 C 275.536 195.843,275.423 195.995,275.423 196.132 C 275.423 197.772,271.413 198.343,271.114 196.746 C 271.019 196.244,270.839 195.769,270.712 195.690 C 270.585 195.612,270.481 192.398,270.481 188.549 L 270.481 181.550 273.797 181.477 L 277.113 181.404 277.191 179.909 L 277.269 178.414 273.875 178.414 L 270.481 178.414 270.481 175.553 L 270.481 172.692 268.856 172.737 C 267.962 172.762,266.733 172.827,266.125 172.882 M284.460 172.901 L 283.485 172.983 283.485 175.698 L 283.485 178.414 281.664 178.414 L 279.844 178.414 279.844 179.974 L 279.844 181.534 281.664 181.534 L 283.485 181.534 283.485 189.337 C 283.485 194.365,283.578 197.139,283.745 197.139 C 283.888 197.139,284.005 197.423,284.005 197.771 C 284.005 198.118,284.181 198.578,284.395 198.792 C 284.610 199.007,284.785 199.258,284.785 199.350 C 284.785 199.620,285.504 200.260,285.807 200.260 C 285.960 200.260,286.086 200.377,286.086 200.520 C 286.086 200.663,286.310 200.780,286.584 200.780 C 286.858 200.780,287.124 200.903,287.174 201.052 C 287.421 201.794,294.148 201.220,294.148 200.457 C 294.148 200.349,294.274 200.260,294.427 200.260 C 294.794 200.260,295.449 199.596,295.449 199.223 C 295.449 199.061,295.566 199.001,295.709 199.090 C 295.852 199.178,295.969 199.068,295.969 198.845 C 295.969 198.622,296.084 198.440,296.226 198.440 C 296.367 198.440,296.558 197.971,296.649 197.399 C 296.741 196.827,296.918 196.359,297.042 196.359 C 297.167 196.359,297.269 195.949,297.269 195.449 C 297.269 194.657,297.186 194.538,296.634 194.538 C 296.285 194.538,295.927 194.421,295.839 194.278 C 295.529 193.776,294.753 194.025,294.421 194.733 C 293.133 197.476,292.937 197.659,291.287 197.659 C 289.776 197.659,289.207 197.269,289.207 196.232 C 289.207 195.842,289.095 195.617,288.947 195.709 C 288.776 195.814,288.687 193.414,288.687 188.702 L 288.687 181.534 292.068 181.534 L 295.449 181.534 295.449 179.974 L 295.449 178.414 292.068 178.414 L 288.687 178.414 288.687 175.539 L 288.687 172.664 287.061 172.741 C 286.167 172.784,284.997 172.855,284.460 172.901 M67.880 177.633 C 67.880 177.776,67.588 177.893,67.230 177.893 C 66.873 177.893,66.580 178.010,66.580 178.153 C 66.580 178.296,66.346 178.414,66.060 178.414 C 65.774 178.414,65.540 178.531,65.540 178.674 C 65.540 178.817,65.372 178.934,65.167 178.934 C 64.295 178.934,61.118 182.725,61.118 183.766 C 61.118 183.969,61.001 184.135,60.858 184.135 C 60.715 184.135,60.598 184.477,60.598 184.894 C 60.598 185.311,60.452 185.701,60.274 185.761 C 59.819 185.912,59.830 193.285,60.285 193.437 C 60.457 193.494,60.598 193.742,60.598 193.988 C 60.598 194.552,61.184 195.834,61.443 195.837 C 61.551 195.838,61.638 196.009,61.638 196.217 C 61.638 196.425,61.931 196.888,62.289 197.246 C 62.646 197.603,62.939 198.018,62.939 198.168 C 62.939 198.317,63.121 198.440,63.344 198.440 C 63.567 198.440,63.677 198.557,63.589 198.700 C 63.501 198.843,63.611 198.960,63.834 198.960 C 64.057 198.960,64.239 199.069,64.239 199.202 C 64.239 199.336,64.503 199.527,64.824 199.627 C 65.146 199.728,65.468 199.882,65.540 199.970 C 65.817 200.311,66.857 200.780,67.335 200.780 C 67.611 200.780,67.877 200.901,67.927 201.050 C 67.983 201.217,69.295 201.319,71.391 201.319 C 73.488 201.319,74.800 201.217,74.856 201.050 C 74.905 200.901,75.229 200.780,75.574 200.780 C 75.920 200.780,76.203 200.663,76.203 200.520 C 76.203 200.377,76.385 200.260,76.608 200.260 C 76.831 200.260,76.941 200.143,76.853 200.000 C 76.765 199.857,76.860 199.740,77.065 199.740 C 77.571 199.740,79.324 198.105,79.324 197.633 C 79.324 197.425,79.558 197.085,79.844 196.879 C 80.130 196.673,80.364 196.244,80.364 195.927 C 80.364 195.609,80.481 195.277,80.624 195.189 C 80.767 195.100,80.884 194.675,80.884 194.244 C 80.884 192.239,78.440 192.020,77.648 193.954 C 77.370 194.633,77.019 195.319,76.868 195.479 C 76.717 195.639,76.338 196.048,76.026 196.389 C 75.239 197.249,74.712 197.659,74.393 197.659 C 74.244 197.659,74.122 197.776,74.122 197.919 C 74.122 198.075,73.125 198.179,71.651 198.179 C 70.178 198.179,69.181 198.075,69.181 197.919 C 69.181 197.776,68.995 197.659,68.767 197.659 C 68.308 197.659,67.382 196.670,67.369 196.164 C 67.364 195.985,67.243 195.839,67.100 195.839 C 66.957 195.839,66.840 195.673,66.840 195.470 C 66.840 195.268,66.720 195.062,66.573 195.013 C 66.426 194.964,66.233 193.725,66.144 192.260 L 65.981 189.597 73.595 189.597 L 81.208 189.597 81.084 187.321 C 80.963 185.103,80.436 182.835,80.041 182.835 C 79.932 182.835,79.844 182.659,79.844 182.445 C 79.844 182.230,79.727 182.055,79.584 182.055 C 79.441 182.055,79.324 181.862,79.324 181.626 C 79.324 181.116,76.564 178.414,76.043 178.414 C 75.845 178.414,75.683 178.296,75.683 178.153 C 75.683 178.010,75.397 177.893,75.048 177.893 C 74.699 177.893,74.341 177.776,74.252 177.633 C 74.160 177.483,72.776 177.373,70.986 177.373 C 69.089 177.373,67.880 177.474,67.880 177.633 M91.287 177.626 C 91.073 177.769,90.634 177.887,90.312 177.889 C 89.990 177.892,89.727 178.010,89.727 178.153 C 89.727 178.296,89.605 178.414,89.456 178.414 C 88.898 178.414,86.606 180.688,86.606 181.242 C 86.606 181.379,86.476 181.534,86.317 181.587 C 85.901 181.726,85.880 187.058,86.295 187.196 C 86.466 187.253,86.608 187.436,86.610 187.603 C 86.616 188.026,88.038 189.597,88.414 189.597 C 88.585 189.597,88.899 189.772,89.114 189.987 C 89.328 190.202,89.730 190.377,90.006 190.377 C 90.281 190.377,90.507 190.494,90.507 190.637 C 90.507 190.780,90.741 190.897,91.027 190.897 C 91.313 190.897,91.547 191.014,91.547 191.157 C 91.547 191.300,91.752 191.421,92.003 191.426 C 92.529 191.436,95.118 192.300,95.367 192.550 C 95.460 192.642,95.750 192.718,96.012 192.718 C 96.274 192.718,96.489 192.830,96.489 192.966 C 96.489 193.103,96.893 193.290,97.387 193.383 C 99.096 193.704,98.884 197.659,97.158 197.659 C 96.933 197.659,96.749 197.776,96.749 197.919 C 96.749 198.075,95.709 198.179,94.148 198.179 C 92.588 198.179,91.547 198.075,91.547 197.919 C 91.547 197.776,91.361 197.659,91.134 197.659 C 90.674 197.659,89.749 196.670,89.736 196.164 C 89.731 195.985,89.610 195.839,89.467 195.839 C 89.324 195.839,89.207 195.663,89.207 195.449 C 89.207 195.234,89.105 195.059,88.980 195.059 C 88.856 195.059,88.674 194.356,88.577 193.498 L 88.401 191.938 86.950 191.938 L 85.499 191.938 85.670 194.733 C 85.987 199.933,86.052 200.260,86.761 200.260 C 87.105 200.260,87.386 200.377,87.386 200.520 C 87.386 200.663,87.789 200.780,88.281 200.780 C 88.773 200.780,89.248 200.897,89.337 201.040 C 89.433 201.196,91.160 201.300,93.643 201.300 C 96.234 201.300,97.789 201.203,97.789 201.040 C 97.789 200.897,98.082 200.780,98.440 200.780 C 98.797 200.780,99.090 200.663,99.090 200.520 C 99.090 200.377,99.265 200.260,99.480 200.260 C 99.694 200.260,99.870 200.143,99.870 200.000 C 99.870 199.857,100.099 199.740,100.380 199.740 C 100.660 199.740,101.041 199.556,101.225 199.332 C 101.410 199.107,101.824 198.677,102.146 198.375 C 102.467 198.073,102.731 197.681,102.731 197.504 C 102.731 197.327,102.877 197.134,103.056 197.074 C 103.275 197.001,103.410 196.196,103.471 194.609 C 103.608 191.016,102.764 189.604,99.610 188.152 C 99.109 187.921,98.496 187.625,98.248 187.494 C 98.000 187.363,97.608 187.256,97.377 187.256 C 97.146 187.256,96.530 187.069,96.008 186.840 C 94.828 186.322,94.314 186.115,92.897 185.586 C 90.383 184.647,89.567 182.555,91.270 181.415 C 91.688 181.134,91.974 180.812,91.904 180.700 C 91.834 180.587,92.896 180.494,94.263 180.494 C 95.747 180.494,96.749 180.599,96.749 180.754 C 96.749 180.897,96.940 181.014,97.174 181.014 C 97.664 181.014,98.570 181.968,98.570 182.485 C 98.570 182.677,98.657 182.836,98.765 182.837 C 99.123 182.841,99.610 184.227,99.610 185.243 C 99.610 185.846,99.714 186.182,99.870 186.086 C 100.013 185.997,100.130 186.049,100.130 186.201 C 100.130 186.352,100.598 186.476,101.170 186.476 L 102.211 186.476 102.211 182.445 C 102.211 179.035,102.151 178.414,101.821 178.414 C 101.606 178.414,101.430 178.309,101.430 178.181 C 101.430 177.624,92.062 177.112,91.287 177.626 M113.524 177.633 C 113.436 177.776,113.078 177.893,112.728 177.893 C 112.379 177.893,112.094 178.010,112.094 178.153 C 112.094 178.296,111.918 178.414,111.704 178.414 C 111.489 178.414,111.313 178.531,111.313 178.674 C 111.313 178.817,111.084 178.934,110.803 178.934 C 110.523 178.934,110.143 179.115,109.958 179.336 C 109.774 179.558,109.389 179.997,109.102 180.312 C 107.648 181.912,107.594 185.436,109.025 185.436 C 109.282 185.436,109.493 185.553,109.493 185.696 C 109.493 186.070,112.922 186.005,113.397 185.622 C 114.619 184.638,114.695 182.317,113.532 181.484 C 113.393 181.384,113.334 181.267,113.402 181.224 C 115.152 180.092,118.357 180.154,119.402 181.339 C 120.113 182.146,120.148 182.302,120.152 184.720 L 120.156 187.256 117.831 187.256 C 116.552 187.256,115.433 187.373,115.345 187.516 C 115.256 187.659,114.716 187.776,114.144 187.776 C 113.516 187.776,113.167 187.880,113.264 188.036 C 113.354 188.183,113.148 188.296,112.792 188.296 C 111.943 188.296,109.757 189.282,109.580 189.746 C 109.501 189.950,109.234 190.117,108.986 190.117 C 108.737 190.117,108.315 190.525,108.044 191.027 C 107.775 191.528,107.464 191.938,107.353 191.938 C 107.243 191.938,107.152 192.230,107.152 192.588 C 107.152 192.945,107.035 193.238,106.892 193.238 C 106.744 193.238,106.632 194.013,106.632 195.043 C 106.632 196.036,106.749 196.921,106.892 197.009 C 107.035 197.098,107.152 197.413,107.152 197.709 C 107.152 198.393,109.550 200.780,110.237 200.780 C 110.519 200.780,110.791 200.904,110.842 201.056 C 110.899 201.229,112.046 201.332,113.914 201.332 C 115.782 201.332,116.929 201.229,116.987 201.056 C 117.037 200.904,117.244 200.780,117.447 200.780 C 117.650 200.780,117.815 200.656,117.815 200.505 C 117.815 200.353,117.923 200.296,118.054 200.377 C 118.186 200.458,118.470 200.348,118.686 200.132 C 118.902 199.917,119.199 199.740,119.347 199.740 C 119.495 199.740,119.854 199.484,120.146 199.171 C 120.526 198.762,120.676 198.709,120.676 198.983 C 120.676 199.452,121.583 200.260,122.110 200.260 C 122.323 200.260,122.497 200.381,122.497 200.528 C 122.497 200.701,123.707 200.770,125.943 200.723 L 129.389 200.650 129.468 199.415 L 129.547 198.179 127.908 198.149 C 127.006 198.132,126.200 198.125,126.116 198.134 C 125.841 198.164,125.806 197.344,125.742 189.511 C 125.699 184.215,125.587 181.660,125.388 181.461 C 125.228 181.301,125.098 180.986,125.098 180.760 C 125.098 180.534,124.863 180.180,124.577 179.974 C 124.291 179.768,124.057 179.449,124.057 179.266 C 124.057 179.083,123.908 178.934,123.725 178.934 C 123.542 178.934,123.223 178.700,123.017 178.414 C 122.811 178.127,122.382 177.893,122.065 177.893 C 121.747 177.893,121.415 177.776,121.326 177.633 C 121.231 177.479,119.638 177.373,117.425 177.373 C 115.212 177.373,113.619 177.479,113.524 177.633 M143.693 177.633 C 143.605 177.776,143.305 177.893,143.028 177.893 C 142.750 177.893,142.523 178.010,142.523 178.153 C 142.523 178.296,142.397 178.414,142.244 178.414 C 142.091 178.414,141.802 178.560,141.603 178.739 C 140.285 179.920,140.182 179.944,140.182 179.064 L 140.182 178.414 135.501 178.414 L 130.819 178.414 130.819 179.974 L 130.819 181.534 132.640 181.534 L 134.460 181.534 134.460 189.597 L 134.460 197.659 132.640 197.659 L 130.819 197.659 130.819 199.220 L 130.819 200.780 137.061 200.780 L 143.303 200.780 143.303 199.220 L 143.303 197.659 141.743 197.659 L 140.182 197.659 140.182 191.547 C 140.182 187.646,140.276 185.436,140.442 185.436 C 140.585 185.436,140.702 185.143,140.702 184.785 C 140.702 184.428,140.814 184.135,140.951 184.135 C 141.087 184.135,141.276 183.726,141.370 183.225 C 141.463 182.724,141.639 182.315,141.760 182.315 C 141.880 182.315,142.272 182.022,142.629 181.664 C 142.987 181.307,143.402 181.014,143.551 181.014 C 143.701 181.014,143.823 180.897,143.823 180.754 C 143.823 180.189,147.319 180.450,147.732 181.046 C 147.942 181.350,148.261 181.751,148.440 181.938 C 148.685 182.194,148.765 184.170,148.765 189.968 L 148.765 197.659 147.204 197.659 L 145.644 197.659 145.644 199.220 L 145.644 200.780 151.886 200.780 L 158.127 200.780 158.127 199.220 L 158.127 197.659 156.329 197.659 L 154.531 197.659 154.444 189.423 C 154.377 183.129,154.280 181.162,154.031 181.079 C 153.852 181.020,153.706 180.805,153.706 180.603 C 153.706 180.400,153.589 180.234,153.446 180.234 C 153.303 180.234,153.182 180.088,153.177 179.909 C 153.164 179.403,152.239 178.414,151.779 178.414 C 151.551 178.414,151.365 178.320,151.365 178.206 C 151.365 177.491,144.115 176.950,143.693 177.633 M168.791 177.633 C 168.576 177.772,168.137 177.887,167.815 177.889 C 167.493 177.892,167.230 178.010,167.230 178.153 C 167.230 178.296,166.996 178.414,166.710 178.414 C 166.424 178.414,166.190 178.523,166.190 178.656 C 166.190 178.789,165.927 178.982,165.605 179.083 C 165.283 179.185,164.817 179.515,164.569 179.816 C 163.809 180.741,163.677 180.871,163.105 181.266 C 162.800 181.476,162.479 182.031,162.391 182.499 C 162.304 182.967,162.127 183.286,162.000 183.207 C 161.873 183.129,161.769 183.305,161.769 183.600 C 161.769 183.894,161.651 184.135,161.508 184.135 C 161.365 184.135,161.248 184.404,161.248 184.733 C 161.248 185.062,161.104 185.476,160.928 185.652 C 160.705 185.875,160.607 187.044,160.607 189.467 C 160.607 191.890,160.705 193.059,160.928 193.281 C 161.104 193.458,161.248 193.814,161.248 194.074 C 161.248 194.527,161.726 195.569,162.059 195.839 C 162.147 195.910,162.301 196.232,162.401 196.554 C 162.502 196.876,162.693 197.139,162.826 197.139 C 162.960 197.139,163.070 197.285,163.072 197.464 C 163.075 197.858,164.702 199.480,165.094 199.480 C 165.247 199.480,165.527 199.626,165.716 199.805 C 165.905 199.984,166.411 200.290,166.840 200.485 C 167.269 200.681,167.824 200.944,168.072 201.071 C 168.709 201.395,175.553 201.367,175.553 201.040 C 175.553 200.897,175.845 200.780,176.203 200.780 C 176.560 200.780,176.853 200.663,176.853 200.520 C 176.853 200.377,177.087 200.260,177.373 200.260 C 177.659 200.260,177.893 200.156,177.893 200.028 C 177.893 199.901,178.186 199.723,178.544 199.633 C 178.901 199.543,179.194 199.355,179.194 199.215 C 179.194 199.074,179.319 198.960,179.472 198.960 C 179.772 198.960,180.494 198.321,180.494 198.056 C 180.494 197.968,180.787 197.603,181.144 197.246 C 181.502 196.888,181.795 196.425,181.795 196.217 C 181.795 196.009,181.884 195.839,181.993 195.839 C 182.317 195.839,183.095 193.818,183.095 192.976 C 183.095 192.548,183.212 192.198,183.355 192.198 C 183.514 192.198,183.615 190.984,183.615 189.077 C 183.615 187.360,183.513 185.956,183.389 185.956 C 183.264 185.956,183.084 185.371,182.989 184.655 C 182.895 183.940,182.704 183.355,182.566 183.355 C 182.428 183.355,182.315 183.121,182.315 182.835 C 182.315 182.549,182.198 182.315,182.055 182.315 C 181.912 182.315,181.795 182.164,181.795 181.979 C 181.795 181.794,181.326 181.213,180.754 180.687 C 180.182 180.161,179.714 179.627,179.714 179.501 C 179.714 179.375,179.187 179.055,178.544 178.790 C 177.900 178.524,177.373 178.214,177.373 178.100 C 177.373 177.986,177.088 177.893,176.738 177.893 C 176.389 177.893,176.031 177.776,175.943 177.633 C 175.735 177.296,169.312 177.296,168.791 177.633 M244.343 177.633 C 244.255 177.776,243.954 177.893,243.674 177.893 C 243.141 177.893,242.268 178.318,241.669 178.869 C 241.474 179.047,241.205 179.194,241.070 179.194 C 240.337 179.194,237.451 182.803,237.451 183.720 C 237.451 183.948,237.334 184.135,237.191 184.135 C 237.048 184.135,236.931 184.404,236.931 184.733 C 236.931 185.062,236.786 185.477,236.608 185.655 C 236.381 185.881,236.285 187.072,236.285 189.652 C 236.285 192.347,236.371 193.355,236.608 193.434 C 236.786 193.493,236.931 193.817,236.931 194.155 C 236.931 194.492,237.039 194.835,237.171 194.916 C 237.303 194.998,237.483 195.392,237.571 195.791 C 237.659 196.191,237.960 196.684,238.241 196.886 C 238.522 197.088,238.752 197.381,238.752 197.537 C 238.752 198.077,240.262 199.353,241.779 200.095 C 242.617 200.505,243.516 200.950,243.776 201.084 C 244.443 201.427,251.072 201.400,251.188 201.054 C 251.238 200.903,251.562 200.780,251.907 200.780 C 252.253 200.780,252.536 200.663,252.536 200.520 C 252.536 200.377,252.770 200.260,253.056 200.260 C 253.342 200.260,253.576 200.143,253.576 200.000 C 253.576 199.857,253.733 199.740,253.926 199.740 C 254.118 199.740,254.615 199.447,255.031 199.090 C 255.447 198.733,255.856 198.440,255.941 198.440 C 256.026 198.440,256.316 198.030,256.585 197.529 C 256.855 197.029,257.166 196.619,257.276 196.619 C 257.387 196.619,257.477 196.443,257.477 196.229 C 257.477 196.014,257.585 195.839,257.717 195.839 C 257.848 195.839,258.033 195.489,258.127 195.062 C 258.221 194.634,258.406 194.217,258.538 194.136 C 258.670 194.054,258.778 193.585,258.778 193.093 C 258.778 192.600,258.895 192.198,259.038 192.198 C 259.196 192.198,259.298 191.032,259.298 189.222 C 259.298 187.519,259.187 186.178,259.038 186.086 C 258.895 185.997,258.778 185.638,258.778 185.287 C 258.778 184.936,258.666 184.445,258.530 184.197 C 258.394 183.948,258.078 183.277,257.828 182.705 C 257.330 181.565,254.804 178.934,254.209 178.934 C 254.004 178.934,253.836 178.817,253.836 178.674 C 253.836 178.531,253.661 178.414,253.446 178.414 C 253.231 178.414,253.056 178.296,253.056 178.153 C 253.056 178.010,252.770 177.893,252.421 177.893 C 252.072 177.893,251.714 177.776,251.625 177.633 C 251.531 177.481,250.024 177.373,247.984 177.373 C 245.945 177.373,244.438 177.481,244.343 177.633 M305.982 177.633 C 305.893 177.776,305.535 177.893,305.186 177.893 C 304.837 177.893,304.551 178.010,304.551 178.153 C 304.551 178.296,304.317 178.414,304.031 178.414 C 303.745 178.414,303.511 178.531,303.511 178.674 C 303.511 178.817,303.341 178.934,303.133 178.934 C 302.627 178.934,300.910 180.733,300.910 181.263 C 300.910 181.412,300.793 181.534,300.650 181.534 C 300.506 181.534,300.390 182.228,300.390 183.095 C 300.390 183.962,300.506 184.655,300.650 184.655 C 300.793 184.655,300.910 184.831,300.910 185.046 C 300.910 185.260,301.086 185.436,301.300 185.436 C 301.515 185.436,301.691 185.553,301.691 185.696 C 301.691 185.846,302.519 185.956,303.656 185.956 C 304.901 185.956,305.563 185.860,305.462 185.696 C 305.373 185.553,305.479 185.436,305.697 185.436 C 306.594 185.436,307.008 181.877,306.145 181.589 C 305.715 181.445,305.787 181.014,306.242 181.014 C 306.456 181.014,306.632 180.897,306.632 180.754 C 306.632 180.006,311.167 180.471,311.704 181.274 C 311.990 181.703,312.311 182.053,312.419 182.054 C 312.526 182.054,312.614 183.225,312.614 184.655 L 312.614 187.256 310.143 187.256 C 308.669 187.256,307.672 187.361,307.672 187.516 C 307.672 187.659,307.211 187.776,306.647 187.776 C 306.084 187.776,305.550 187.893,305.462 188.036 C 305.373 188.179,305.038 188.296,304.716 188.296 C 304.394 188.296,303.903 188.468,303.626 188.678 C 303.348 188.888,302.942 189.064,302.723 189.068 C 302.504 189.073,302.157 189.311,301.951 189.597 C 301.744 189.883,301.476 190.117,301.354 190.117 C 301.010 190.117,300.477 190.734,300.277 191.365 C 300.177 191.680,299.986 191.938,299.852 191.938 C 299.719 191.938,299.610 192.230,299.610 192.588 C 299.610 192.945,299.493 193.238,299.350 193.238 C 299.200 193.238,299.090 194.062,299.090 195.189 C 299.090 196.316,299.200 197.139,299.350 197.139 C 299.493 197.139,299.610 197.378,299.610 197.670 C 299.610 198.183,299.886 198.638,300.597 199.297 C 300.783 199.469,301.193 199.864,301.508 200.175 C 301.823 200.486,302.315 200.778,302.601 200.825 C 302.887 200.872,303.189 201.002,303.272 201.115 C 303.761 201.776,310.273 201.163,310.273 200.457 C 310.273 200.349,310.449 200.260,310.663 200.260 C 310.878 200.260,311.053 200.143,311.053 200.000 C 311.053 199.857,311.249 199.740,311.488 199.740 C 311.727 199.740,312.113 199.568,312.345 199.358 C 312.719 199.019,312.839 199.041,313.405 199.553 C 314.656 200.683,315.182 200.802,318.596 200.724 L 321.847 200.650 321.926 199.415 L 322.005 198.179 320.155 198.179 C 319.137 198.179,318.364 198.083,318.437 197.966 C 318.510 197.848,318.399 197.425,318.192 197.026 C 317.739 196.152,317.635 186.618,318.075 186.346 C 318.394 186.149,318.425 184.395,318.110 184.395 C 317.985 184.395,317.827 183.517,317.759 182.444 C 317.657 180.867,317.526 180.400,317.074 180.008 C 316.767 179.741,316.515 179.390,316.515 179.228 C 316.515 179.066,316.365 178.934,316.182 178.934 C 315.999 178.934,315.681 178.700,315.475 178.414 C 315.268 178.127,314.840 177.893,314.522 177.893 C 314.205 177.893,313.873 177.776,313.784 177.633 C 313.689 177.479,312.096 177.373,309.883 177.373 C 307.670 177.373,306.077 177.479,305.982 177.633 M331.469 177.633 C 331.381 177.776,331.023 177.893,330.674 177.893 C 330.325 177.893,330.039 178.010,330.039 178.153 C 330.039 178.296,329.857 178.414,329.634 178.414 C 329.411 178.414,329.300 178.531,329.389 178.674 C 329.477 178.817,329.365 178.934,329.140 178.934 C 328.664 178.934,326.398 181.212,326.398 181.689 C 326.398 181.866,326.252 182.060,326.073 182.119 C 325.832 182.200,325.748 183.256,325.748 186.215 C 325.748 189.174,325.832 190.231,326.073 190.312 C 326.252 190.371,326.398 190.645,326.398 190.919 C 326.398 191.193,326.515 191.417,326.658 191.417 C 326.958 191.417,327.016 192.631,326.723 192.761 C 326.416 192.898,325.618 194.445,325.618 194.904 C 325.618 195.132,325.501 195.319,325.358 195.319 C 325.202 195.319,325.098 196.316,325.098 197.789 C 325.098 199.263,325.202 200.260,325.358 200.260 C 325.501 200.260,325.618 200.452,325.618 200.687 C 325.618 201.216,326.787 202.350,327.828 202.831 C 328.391 203.090,330.278 203.226,334.590 203.319 C 337.880 203.389,340.611 203.549,340.659 203.674 C 340.707 203.799,340.911 203.901,341.114 203.901 C 343.140 203.901,342.798 208.556,340.680 209.808 C 340.263 210.054,339.922 210.347,339.922 210.459 C 339.922 210.571,339.698 210.663,339.423 210.663 C 339.149 210.663,338.876 210.809,338.817 210.988 C 338.626 211.560,330.518 211.439,329.934 210.856 C 329.683 210.604,329.340 210.477,329.173 210.572 C 329.006 210.668,328.949 210.657,329.048 210.547 C 329.147 210.437,329.000 210.104,328.723 209.806 C 328.445 209.508,328.218 209.062,328.218 208.815 C 328.218 208.568,328.072 208.298,327.893 208.214 C 327.633 208.093,327.633 208.032,327.893 207.911 C 328.072 207.827,328.218 207.476,328.218 207.130 C 328.218 206.785,328.336 206.502,328.479 206.502 C 328.980 206.502,328.739 205.231,328.161 204.826 C 327.250 204.188,326.160 204.318,325.386 205.156 C 322.764 207.994,323.834 211.799,327.812 213.791 C 329.317 214.545,339.266 214.805,339.961 214.109 C 340.140 213.930,340.497 213.784,340.754 213.784 C 341.012 213.784,341.222 213.667,341.222 213.524 C 341.222 213.381,341.398 213.264,341.612 213.264 C 341.827 213.264,342.003 213.147,342.003 213.004 C 342.003 212.861,342.240 212.744,342.531 212.744 C 342.821 212.744,343.127 212.568,343.209 212.354 C 343.291 212.139,343.529 211.964,343.736 211.964 C 343.944 211.964,344.042 211.847,343.953 211.704 C 343.865 211.560,343.955 211.443,344.154 211.443 C 344.353 211.443,344.672 211.151,344.863 210.793 C 345.055 210.436,345.309 210.143,345.428 210.143 C 345.546 210.143,345.644 209.967,345.644 209.753 C 345.644 209.538,345.754 209.363,345.888 209.363 C 346.022 209.363,346.211 208.835,346.308 208.189 C 346.405 207.544,346.587 206.952,346.714 206.874 C 347.034 206.676,347.006 203.381,346.684 203.381 C 346.541 203.381,346.424 203.038,346.424 202.619 C 346.424 202.200,346.219 201.653,345.969 201.403 C 345.718 201.152,345.543 200.910,345.579 200.864 C 345.805 200.573,345.553 200.247,344.995 200.107 C 344.639 200.018,344.412 199.840,344.490 199.712 C 344.569 199.584,344.452 199.480,344.229 199.480 C 344.006 199.480,343.823 199.363,343.823 199.220 C 343.823 199.077,343.554 198.960,343.225 198.960 C 342.896 198.960,342.516 198.854,342.380 198.725 C 342.244 198.596,339.361 198.447,335.973 198.394 L 329.812 198.298 329.255 197.655 C 328.793 197.122,328.728 196.819,328.871 195.865 C 329.049 194.677,329.770 193.600,329.975 194.216 C 330.034 194.393,330.300 194.538,330.565 194.538 C 330.831 194.538,331.121 194.655,331.209 194.798 C 331.303 194.949,332.724 195.059,334.590 195.059 C 336.457 195.059,337.878 194.949,337.971 194.798 C 338.060 194.655,338.418 194.538,338.767 194.538 C 339.116 194.538,339.402 194.421,339.402 194.278 C 339.402 194.135,339.577 194.018,339.792 194.018 C 340.007 194.018,340.182 193.928,340.182 193.817 C 340.182 193.707,340.578 193.403,341.061 193.143 C 341.545 192.882,342.091 192.388,342.276 192.043 C 342.460 191.699,342.703 191.417,342.815 191.417 C 342.927 191.417,343.096 191.008,343.190 190.507 C 343.284 190.007,343.465 189.597,343.592 189.597 C 343.719 189.597,343.823 189.194,343.823 188.702 C 343.823 188.210,343.940 187.735,344.083 187.646 C 344.226 187.558,344.343 186.966,344.343 186.331 C 344.343 185.695,344.226 185.176,344.083 185.176 C 343.940 185.176,343.823 184.784,343.823 184.305 C 343.823 183.827,343.646 183.080,343.429 182.646 C 343.067 181.919,343.123 181.014,343.529 181.014 C 343.623 181.014,343.815 181.278,343.957 181.599 C 344.190 182.131,344.390 182.185,346.164 182.185 C 347.989 182.185,348.120 182.147,348.198 181.599 C 348.243 181.278,348.390 181.014,348.523 181.014 C 348.656 181.014,348.765 180.546,348.765 179.974 C 348.765 179.402,348.648 178.934,348.505 178.934 C 348.362 178.934,348.244 178.742,348.244 178.507 C 348.244 176.930,342.433 176.989,341.826 178.572 C 341.668 178.982,340.182 179.074,340.182 178.674 C 340.182 178.531,340.007 178.414,339.792 178.414 C 339.577 178.414,339.402 178.296,339.402 178.153 C 339.402 178.010,339.175 177.893,338.897 177.893 C 338.619 177.893,338.320 177.776,338.231 177.633 C 338.138 177.483,336.717 177.373,334.850 177.373 C 332.984 177.373,331.563 177.483,331.469 177.633 M357.737 177.633 C 357.649 177.776,357.291 177.893,356.942 177.893 C 356.593 177.893,356.307 178.010,356.307 178.153 C 356.307 178.296,356.131 178.414,355.917 178.414 C 355.702 178.414,355.527 178.531,355.527 178.674 C 355.527 178.817,355.359 178.934,355.154 178.934 C 354.729 178.934,351.886 181.644,351.886 182.049 C 351.886 182.195,351.774 182.315,351.637 182.315 C 351.501 182.315,351.312 182.724,351.218 183.225 C 351.124 183.726,350.943 184.135,350.816 184.135 C 350.689 184.135,350.585 184.493,350.585 184.931 C 350.585 185.368,350.482 185.663,350.357 185.585 C 350.113 185.435,349.756 187.743,349.756 189.467 C 349.756 191.131,350.109 193.498,350.357 193.498 C 350.483 193.498,350.585 193.784,350.585 194.133 C 350.585 194.482,350.689 194.832,350.816 194.911 C 350.944 194.989,351.126 195.365,351.221 195.746 C 351.317 196.127,351.740 196.760,352.161 197.153 C 352.581 197.546,352.926 197.997,352.926 198.154 C 352.926 198.311,353.108 198.440,353.331 198.440 C 353.554 198.440,353.664 198.557,353.576 198.700 C 353.488 198.843,353.585 198.960,353.793 198.960 C 354.001 198.960,354.238 199.135,354.320 199.350 C 354.403 199.564,354.708 199.740,354.998 199.740 C 355.289 199.740,355.527 199.857,355.527 200.000 C 355.527 200.143,355.702 200.260,355.917 200.260 C 356.131 200.260,356.307 200.352,356.307 200.463 C 356.307 201.195,364.605 201.765,364.843 201.050 C 364.892 200.901,365.216 200.780,365.561 200.780 C 365.907 200.780,366.190 200.663,366.190 200.520 C 366.190 200.377,366.372 200.260,366.595 200.260 C 366.818 200.260,366.928 200.143,366.840 200.000 C 366.752 199.857,366.852 199.740,367.062 199.740 C 367.505 199.740,369.311 198.064,369.311 197.653 C 369.311 197.501,369.532 197.140,369.802 196.850 C 370.590 196.005,370.899 193.630,370.299 193.030 C 369.297 192.028,367.230 193.318,367.230 194.945 C 367.230 195.224,364.694 197.659,364.404 197.659 C 364.242 197.659,364.109 197.776,364.109 197.919 C 364.109 198.075,363.112 198.179,361.638 198.179 C 360.165 198.179,359.168 198.075,359.168 197.919 C 359.168 197.776,358.977 197.659,358.743 197.659 C 358.253 197.659,357.347 196.705,357.347 196.189 C 357.347 195.996,357.230 195.839,357.087 195.839 C 356.944 195.839,356.827 195.673,356.827 195.470 C 356.827 195.268,356.699 195.059,356.543 195.007 C 356.376 194.951,356.201 193.823,356.117 192.255 L 355.975 189.597 363.553 189.597 L 371.131 189.597 371.131 187.662 C 371.131 186.597,371.025 185.661,370.896 185.581 C 370.766 185.501,370.579 184.850,370.481 184.135 C 370.383 183.420,370.196 182.835,370.067 182.835 C 369.937 182.835,369.831 182.659,369.831 182.445 C 369.831 182.230,369.714 182.055,369.571 182.055 C 369.428 182.055,369.311 181.881,369.311 181.668 C 369.311 181.108,366.754 178.616,366.402 178.833 C 366.224 178.944,366.182 178.897,366.295 178.714 C 366.405 178.536,366.315 178.414,366.075 178.414 C 365.852 178.414,365.670 178.296,365.670 178.153 C 365.670 178.010,365.384 177.893,365.035 177.893 C 364.686 177.893,364.328 177.776,364.239 177.633 C 364.147 177.484,362.768 177.373,360.988 177.373 C 359.209 177.373,357.830 177.484,357.737 177.633 M72.822 180.754 C 72.822 180.897,72.947 181.014,73.101 181.014 C 73.537 181.014,74.080 181.666,74.268 182.416 C 74.363 182.792,74.544 183.164,74.671 183.243 C 74.798 183.321,74.902 183.912,74.902 184.556 C 74.902 185.200,74.995 185.669,75.109 185.599 C 75.222 185.529,75.332 185.698,75.352 185.974 C 75.389 186.453,75.174 186.476,70.702 186.476 L 66.014 186.476 66.188 185.371 C 66.389 184.102,66.876 182.835,67.164 182.835 C 67.272 182.835,67.360 182.659,67.360 182.445 C 67.360 182.230,67.469 182.055,67.603 182.055 C 67.736 182.055,67.920 181.821,68.010 181.534 C 68.101 181.248,68.402 181.014,68.678 181.014 C 68.955 181.014,69.181 180.897,69.181 180.754 C 69.181 180.606,69.961 180.494,71.001 180.494 C 72.042 180.494,72.822 180.606,72.822 180.754 M174.252 180.754 C 174.252 180.897,174.419 181.014,174.622 181.014 C 175.206 181.014,176.534 182.494,176.723 183.354 C 176.817 183.784,176.980 184.135,177.085 184.135 C 177.190 184.135,177.304 184.691,177.339 185.371 C 177.374 186.050,177.513 186.717,177.648 186.853 C 177.976 187.184,177.964 191.343,177.633 191.547 C 177.490 191.636,177.373 192.221,177.373 192.848 C 177.373 193.475,177.269 194.052,177.143 194.130 C 177.016 194.208,176.836 194.679,176.743 195.176 C 176.565 196.124,175.254 197.659,174.622 197.659 C 174.419 197.659,174.252 197.776,174.252 197.919 C 174.252 198.072,173.342 198.179,172.042 198.179 C 170.741 198.179,169.831 198.072,169.831 197.919 C 169.831 197.776,169.645 197.659,169.418 197.659 C 168.958 197.659,168.033 196.670,168.019 196.164 C 168.014 195.985,167.899 195.839,167.762 195.839 C 167.626 195.839,167.435 195.400,167.338 194.863 C 167.241 194.327,167.055 193.752,166.923 193.586 C 166.279 192.771,167.063 182.835,167.771 182.835 C 167.903 182.835,168.010 182.659,168.010 182.445 C 168.010 182.230,168.120 182.055,168.253 182.055 C 168.386 182.055,168.570 181.819,168.662 181.531 C 168.753 181.243,168.930 181.070,169.054 181.146 C 169.178 181.223,169.433 181.112,169.620 180.900 C 170.020 180.447,174.252 180.314,174.252 180.754 M249.935 180.754 C 249.935 180.897,250.051 181.014,250.193 181.014 C 250.676 181.014,251.788 182.175,252.185 183.092 C 252.402 183.594,252.687 184.208,252.818 184.457 C 252.949 184.705,253.056 185.313,253.056 185.807 C 253.056 186.301,253.173 186.778,253.316 186.866 C 253.459 186.954,253.576 188.015,253.576 189.222 C 253.576 190.512,253.469 191.417,253.316 191.417 C 253.173 191.417,253.056 192.003,253.056 192.718 C 253.056 193.433,252.939 194.018,252.796 194.018 C 252.653 194.018,252.536 194.234,252.536 194.498 C 252.536 195.544,250.968 197.659,250.193 197.659 C 250.051 197.659,249.935 197.776,249.935 197.919 C 249.935 198.072,249.025 198.179,247.724 198.179 C 246.424 198.179,245.514 198.072,245.514 197.919 C 245.514 197.776,245.330 197.659,245.105 197.659 C 244.593 197.659,244.192 197.258,243.548 196.099 C 243.270 195.598,242.926 195.105,242.783 195.003 C 241.946 194.406,242.624 182.835,243.497 182.835 C 243.605 182.835,243.693 182.677,243.693 182.485 C 243.693 181.968,244.599 181.014,245.089 181.014 C 245.323 181.014,245.514 180.897,245.514 180.754 C 245.514 180.601,246.424 180.494,247.724 180.494 C 249.025 180.494,249.935 180.601,249.935 180.754 M336.801 180.692 C 336.801 180.801,337.123 181.237,337.516 181.661 C 338.228 182.429,338.231 182.448,338.231 186.221 C 338.231 190.008,338.231 190.011,337.516 190.726 C 337.123 191.119,336.801 191.553,336.801 191.689 C 336.801 192.251,332.781 191.975,332.372 191.386 C 332.162 191.082,331.843 190.681,331.664 190.494 C 331.486 190.307,331.339 189.853,331.339 189.485 C 331.339 189.118,331.222 188.817,331.079 188.817 C 330.923 188.817,330.819 187.776,330.819 186.216 C 330.819 184.655,330.923 183.615,331.079 183.615 C 331.222 183.615,331.339 183.377,331.339 183.086 C 331.339 182.603,331.845 181.626,332.508 180.829 C 332.796 180.483,336.801 180.355,336.801 180.692 M362.886 180.795 C 363.761 181.264,364.103 181.698,364.275 182.560 C 364.363 182.997,364.537 183.355,364.662 183.355 C 364.787 183.355,364.889 183.875,364.889 184.510 C 364.889 185.145,365.007 185.737,365.150 185.826 C 365.973 186.335,365.008 186.476,360.705 186.476 L 356.001 186.476 356.175 185.371 C 356.376 184.102,356.863 182.835,357.151 182.835 C 357.259 182.835,357.347 182.677,357.347 182.485 C 357.347 181.968,358.253 181.014,358.743 181.014 C 358.977 181.014,359.168 180.897,359.168 180.754 C 359.168 180.393,362.196 180.426,362.886 180.795 M120.156 192.458 C 120.156 193.602,120.052 194.538,119.924 194.538 C 119.797 194.538,119.620 194.826,119.532 195.178 C 119.349 195.906,118.292 197.139,117.851 197.139 C 117.688 197.139,117.555 197.256,117.555 197.399 C 117.555 197.542,117.373 197.659,117.150 197.659 C 116.927 197.659,116.804 197.757,116.878 197.875 C 117.274 198.516,114.160 198.189,113.491 197.520 C 112.118 196.147,112.307 192.585,113.795 191.784 C 114.290 191.517,114.694 191.209,114.694 191.098 C 114.694 190.988,115.104 190.897,115.605 190.897 C 116.105 190.897,116.515 190.780,116.515 190.637 C 116.515 190.489,117.295 190.377,118.336 190.377 L 120.156 190.377 120.156 192.458 M312.614 192.458 C 312.614 193.671,312.505 194.538,312.354 194.538 C 312.211 194.538,312.094 194.714,312.094 194.928 C 312.094 195.143,311.977 195.319,311.834 195.319 C 311.691 195.319,311.573 195.527,311.573 195.781 C 311.573 196.220,310.745 197.133,310.335 197.145 C 310.229 197.148,309.850 197.380,309.493 197.659 C 308.151 198.709,305.332 198.003,305.332 196.617 C 305.332 196.475,305.215 196.359,305.072 196.359 C 304.927 196.359,304.811 195.665,304.811 194.798 C 304.811 193.932,304.927 193.238,305.072 193.238 C 305.215 193.238,305.332 193.022,305.332 192.759 C 305.332 192.478,305.708 192.077,306.242 191.789 C 306.743 191.520,307.152 191.209,307.152 191.098 C 307.152 190.988,307.562 190.897,308.062 190.897 C 308.563 190.897,308.973 190.780,308.973 190.637 C 308.973 190.489,309.753 190.377,310.793 190.377 L 312.614 190.377 312.614 192.458 " stroke="none" fill="#b11d23" fill-rule="evenodd"></path></g></svg>